<svg width="16" height="16" viewBox="0 0 16 16" fill="none" xmlns="http://www.w3.org/2000/svg">
<g clip-path="url(#clip0_2110_9318)">
<path d="M8.73366 7.69244V5.20002C8.73366 5.00364 8.6692 4.84065 8.54029 4.71106C8.41138 4.58148 8.24923 4.51669 8.05384 4.51669C7.85844 4.51669 7.69511 4.58148 7.56386 4.71106C7.43261 4.84065 7.36699 5.00364 7.36699 5.20002V7.96669C7.36699 8.06669 7.38366 8.16034 7.41699 8.24764C7.45033 8.33494 7.50033 8.41907 7.56699 8.50002L9.76699 10.7834C9.9144 10.9278 10.0846 10.9972 10.2775 10.9917C10.4705 10.9861 10.6392 10.9167 10.7837 10.7834C10.9281 10.65 11.0003 10.4834 11.0003 10.2834C11.0003 10.0834 10.9281 9.91114 10.7837 9.76669L8.73366 7.69244ZM8.00262 15.0834C7.02331 15.0834 6.1038 14.898 5.24408 14.5273C4.38434 14.1565 3.63372 13.6506 2.99221 13.0095C2.35069 12.3684 1.84444 11.6183 1.47346 10.7591C1.10248 9.89993 0.916992 8.98085 0.916992 8.00186C0.916992 7.02286 1.10357 6.10287 1.47673 5.24191C1.84987 4.38093 2.35549 3.63139 2.99359 2.99329C3.63169 2.35519 4.38071 1.84679 5.24064 1.46809C6.10056 1.08938 7.02046 0.900024 8.00033 0.900024C8.98019 0.900024 9.90009 1.08938 10.76 1.46809C11.6199 1.84679 12.369 2.35519 13.0071 2.99329C13.6452 3.63139 14.1536 4.38041 14.5323 5.24034C14.911 6.10026 15.1003 7.02016 15.1003 8.00002C15.1003 8.97989 14.911 9.89979 14.5323 10.7597C14.1536 11.6196 13.6452 12.3687 13.0071 13.0068C12.369 13.6449 11.6202 14.1505 10.7607 14.5236C9.90131 14.8968 8.98194 15.0834 8.00262 15.0834Z" fill="black" fill-opacity="0.38"/>
</g>
<defs>
<clipPath id="clip0_2110_9318">
<rect width="16" height="16" fill="white"/>
</clipPath>
</defs>
</svg>
