<svg width="16" height="16" viewBox="0 0 16 16" fill="none" xmlns="http://www.w3.org/2000/svg">
<g clip-path="url(#clip0_2110_4666)">
<path d="M6.98366 9.08336L5.66699 7.76669C5.52255 7.62225 5.34415 7.55002 5.13181 7.55002C4.91946 7.55002 4.73119 7.6278 4.56699 7.78336C4.42255 7.93891 4.35033 8.12225 4.35033 8.33336C4.35033 8.54447 4.4281 8.72225 4.58366 8.86669L6.41699 10.7167C6.5776 10.8722 6.76498 10.95 6.97911 10.95C7.19325 10.95 7.38366 10.8722 7.55032 10.7167L11.3337 6.91669C11.5003 6.76114 11.5837 6.57996 11.5837 6.37317C11.5837 6.16639 11.5003 5.98089 11.3337 5.81669C11.1781 5.67225 10.9914 5.6028 10.7735 5.60836C10.5556 5.61391 10.3701 5.68891 10.217 5.83336L6.98366 9.08336ZM8.00262 15.0834C7.02331 15.0834 6.10318 14.8996 5.24221 14.532C4.38123 14.1644 3.62891 13.6587 2.98526 13.0151C2.3416 12.3714 1.83598 11.6199 1.46839 10.7604C1.10079 9.90101 0.916992 8.98164 0.916992 8.00232C0.916992 7.0119 1.10079 6.08621 1.46839 5.22524C1.83598 4.36426 2.34073 3.61444 2.98264 2.97576C3.62455 2.33707 4.37564 1.83144 5.23589 1.45887C6.09615 1.08631 7.0164 0.900024 7.99664 0.900024C8.98799 0.900024 9.9148 1.08588 10.7771 1.45759C11.6394 1.82929 12.3894 2.33375 13.0273 2.97096C13.6651 3.60817 14.1701 4.35749 14.5422 5.21891C14.9143 6.08032 15.1003 7.00736 15.1003 8.00002C15.1003 8.98087 14.914 9.90169 14.5415 10.7625C14.1689 11.6233 13.6633 12.3748 13.0246 13.0171C12.3859 13.6594 11.6369 14.1644 10.7774 14.532C9.91798 14.8996 8.99305 15.0834 8.00262 15.0834Z" fill="#2E7D32"/>
</g>
<defs>
<clipPath id="clip0_2110_4666">
<rect width="16" height="16" fill="white"/>
</clipPath>
</defs>
</svg>
