<svg width="16" height="16" viewBox="0 0 16 16" fill="none" xmlns="http://www.w3.org/2000/svg">
<path d="M1.66649 14.2166C1.50557 14.2166 1.36679 14.1781 1.25015 14.1012C1.1335 14.0243 1.0445 13.9294 0.983154 13.8166C0.914632 13.71 0.87806 13.5856 0.873438 13.4436C0.868804 13.3016 0.905377 13.1593 0.983154 13.0166L7.31649 2.08328C7.39427 1.94995 7.49484 1.85273 7.6182 1.79162C7.74156 1.73051 7.86934 1.69995 8.00154 1.69995C8.13373 1.69995 8.26093 1.73051 8.38315 1.79162C8.50538 1.85273 8.60538 1.94995 8.68315 2.08328L15.0165 13.0166C15.0943 13.1593 15.1308 13.3016 15.1262 13.4436C15.1216 13.5856 15.085 13.71 15.0165 13.8166C14.9532 13.925 14.8637 14.0187 14.7481 14.0979C14.6324 14.177 14.4941 14.2166 14.3332 14.2166H1.66649ZM8.0694 12.0166C8.21829 12.0166 8.34948 11.9589 8.46295 11.8435C8.57642 11.7281 8.63315 11.5959 8.63315 11.447C8.63315 11.2981 8.57544 11.1697 8.46002 11.0618C8.3446 10.9539 8.21245 10.9 8.06357 10.9C7.91468 10.9 7.7835 10.9549 7.67002 11.0648C7.55655 11.1746 7.49982 11.304 7.49982 11.4529C7.49982 11.6018 7.55753 11.7329 7.67295 11.8464C7.78838 11.9599 7.92053 12.0166 8.0694 12.0166ZM8.0694 10.2C8.2119 10.2 8.33038 10.152 8.42482 10.0562C8.51927 9.96037 8.56649 9.84162 8.56649 9.69995V7.09995C8.56649 6.95828 8.51829 6.83953 8.42191 6.7437C8.3255 6.64787 8.20606 6.59995 8.06357 6.59995C7.92107 6.59995 7.8026 6.64787 7.70815 6.7437C7.61371 6.83953 7.56649 6.95828 7.56649 7.09995V9.69995C7.56649 9.84162 7.61468 9.96037 7.71107 10.0562C7.80747 10.152 7.92692 10.2 8.0694 10.2Z" fill="#D32F2F"/>
</svg>
