<svg width="20" height="20" viewBox="0 0 20 20" fill="none" xmlns="http://www.w3.org/2000/svg">
<path d="M15.2292 17.1458C14.9931 17.1458 14.7674 17.1007 14.5521 17.0104C14.3368 16.9201 14.1389 16.7847 13.9584 16.6042L9.31254 11.9167C8.9931 12.0278 8.67365 12.1181 8.35421 12.1875C8.03476 12.2569 7.70837 12.2917 7.37504 12.2917C6.02782 12.2917 4.88198 11.8229 3.93754 10.8854C2.9931 9.94792 2.52087 8.80556 2.52087 7.45833C2.52087 7.02778 2.57643 6.60764 2.68754 6.19792C2.79865 5.78819 2.95837 5.40278 3.16671 5.04167L6.18754 8.0625L8.10421 6.27083L5.00004 3.16667C5.36115 2.95833 5.7431 2.79514 6.14587 2.67708C6.54865 2.55903 6.95837 2.5 7.37504 2.5C8.75004 2.5 9.92018 2.98264 10.8855 3.94792C11.8507 4.91319 12.3334 6.08333 12.3334 7.45833C12.3334 7.79167 12.2987 8.11806 12.2292 8.4375C12.1598 8.75694 12.0695 9.07639 11.9584 9.39583L16.5625 14C16.7431 14.1806 16.8785 14.3854 16.9688 14.6146C17.0591 14.8438 17.1042 15.0833 17.1042 15.3333C17.1042 15.5833 17.0556 15.8229 16.9584 16.0521C16.8612 16.2812 16.7153 16.4792 16.5209 16.6458C16.3264 16.8125 16.1216 16.9375 15.9063 17.0208C15.691 17.1042 15.4653 17.1458 15.2292 17.1458Z" fill="#225FA6"/>
</svg>
