<svg width="32" height="32" viewBox="0 0 32 32" fill="none" xmlns="http://www.w3.org/2000/svg">
<g filter="url(#filter0_d_1998_81056)">
<rect x="4" y="3" width="24" height="24" rx="12" fill="#225FA6" shape-rendering="crispEdges"/>
<g clip-path="url(#clip0_1998_81056)">
<path d="M14.833 10.2498C14.833 10.0943 14.8913 9.95817 15.008 9.8415C15.1247 9.72484 15.2608 9.6665 15.4163 9.6665C15.5719 9.6665 15.708 9.72484 15.8247 9.8415C15.9413 9.95817 15.9997 10.0943 15.9997 10.2498L15.9997 19.7498C15.9997 19.9054 15.9413 20.0415 15.8247 20.1582C15.708 20.2748 15.5719 20.3332 15.4163 20.3332C15.2608 20.3332 15.1247 20.2748 15.008 20.1582C14.8913 20.0415 14.833 19.9054 14.833 19.7498L14.833 10.2498ZM16.8497 10.1665C16.8497 10.0221 16.8969 9.90261 16.9913 9.80817C17.0858 9.71373 17.2052 9.6665 17.3497 9.6665C17.4941 9.6665 17.6136 9.71373 17.708 9.80817C17.8025 9.90261 17.8497 10.0221 17.8497 10.1665L17.8497 19.8332C17.8497 19.9776 17.8025 20.0971 17.708 20.1915C17.6136 20.2859 17.4941 20.3332 17.3497 20.3332C17.2052 20.3332 17.0858 20.2859 16.9913 20.1915C16.8969 20.0971 16.8497 19.9776 16.8497 19.8332L16.8497 10.1665ZM9.33301 14.9832C9.33301 14.8387 9.38023 14.7193 9.47467 14.6248C9.56912 14.5304 9.68856 14.4832 9.83301 14.4832L11.9663 14.4832L11.0497 13.5498C10.9608 13.4498 10.9136 13.3332 10.908 13.1998C10.9025 13.0665 10.9497 12.9498 11.0497 12.8498C11.1497 12.7498 11.2663 12.6998 11.3997 12.6998C11.533 12.6998 11.6497 12.7498 11.7497 12.8498L13.5163 14.6332C13.5719 14.6887 13.6108 14.7443 13.633 14.7998C13.6552 14.8554 13.6663 14.9165 13.6663 14.9832C13.6663 15.0498 13.6552 15.1109 13.633 15.1665C13.6108 15.2221 13.5719 15.2776 13.5163 15.3332L11.7497 17.0832C11.6497 17.1721 11.533 17.2193 11.3997 17.2248C11.2663 17.2304 11.1497 17.1832 11.0497 17.0832C10.9497 16.9832 10.8997 16.8665 10.8997 16.7332C10.8997 16.5998 10.9497 16.4832 11.0497 16.3832L11.9663 15.4832L9.83301 15.4832C9.68856 15.4832 9.56912 15.4359 9.47467 15.3415C9.38023 15.2471 9.33301 15.1276 9.33301 14.9832ZM18.9997 14.9832C18.9997 14.9165 19.0108 14.8554 19.033 14.7998C19.0552 14.7443 19.0941 14.6887 19.1497 14.6332L20.9163 12.8665C21.0052 12.7776 21.1191 12.7304 21.258 12.7248C21.3969 12.7193 21.5163 12.7665 21.6163 12.8665C21.7163 12.9665 21.7663 13.0832 21.7663 13.2165C21.7663 13.3498 21.7163 13.4665 21.6163 13.5665L20.6997 14.4665L22.833 14.4665C22.9775 14.4665 23.0969 14.5137 23.1913 14.6082C23.2858 14.7026 23.333 14.8221 23.333 14.9665C23.333 15.1109 23.2858 15.2304 23.1913 15.3248C23.0969 15.4193 22.9775 15.4665 22.833 15.4665L20.6997 15.4665L21.6163 16.3998C21.7052 16.4998 21.7525 16.6165 21.758 16.7498C21.7636 16.8832 21.7163 16.9998 21.6163 17.0998C21.5163 17.1998 21.3997 17.2498 21.2663 17.2498C21.133 17.2498 21.0163 17.1998 20.9163 17.0998L19.1497 15.3332C19.0941 15.2776 19.0552 15.2221 19.033 15.1665C19.0108 15.1109 18.9997 15.0498 18.9997 14.9832Z" fill="white"/>
</g>
<rect x="4.5" y="3.5" width="23" height="23" rx="11.5" stroke="#225FA6" shape-rendering="crispEdges"/>
</g>
<defs>
<filter id="filter0_d_1998_81056" x="0" y="0" width="32" height="32" filterUnits="userSpaceOnUse" color-interpolation-filters="sRGB">
<feFlood flood-opacity="0" result="BackgroundImageFix"/>
<feColorMatrix in="SourceAlpha" type="matrix" values="0 0 0 0 0 0 0 0 0 0 0 0 0 0 0 0 0 0 127 0" result="hardAlpha"/>
<feOffset dy="1"/>
<feGaussianBlur stdDeviation="2"/>
<feComposite in2="hardAlpha" operator="out"/>
<feColorMatrix type="matrix" values="0 0 0 0 0 0 0 0 0 0 0 0 0 0 0 0 0 0 0.16 0"/>
<feBlend mode="normal" in2="BackgroundImageFix" result="effect1_dropShadow_1998_81056"/>
<feBlend mode="normal" in="SourceGraphic" in2="effect1_dropShadow_1998_81056" result="shape"/>
</filter>
<clipPath id="clip0_1998_81056">
<rect width="16" height="16" fill="white" transform="translate(24 7) rotate(90)"/>
</clipPath>
</defs>
</svg>
