<svg xmlns="http://www.w3.org/2000/svg" width="21" height="20" viewBox="0 0 21 20" fill="none">
<path d="M5.91732 16.6667C4.65343 16.6667 3.57357 16.2292 2.67773 15.3542C1.7819 14.4792 1.33398 13.4098 1.33398 12.1459C1.33398 11.0625 1.66037 10.0973 2.31315 9.25004C2.96593 8.40282 3.8201 7.86115 4.87565 7.62504C5.22287 6.34726 5.91732 5.31254 6.95898 4.52087C8.00065 3.72921 9.18121 3.33337 10.5007 3.33337C12.1257 3.33337 13.5041 3.89935 14.6361 5.03129C15.768 6.16323 16.334 7.54171 16.334 9.16671C17.2923 9.27782 18.0875 9.69101 18.7194 10.4063C19.3513 11.1216 19.6673 11.9584 19.6673 12.9167C19.6673 13.9584 19.3027 14.8438 18.5736 15.573C17.8444 16.3021 16.959 16.6667 15.9173 16.6667H5.91732ZM5.91732 15H15.9173C16.5007 15 16.9937 14.7987 17.3965 14.3959C17.7993 13.9931 18.0007 13.5 18.0007 12.9167C18.0007 12.3334 17.7993 11.8403 17.3965 11.4375C16.9937 11.0348 16.5007 10.8334 15.9173 10.8334H14.6673V9.16671C14.6673 8.01393 14.2611 7.03129 13.4486 6.21879C12.6361 5.40629 11.6534 5.00004 10.5007 5.00004C9.34787 5.00004 8.36523 5.40629 7.55273 6.21879C6.74023 7.03129 6.33398 8.01393 6.33398 9.16671H5.91732C5.11176 9.16671 4.42426 9.45143 3.85482 10.0209C3.28537 10.5903 3.00065 11.2778 3.00065 12.0834C3.00065 12.8889 3.28537 13.5764 3.85482 14.1459C4.42426 14.7153 5.11176 15 5.91732 15Z" fill="white"/>
</svg>