<svg width="47" height="14" viewBox="0 0 47 14" fill="none" xmlns="http://www.w3.org/2000/svg">
<path id="Vector" d="M24.2542 9.56453C24.2542 9.28079 24.4794 9.04851 24.7551 9.04851H31.197V5.6752H24.7551C24.4794 5.6752 24.2542 5.44339 24.2542 5.15919V4.02285C24.2542 3.73911 24.4794 3.5073 24.7551 3.5073H32.7872V0.0139087H20.4308C20.1555 0.0139087 19.9303 0.24572 19.9303 0.529457V13.981H24.2546V9.56453H24.2542ZM8.90751 4.02285C8.90751 3.73911 9.13273 3.5073 9.40846 3.5073H13.8847C14.1596 3.5073 14.3852 3.73958 14.3852 4.02285V13.981H18.7095V0.529457C18.7095 0.24572 18.4843 0.0139087 18.209 0.0139087H18.0225C17.7472 0.0139087 17.2968 0.0139087 17.0215 0.0139087H6.2717C5.99643 0.0139087 5.54552 0.0139087 5.2707 0.0139087H5.08416C4.80888 0.0139087 4.58366 0.24572 4.58366 0.529457V13.981H8.90796V4.02285H8.90751ZM40.6892 4.11326C41.0577 4.51753 41.2424 5.24681 41.2424 6.30016V7.56678L37.587 5.19581L35.8662 7.99331L39.6891 10.4357L39.5922 10.4714C39.3956 10.4714 31.6766 10.4714 31.4277 10.4714V13.9782H39.7901C41.5805 13.9782 42.9132 13.6782 43.7877 13.0769L43.7809 13.0695L45.2783 14L47 11.2563L45.4312 10.2525L45.4298 10.2627C45.4298 9.80932 45.4298 9.40782 45.4298 9.05825V4.92877C45.4298 3.1874 45.0071 1.93052 44.1626 1.15859C43.3236 0.386661 41.8362 0 39.7005 0H33.8401L33.8396 3.5073H38.7181C39.6695 3.5073 40.3265 3.70944 40.6892 4.11326ZM3.4134 10.4742H0V13.9921H3.4134V10.4742Z" fill="#FF6B00"/>
</svg>
