<svg width="200" height="200" viewBox="0 0 200 200" fill="none" xmlns="http://www.w3.org/2000/svg">
<rect width="200" height="200" rx="5" fill="#EFF2F6"/>
<path d="M83.4668 108.533C82.3112 108.533 81.3557 108.156 80.6001 107.4C79.8446 106.644 79.4668 105.689 79.4668 104.533V71.4667C79.4668 70.3111 79.8446 69.3556 80.6001 68.6C81.3557 67.8445 82.3112 67.4667 83.4668 67.4667H116.533C117.689 67.4667 118.645 67.8445 119.4 68.6C120.156 69.3556 120.533 70.3111 120.533 71.4667V104.533C120.533 105.689 120.156 106.644 119.4 107.4C118.645 108.156 117.689 108.533 116.533 108.533H83.4668ZM83.4668 106.667H116.533C117.067 106.667 117.556 106.444 118 106C118.445 105.556 118.667 105.067 118.667 104.533V71.4667C118.667 70.9333 118.445 70.4445 118 70C117.556 69.5556 117.067 69.3333 116.533 69.3333H83.4668C82.9335 69.3333 82.4446 69.5556 82.0001 70C81.5557 70.4445 81.3335 70.9333 81.3335 71.4667V104.533C81.3335 105.067 81.5557 105.556 82.0001 106C82.4446 106.444 82.9335 106.667 83.4668 106.667ZM91.2001 99.6H109.333C109.733 99.6 110.022 99.4222 110.2 99.0667C110.378 98.7111 110.356 98.3556 110.133 98L105.333 91.5333C105.111 91.2667 104.845 91.1333 104.533 91.1333C104.222 91.1333 103.956 91.2667 103.733 91.5333L97.8668 98.8L94.4001 94.8C94.1779 94.5778 93.9224 94.4667 93.6335 94.4667C93.3446 94.4667 93.089 94.6 92.8668 94.8667L90.4668 98C90.2001 98.3556 90.1557 98.7111 90.3335 99.0667C90.5112 99.4222 90.8001 99.6 91.2001 99.6ZM90.6668 80.9333C91.289 80.9333 91.8224 80.7111 92.2668 80.2667C92.7112 79.8222 92.9335 79.2889 92.9335 78.6667C92.9335 78.0445 92.7112 77.5111 92.2668 77.0667C91.8224 76.6222 91.289 76.4 90.6668 76.4C90.0446 76.4 89.5112 76.6222 89.0668 77.0667C88.6224 77.5111 88.4001 78.0445 88.4001 78.6667C88.4001 79.2889 88.6224 79.8222 89.0668 80.2667C89.5112 80.7111 90.0446 80.9333 90.6668 80.9333Z" fill="black" fill-opacity="0.38"/>
<path d="M54.8115 131.047V141H53.4854L48.4746 133.323V141H47.1553V131.047H48.4746L53.5059 138.744V131.047H54.8115ZM56.623 137.384V137.227C56.623 136.693 56.7005 136.199 56.8555 135.743C57.0104 135.283 57.2337 134.884 57.5254 134.547C57.8171 134.205 58.1702 133.941 58.585 133.754C58.9997 133.562 59.4645 133.467 59.9795 133.467C60.499 133.467 60.9661 133.562 61.3809 133.754C61.8001 133.941 62.1556 134.205 62.4473 134.547C62.7435 134.884 62.9691 135.283 63.124 135.743C63.279 136.199 63.3564 136.693 63.3564 137.227V137.384C63.3564 137.917 63.279 138.411 63.124 138.867C62.9691 139.323 62.7435 139.722 62.4473 140.063C62.1556 140.401 61.8024 140.665 61.3877 140.856C60.9775 141.043 60.5127 141.137 59.9932 141.137C59.4736 141.137 59.0065 141.043 58.5918 140.856C58.1771 140.665 57.8216 140.401 57.5254 140.063C57.2337 139.722 57.0104 139.323 56.8555 138.867C56.7005 138.411 56.623 137.917 56.623 137.384ZM57.8877 137.227V137.384C57.8877 137.753 57.931 138.102 58.0176 138.43C58.1042 138.753 58.234 139.04 58.4072 139.291C58.585 139.542 58.806 139.74 59.0703 139.886C59.3346 140.027 59.6423 140.098 59.9932 140.098C60.3395 140.098 60.6426 140.027 60.9023 139.886C61.1667 139.74 61.3854 139.542 61.5586 139.291C61.7318 139.04 61.8617 138.753 61.9482 138.43C62.0394 138.102 62.085 137.753 62.085 137.384V137.227C62.085 136.862 62.0394 136.518 61.9482 136.194C61.8617 135.866 61.7295 135.577 61.5518 135.326C61.3786 135.071 61.1598 134.87 60.8955 134.725C60.6357 134.579 60.3304 134.506 59.9795 134.506C59.6331 134.506 59.3278 134.579 59.0635 134.725C58.8037 134.87 58.585 135.071 58.4072 135.326C58.234 135.577 58.1042 135.866 58.0176 136.194C57.931 136.518 57.8877 136.862 57.8877 137.227ZM69.7891 133.604V141H68.5176V133.604H69.7891ZM68.4219 131.642C68.4219 131.437 68.4834 131.263 68.6064 131.122C68.734 130.981 68.9209 130.91 69.167 130.91C69.4085 130.91 69.5931 130.981 69.7207 131.122C69.8529 131.263 69.9189 131.437 69.9189 131.642C69.9189 131.838 69.8529 132.006 69.7207 132.147C69.5931 132.284 69.4085 132.353 69.167 132.353C68.9209 132.353 68.734 132.284 68.6064 132.147C68.4834 132.006 68.4219 131.838 68.4219 131.642ZM73.0771 135.073V141H71.8057V133.604H73.0088L73.0771 135.073ZM72.8174 137.021L72.2295 137.001C72.234 136.495 72.3001 136.028 72.4277 135.6C72.5553 135.167 72.7445 134.791 72.9951 134.472C73.2458 134.153 73.5579 133.907 73.9316 133.733C74.3053 133.556 74.7383 133.467 75.2305 133.467C75.5768 133.467 75.8958 133.517 76.1875 133.617C76.4792 133.713 76.7321 133.866 76.9463 134.075C77.1605 134.285 77.3268 134.554 77.4453 134.882C77.5638 135.21 77.623 135.606 77.623 136.071V141H76.3584V136.133C76.3584 135.745 76.2923 135.436 76.1602 135.203C76.0326 134.971 75.8503 134.802 75.6133 134.697C75.3763 134.588 75.0983 134.533 74.7793 134.533C74.4056 134.533 74.0934 134.599 73.8428 134.731C73.5921 134.864 73.3916 135.046 73.2412 135.278C73.0908 135.511 72.9814 135.777 72.9131 136.078C72.8493 136.374 72.8174 136.689 72.8174 137.021ZM77.6094 136.324L76.7617 136.584C76.7663 136.178 76.8324 135.789 76.96 135.415C77.0921 135.041 77.2812 134.709 77.5273 134.417C77.778 134.125 78.0856 133.895 78.4502 133.727C78.8148 133.553 79.2318 133.467 79.7012 133.467C80.0977 133.467 80.4486 133.519 80.7539 133.624C81.0638 133.729 81.3236 133.891 81.5332 134.109C81.7474 134.324 81.9092 134.599 82.0186 134.937C82.1279 135.274 82.1826 135.675 82.1826 136.14V141H80.9111V136.126C80.9111 135.711 80.8451 135.39 80.7129 135.162C80.5853 134.93 80.403 134.768 80.166 134.677C79.9336 134.581 79.6556 134.533 79.332 134.533C79.054 134.533 78.8079 134.581 78.5938 134.677C78.3796 134.772 78.1995 134.905 78.0537 135.073C77.9079 135.237 77.7962 135.426 77.7188 135.641C77.6458 135.855 77.6094 136.083 77.6094 136.324ZM88.458 139.735V135.928C88.458 135.636 88.3988 135.383 88.2803 135.169C88.1663 134.95 87.9932 134.782 87.7607 134.663C87.5283 134.545 87.2412 134.485 86.8994 134.485C86.5804 134.485 86.3001 134.54 86.0586 134.649C85.8216 134.759 85.6348 134.902 85.498 135.08C85.3659 135.258 85.2998 135.449 85.2998 135.654H84.0352C84.0352 135.39 84.1035 135.128 84.2402 134.868C84.377 134.608 84.5729 134.374 84.8281 134.164C85.0879 133.95 85.3978 133.781 85.7578 133.658C86.1224 133.531 86.528 133.467 86.9746 133.467C87.5124 133.467 87.9863 133.558 88.3965 133.74C88.8112 133.923 89.1348 134.198 89.3672 134.567C89.6042 134.932 89.7227 135.39 89.7227 135.941V139.387C89.7227 139.633 89.7432 139.895 89.7842 140.173C89.8298 140.451 89.8958 140.69 89.9824 140.891V141H88.6631C88.5993 140.854 88.5492 140.66 88.5127 140.419C88.4762 140.173 88.458 139.945 88.458 139.735ZM88.6768 136.516L88.6904 137.404H87.4121C87.0521 137.404 86.7308 137.434 86.4482 137.493C86.1657 137.548 85.9287 137.632 85.7373 137.746C85.5459 137.86 85.4001 138.004 85.2998 138.177C85.1995 138.345 85.1494 138.544 85.1494 138.771C85.1494 139.004 85.2018 139.216 85.3066 139.407C85.4115 139.599 85.5687 139.751 85.7783 139.865C85.9925 139.975 86.2546 140.029 86.5645 140.029C86.9518 140.029 87.2936 139.947 87.5898 139.783C87.8861 139.619 88.1208 139.419 88.2939 139.182C88.4717 138.945 88.5674 138.715 88.5811 138.491L89.1211 139.1C89.0892 139.291 89.0026 139.503 88.8613 139.735C88.7201 139.968 88.5309 140.191 88.2939 140.405C88.0615 140.615 87.7835 140.79 87.46 140.932C87.141 141.068 86.7809 141.137 86.3799 141.137C85.8786 141.137 85.4388 141.039 85.0605 140.843C84.6868 140.647 84.3952 140.385 84.1855 140.057C83.9805 139.724 83.8779 139.353 83.8779 138.942C83.8779 138.546 83.9554 138.197 84.1104 137.896C84.2653 137.591 84.4886 137.338 84.7803 137.138C85.0719 136.933 85.4229 136.778 85.833 136.673C86.2432 136.568 86.7012 136.516 87.207 136.516H88.6768ZM96.5039 133.604H97.6523V140.843C97.6523 141.494 97.5202 142.05 97.2559 142.511C96.9915 142.971 96.6224 143.32 96.1484 143.557C95.679 143.798 95.1367 143.919 94.5215 143.919C94.2663 143.919 93.9655 143.878 93.6191 143.796C93.2773 143.718 92.9401 143.584 92.6074 143.393C92.2793 143.206 92.0036 142.953 91.7803 142.634L92.4434 141.882C92.7533 142.256 93.0768 142.515 93.4141 142.661C93.7559 142.807 94.0931 142.88 94.4258 142.88C94.8268 142.88 95.1732 142.805 95.4648 142.654C95.7565 142.504 95.9821 142.281 96.1416 141.984C96.3057 141.693 96.3877 141.333 96.3877 140.904V135.23L96.5039 133.604ZM91.4111 137.384V137.24C91.4111 136.675 91.4772 136.162 91.6094 135.702C91.7461 135.237 91.9398 134.839 92.1904 134.506C92.4456 134.173 92.7533 133.918 93.1133 133.74C93.4733 133.558 93.8789 133.467 94.3301 133.467C94.7949 133.467 95.2005 133.549 95.5469 133.713C95.8978 133.872 96.194 134.107 96.4355 134.417C96.6816 134.722 96.8753 135.091 97.0166 135.524C97.1579 135.957 97.2559 136.447 97.3105 136.994V137.623C97.2604 138.165 97.1624 138.653 97.0166 139.086C96.8753 139.519 96.6816 139.888 96.4355 140.193C96.194 140.499 95.8978 140.733 95.5469 140.897C95.196 141.057 94.7858 141.137 94.3164 141.137C93.8743 141.137 93.4733 141.043 93.1133 140.856C92.7578 140.67 92.4525 140.408 92.1973 140.07C91.9421 139.733 91.7461 139.337 91.6094 138.881C91.4772 138.421 91.4111 137.922 91.4111 137.384ZM92.6758 137.24V137.384C92.6758 137.753 92.7122 138.099 92.7852 138.423C92.8626 138.746 92.9788 139.031 93.1338 139.277C93.2933 139.523 93.4961 139.717 93.7422 139.858C93.9883 139.995 94.2822 140.063 94.624 140.063C95.0433 140.063 95.3896 139.975 95.6631 139.797C95.9365 139.619 96.153 139.384 96.3125 139.093C96.4766 138.801 96.6042 138.484 96.6953 138.143V136.495C96.6452 136.244 96.5677 136.003 96.4629 135.771C96.3626 135.534 96.2305 135.324 96.0664 135.142C95.9069 134.955 95.7087 134.807 95.4717 134.697C95.2347 134.588 94.9567 134.533 94.6377 134.533C94.2913 134.533 93.9928 134.606 93.7422 134.752C93.4961 134.893 93.2933 135.089 93.1338 135.34C92.9788 135.586 92.8626 135.873 92.7852 136.201C92.7122 136.525 92.6758 136.871 92.6758 137.24ZM102.643 141.137C102.128 141.137 101.66 141.05 101.241 140.877C100.826 140.699 100.469 140.451 100.168 140.132C99.8717 139.813 99.6439 139.435 99.4844 138.997C99.3249 138.56 99.2451 138.081 99.2451 137.562V137.274C99.2451 136.673 99.334 136.137 99.5117 135.668C99.6895 135.194 99.931 134.793 100.236 134.465C100.542 134.137 100.888 133.888 101.275 133.72C101.663 133.551 102.064 133.467 102.479 133.467C103.007 133.467 103.463 133.558 103.846 133.74C104.233 133.923 104.55 134.178 104.796 134.506C105.042 134.829 105.224 135.212 105.343 135.654C105.461 136.092 105.521 136.57 105.521 137.09V137.657H99.9971V136.625H104.256V136.529C104.238 136.201 104.169 135.882 104.051 135.572C103.937 135.262 103.755 135.007 103.504 134.807C103.253 134.606 102.911 134.506 102.479 134.506C102.191 134.506 101.927 134.567 101.686 134.69C101.444 134.809 101.237 134.987 101.063 135.224C100.89 135.461 100.756 135.75 100.66 136.092C100.564 136.434 100.517 136.828 100.517 137.274V137.562C100.517 137.912 100.564 138.243 100.66 138.553C100.76 138.858 100.904 139.127 101.091 139.359C101.282 139.592 101.512 139.774 101.781 139.906C102.055 140.038 102.365 140.104 102.711 140.104C103.158 140.104 103.536 140.013 103.846 139.831C104.156 139.649 104.427 139.405 104.659 139.1L105.425 139.708C105.265 139.95 105.062 140.18 104.816 140.398C104.57 140.617 104.267 140.795 103.907 140.932C103.552 141.068 103.13 141.137 102.643 141.137ZM110.135 137.384V137.227C110.135 136.693 110.212 136.199 110.367 135.743C110.522 135.283 110.745 134.884 111.037 134.547C111.329 134.205 111.682 133.941 112.097 133.754C112.511 133.562 112.976 133.467 113.491 133.467C114.011 133.467 114.478 133.562 114.893 133.754C115.312 133.941 115.667 134.205 115.959 134.547C116.255 134.884 116.481 135.283 116.636 135.743C116.791 136.199 116.868 136.693 116.868 137.227V137.384C116.868 137.917 116.791 138.411 116.636 138.867C116.481 139.323 116.255 139.722 115.959 140.063C115.667 140.401 115.314 140.665 114.899 140.856C114.489 141.043 114.024 141.137 113.505 141.137C112.985 141.137 112.518 141.043 112.104 140.856C111.689 140.665 111.333 140.401 111.037 140.063C110.745 139.722 110.522 139.323 110.367 138.867C110.212 138.411 110.135 137.917 110.135 137.384ZM111.399 137.227V137.384C111.399 137.753 111.443 138.102 111.529 138.43C111.616 138.753 111.746 139.04 111.919 139.291C112.097 139.542 112.318 139.74 112.582 139.886C112.846 140.027 113.154 140.098 113.505 140.098C113.851 140.098 114.154 140.027 114.414 139.886C114.678 139.74 114.897 139.542 115.07 139.291C115.243 139.04 115.373 138.753 115.46 138.43C115.551 138.102 115.597 137.753 115.597 137.384V137.227C115.597 136.862 115.551 136.518 115.46 136.194C115.373 135.866 115.241 135.577 115.063 135.326C114.89 135.071 114.672 134.87 114.407 134.725C114.147 134.579 113.842 134.506 113.491 134.506C113.145 134.506 112.84 134.579 112.575 134.725C112.315 134.87 112.097 135.071 111.919 135.326C111.746 135.577 111.616 135.866 111.529 136.194C111.443 136.518 111.399 136.862 111.399 137.227ZM120.341 141H119.076V132.824C119.076 132.291 119.172 131.842 119.363 131.478C119.559 131.108 119.84 130.83 120.204 130.644C120.569 130.452 121.002 130.356 121.503 130.356C121.649 130.356 121.795 130.366 121.94 130.384C122.091 130.402 122.237 130.429 122.378 130.466L122.31 131.498C122.214 131.475 122.104 131.459 121.981 131.45C121.863 131.441 121.744 131.437 121.626 131.437C121.357 131.437 121.125 131.491 120.929 131.601C120.737 131.705 120.591 131.86 120.491 132.065C120.391 132.271 120.341 132.523 120.341 132.824V141ZM121.913 133.604V134.574H117.907V133.604H121.913ZM128.168 133.604V141H126.896V133.604H128.168ZM126.801 131.642C126.801 131.437 126.862 131.263 126.985 131.122C127.113 130.981 127.3 130.91 127.546 130.91C127.787 130.91 127.972 130.981 128.1 131.122C128.232 131.263 128.298 131.437 128.298 131.642C128.298 131.838 128.232 132.006 128.1 132.147C127.972 132.284 127.787 132.353 127.546 132.353C127.3 132.353 127.113 132.284 126.985 132.147C126.862 132.006 126.801 131.838 126.801 131.642ZM133.295 133.604V134.574H129.296V133.604H133.295ZM130.649 131.806H131.914V139.168C131.914 139.419 131.953 139.608 132.03 139.735C132.108 139.863 132.208 139.947 132.331 139.988C132.454 140.029 132.586 140.05 132.728 140.05C132.832 140.05 132.942 140.041 133.056 140.022C133.174 140 133.263 139.981 133.322 139.968L133.329 141C133.229 141.032 133.097 141.062 132.933 141.089C132.773 141.121 132.579 141.137 132.352 141.137C132.042 141.137 131.757 141.075 131.497 140.952C131.237 140.829 131.03 140.624 130.875 140.337C130.725 140.045 130.649 139.653 130.649 139.161V131.806ZM137.848 141.137C137.333 141.137 136.866 141.05 136.446 140.877C136.032 140.699 135.674 140.451 135.373 140.132C135.077 139.813 134.849 139.435 134.689 138.997C134.53 138.56 134.45 138.081 134.45 137.562V137.274C134.45 136.673 134.539 136.137 134.717 135.668C134.895 135.194 135.136 134.793 135.441 134.465C135.747 134.137 136.093 133.888 136.48 133.72C136.868 133.551 137.269 133.467 137.684 133.467C138.212 133.467 138.668 133.558 139.051 133.74C139.438 133.923 139.755 134.178 140.001 134.506C140.247 134.829 140.429 135.212 140.548 135.654C140.666 136.092 140.726 136.57 140.726 137.09V137.657H135.202V136.625H139.461V136.529C139.443 136.201 139.374 135.882 139.256 135.572C139.142 135.262 138.96 135.007 138.709 134.807C138.458 134.606 138.117 134.506 137.684 134.506C137.396 134.506 137.132 134.567 136.891 134.69C136.649 134.809 136.442 134.987 136.269 135.224C136.095 135.461 135.961 135.75 135.865 136.092C135.77 136.434 135.722 136.828 135.722 137.274V137.562C135.722 137.912 135.77 138.243 135.865 138.553C135.965 138.858 136.109 139.127 136.296 139.359C136.487 139.592 136.717 139.774 136.986 139.906C137.26 140.038 137.57 140.104 137.916 140.104C138.363 140.104 138.741 140.013 139.051 139.831C139.361 139.649 139.632 139.405 139.864 139.1L140.63 139.708C140.47 139.95 140.268 140.18 140.021 140.398C139.775 140.617 139.472 140.795 139.112 140.932C138.757 141.068 138.335 141.137 137.848 141.137ZM143.46 135.073V141H142.188V133.604H143.392L143.46 135.073ZM143.2 137.021L142.612 137.001C142.617 136.495 142.683 136.028 142.811 135.6C142.938 135.167 143.127 134.791 143.378 134.472C143.629 134.153 143.941 133.907 144.314 133.733C144.688 133.556 145.121 133.467 145.613 133.467C145.96 133.467 146.279 133.517 146.57 133.617C146.862 133.713 147.115 133.866 147.329 134.075C147.543 134.285 147.71 134.554 147.828 134.882C147.947 135.21 148.006 135.606 148.006 136.071V141H146.741V136.133C146.741 135.745 146.675 135.436 146.543 135.203C146.415 134.971 146.233 134.802 145.996 134.697C145.759 134.588 145.481 134.533 145.162 134.533C144.788 134.533 144.476 134.599 144.226 134.731C143.975 134.864 143.774 135.046 143.624 135.278C143.474 135.511 143.364 135.777 143.296 136.078C143.232 136.374 143.2 136.689 143.2 137.021ZM147.992 136.324L147.145 136.584C147.149 136.178 147.215 135.789 147.343 135.415C147.475 135.041 147.664 134.709 147.91 134.417C148.161 134.125 148.468 133.895 148.833 133.727C149.198 133.553 149.615 133.467 150.084 133.467C150.48 133.467 150.831 133.519 151.137 133.624C151.447 133.729 151.706 133.891 151.916 134.109C152.13 134.324 152.292 134.599 152.401 134.937C152.511 135.274 152.565 135.675 152.565 136.14V141H151.294V136.126C151.294 135.711 151.228 135.39 151.096 135.162C150.968 134.93 150.786 134.768 150.549 134.677C150.316 134.581 150.038 134.533 149.715 134.533C149.437 134.533 149.191 134.581 148.977 134.677C148.762 134.772 148.582 134.905 148.437 135.073C148.291 135.237 148.179 135.426 148.102 135.641C148.029 135.855 147.992 136.083 147.992 136.324Z" fill="black" fill-opacity="0.38"/>
</svg>
