<svg width="760" height="391" viewBox="0 0 760 391" fill="none" xmlns="http://www.w3.org/2000/svg">
<rect x="280" y="40" width="200" height="200" rx="100" fill="#F5F5F5"/>
<path d="M396.21 162.152C395.478 162.152 394.779 162.012 394.111 161.732C393.444 161.452 392.83 161.033 392.271 160.473L377.869 145.942C376.878 146.286 375.888 146.566 374.898 146.781C373.908 146.997 372.896 147.104 371.862 147.104C367.686 147.104 364.134 145.651 361.206 142.745C358.278 139.839 356.814 136.297 356.814 132.121C356.814 130.786 356.987 129.484 357.331 128.214C357.676 126.943 358.171 125.749 358.817 124.629L368.181 133.994L374.123 128.44L364.5 118.817C365.619 118.171 366.803 117.665 368.052 117.299C369.301 116.933 370.571 116.75 371.862 116.75C376.125 116.75 379.752 118.246 382.745 121.239C385.737 124.231 387.233 127.858 387.233 132.121C387.233 133.154 387.126 134.166 386.91 135.156C386.695 136.147 386.415 137.137 386.071 138.127L400.344 152.4C400.903 152.96 401.323 153.595 401.603 154.305C401.883 155.016 402.023 155.758 402.023 156.533C402.023 157.308 401.872 158.051 401.571 158.761C401.269 159.472 400.817 160.085 400.214 160.602C399.612 161.119 398.977 161.506 398.309 161.765C397.642 162.023 396.942 162.152 396.21 162.152Z" fill="black" fill-opacity="0.38"/>
<path d="M354.359 284.938V302H350.844L343.988 290.562V302H340.473V284.938H343.988L350.855 296.387V284.938H354.359ZM356.668 295.789V295.543C356.668 294.613 356.801 293.758 357.066 292.977C357.332 292.188 357.719 291.504 358.227 290.926C358.734 290.348 359.359 289.898 360.102 289.578C360.844 289.25 361.695 289.086 362.656 289.086C363.617 289.086 364.473 289.25 365.223 289.578C365.973 289.898 366.602 290.348 367.109 290.926C367.625 291.504 368.016 292.188 368.281 292.977C368.547 293.758 368.68 294.613 368.68 295.543V295.789C368.68 296.711 368.547 297.566 368.281 298.355C368.016 299.137 367.625 299.82 367.109 300.406C366.602 300.984 365.977 301.434 365.234 301.754C364.492 302.074 363.641 302.234 362.68 302.234C361.719 302.234 360.863 302.074 360.113 301.754C359.371 301.434 358.742 300.984 358.227 300.406C357.719 299.82 357.332 299.137 357.066 298.355C356.801 297.566 356.668 296.711 356.668 295.789ZM360.043 295.543V295.789C360.043 296.32 360.09 296.816 360.184 297.277C360.277 297.738 360.426 298.145 360.629 298.496C360.84 298.84 361.113 299.109 361.449 299.305C361.785 299.5 362.195 299.598 362.68 299.598C363.148 299.598 363.551 299.5 363.887 299.305C364.223 299.109 364.492 298.84 364.695 298.496C364.898 298.145 365.047 297.738 365.141 297.277C365.242 296.816 365.293 296.32 365.293 295.789V295.543C365.293 295.027 365.242 294.543 365.141 294.09C365.047 293.629 364.895 293.223 364.684 292.871C364.48 292.512 364.211 292.23 363.875 292.027C363.539 291.824 363.133 291.723 362.656 291.723C362.18 291.723 361.773 291.824 361.438 292.027C361.109 292.23 360.84 292.512 360.629 292.871C360.426 293.223 360.277 293.629 360.184 294.09C360.09 294.543 360.043 295.027 360.043 295.543ZM376.918 289.32H380.305V302.762C380.305 303.699 380.133 304.492 379.789 305.141C379.445 305.789 378.949 306.281 378.301 306.617C377.652 306.953 376.867 307.121 375.945 307.121C375.656 307.121 375.375 307.105 375.102 307.074C374.82 307.043 374.531 306.992 374.234 306.922L374.246 304.332C374.434 304.363 374.617 304.387 374.797 304.402C374.969 304.426 375.145 304.438 375.324 304.438C375.676 304.438 375.969 304.379 376.203 304.262C376.438 304.145 376.613 303.961 376.73 303.711C376.855 303.469 376.918 303.152 376.918 302.762V289.32ZM376.648 286.016C376.648 285.523 376.82 285.117 377.164 284.797C377.516 284.477 377.977 284.316 378.547 284.316C379.125 284.316 379.586 284.477 379.93 284.797C380.273 285.117 380.445 285.523 380.445 286.016C380.445 286.508 380.273 286.914 379.93 287.234C379.586 287.555 379.125 287.715 378.547 287.715C377.977 287.715 377.516 287.555 377.164 287.234C376.82 286.914 376.648 286.508 376.648 286.016ZM382.449 295.789V295.543C382.449 294.613 382.582 293.758 382.848 292.977C383.113 292.188 383.5 291.504 384.008 290.926C384.516 290.348 385.141 289.898 385.883 289.578C386.625 289.25 387.477 289.086 388.438 289.086C389.398 289.086 390.254 289.25 391.004 289.578C391.754 289.898 392.383 290.348 392.891 290.926C393.406 291.504 393.797 292.188 394.062 292.977C394.328 293.758 394.461 294.613 394.461 295.543V295.789C394.461 296.711 394.328 297.566 394.062 298.355C393.797 299.137 393.406 299.82 392.891 300.406C392.383 300.984 391.758 301.434 391.016 301.754C390.273 302.074 389.422 302.234 388.461 302.234C387.5 302.234 386.645 302.074 385.895 301.754C385.152 301.434 384.523 300.984 384.008 300.406C383.5 299.82 383.113 299.137 382.848 298.355C382.582 297.566 382.449 296.711 382.449 295.789ZM385.824 295.543V295.789C385.824 296.32 385.871 296.816 385.965 297.277C386.059 297.738 386.207 298.145 386.41 298.496C386.621 298.84 386.895 299.109 387.23 299.305C387.566 299.5 387.977 299.598 388.461 299.598C388.93 299.598 389.332 299.5 389.668 299.305C390.004 299.109 390.273 298.84 390.477 298.496C390.68 298.145 390.828 297.738 390.922 297.277C391.023 296.816 391.074 296.32 391.074 295.789V295.543C391.074 295.027 391.023 294.543 390.922 294.09C390.828 293.629 390.676 293.223 390.465 292.871C390.262 292.512 389.992 292.23 389.656 292.027C389.32 291.824 388.914 291.723 388.438 291.723C387.961 291.723 387.555 291.824 387.219 292.027C386.891 292.23 386.621 292.512 386.41 292.871C386.207 293.223 386.059 293.629 385.965 294.09C385.871 294.543 385.824 295.027 385.824 295.543ZM396.535 284H399.91V299.094L399.57 302H396.535V284ZM407.938 295.531V295.777C407.938 296.723 407.836 297.59 407.633 298.379C407.438 299.168 407.133 299.852 406.719 300.43C406.305 301 405.789 301.445 405.172 301.766C404.562 302.078 403.844 302.234 403.016 302.234C402.242 302.234 401.57 302.078 401 301.766C400.438 301.453 399.965 301.012 399.582 300.441C399.199 299.871 398.891 299.203 398.656 298.438C398.422 297.672 398.246 296.836 398.129 295.93V295.391C398.246 294.484 398.422 293.648 398.656 292.883C398.891 292.117 399.199 291.449 399.582 290.879C399.965 290.309 400.438 289.867 401 289.555C401.562 289.242 402.227 289.086 402.992 289.086C403.828 289.086 404.555 289.246 405.172 289.566C405.797 289.879 406.312 290.324 406.719 290.902C407.133 291.473 407.438 292.152 407.633 292.941C407.836 293.723 407.938 294.586 407.938 295.531ZM404.562 295.777V295.531C404.562 295.016 404.523 294.531 404.445 294.078C404.375 293.617 404.25 293.215 404.07 292.871C403.891 292.52 403.645 292.242 403.332 292.039C403.027 291.836 402.633 291.734 402.148 291.734C401.688 291.734 401.297 291.812 400.977 291.969C400.656 292.125 400.391 292.344 400.18 292.625C399.977 292.906 399.824 293.242 399.723 293.633C399.621 294.016 399.559 294.438 399.535 294.898V296.434C399.559 297.051 399.66 297.598 399.84 298.074C400.027 298.543 400.309 298.914 400.684 299.188C401.066 299.453 401.562 299.586 402.172 299.586C402.648 299.586 403.043 299.492 403.355 299.305C403.668 299.117 403.91 298.852 404.082 298.508C404.262 298.164 404.387 297.762 404.457 297.301C404.527 296.832 404.562 296.324 404.562 295.777ZM416.891 298.496C416.891 298.254 416.82 298.035 416.68 297.84C416.539 297.645 416.277 297.465 415.895 297.301C415.52 297.129 414.977 296.973 414.266 296.832C413.625 296.691 413.027 296.516 412.473 296.305C411.926 296.086 411.449 295.824 411.043 295.52C410.645 295.215 410.332 294.855 410.105 294.441C409.879 294.02 409.766 293.539 409.766 293C409.766 292.469 409.879 291.969 410.105 291.5C410.34 291.031 410.672 290.617 411.102 290.258C411.539 289.891 412.07 289.605 412.695 289.402C413.328 289.191 414.039 289.086 414.828 289.086C415.93 289.086 416.875 289.262 417.664 289.613C418.461 289.965 419.07 290.449 419.492 291.066C419.922 291.676 420.137 292.371 420.137 293.152H416.762C416.762 292.824 416.691 292.531 416.551 292.273C416.418 292.008 416.207 291.801 415.918 291.652C415.637 291.496 415.27 291.418 414.816 291.418C414.441 291.418 414.117 291.484 413.844 291.617C413.57 291.742 413.359 291.914 413.211 292.133C413.07 292.344 413 292.578 413 292.836C413 293.031 413.039 293.207 413.117 293.363C413.203 293.512 413.34 293.648 413.527 293.773C413.715 293.898 413.957 294.016 414.254 294.125C414.559 294.227 414.934 294.32 415.379 294.406C416.293 294.594 417.109 294.84 417.828 295.145C418.547 295.441 419.117 295.848 419.539 296.363C419.961 296.871 420.172 297.539 420.172 298.367C420.172 298.93 420.047 299.445 419.797 299.914C419.547 300.383 419.188 300.793 418.719 301.145C418.25 301.488 417.688 301.758 417.031 301.953C416.383 302.141 415.652 302.234 414.84 302.234C413.66 302.234 412.66 302.023 411.84 301.602C411.027 301.18 410.41 300.645 409.988 299.996C409.574 299.34 409.367 298.668 409.367 297.98H412.566C412.582 298.441 412.699 298.812 412.918 299.094C413.145 299.375 413.43 299.578 413.773 299.703C414.125 299.828 414.504 299.891 414.91 299.891C415.348 299.891 415.711 299.832 416 299.715C416.289 299.59 416.508 299.426 416.656 299.223C416.812 299.012 416.891 298.77 416.891 298.496Z" fill="black" fill-opacity="0.6"/>
<path d="M276.445 335.625V347H274.961V335.625H276.445ZM280.102 335.625V336.859H271.312V335.625H280.102ZM282.422 339.875V347H280.977V338.547H282.383L282.422 339.875ZM285.062 338.5L285.055 339.844C284.935 339.818 284.82 339.802 284.711 339.797C284.607 339.786 284.487 339.781 284.352 339.781C284.018 339.781 283.724 339.833 283.469 339.938C283.214 340.042 282.997 340.188 282.82 340.375C282.643 340.562 282.503 340.786 282.398 341.047C282.299 341.302 282.234 341.583 282.203 341.891L281.797 342.125C281.797 341.615 281.846 341.135 281.945 340.688C282.049 340.24 282.208 339.844 282.422 339.5C282.635 339.151 282.906 338.88 283.234 338.688C283.568 338.49 283.964 338.391 284.422 338.391C284.526 338.391 284.646 338.404 284.781 338.43C284.917 338.451 285.01 338.474 285.062 338.5ZM288.914 346.125L291.266 338.547H292.812L289.422 348.305C289.344 348.513 289.24 348.737 289.109 348.977C288.984 349.221 288.823 349.453 288.625 349.672C288.427 349.891 288.188 350.068 287.906 350.203C287.63 350.344 287.299 350.414 286.914 350.414C286.799 350.414 286.654 350.398 286.477 350.367C286.299 350.336 286.174 350.31 286.102 350.289L286.094 349.117C286.135 349.122 286.201 349.128 286.289 349.133C286.383 349.143 286.448 349.148 286.484 349.148C286.812 349.148 287.091 349.104 287.32 349.016C287.549 348.932 287.742 348.789 287.898 348.586C288.06 348.388 288.198 348.115 288.312 347.766L288.914 346.125ZM287.188 338.547L289.383 345.109L289.758 346.633L288.719 347.164L285.609 338.547H287.188ZM303.07 345.555V341.203C303.07 340.87 303.003 340.581 302.867 340.336C302.737 340.086 302.539 339.893 302.273 339.758C302.008 339.622 301.68 339.555 301.289 339.555C300.924 339.555 300.604 339.617 300.328 339.742C300.057 339.867 299.844 340.031 299.688 340.234C299.536 340.438 299.461 340.656 299.461 340.891H298.016C298.016 340.589 298.094 340.289 298.25 339.992C298.406 339.695 298.63 339.427 298.922 339.188C299.219 338.943 299.573 338.75 299.984 338.609C300.401 338.464 300.865 338.391 301.375 338.391C301.99 338.391 302.531 338.495 303 338.703C303.474 338.911 303.844 339.227 304.109 339.648C304.38 340.065 304.516 340.589 304.516 341.219V345.156C304.516 345.438 304.539 345.737 304.586 346.055C304.638 346.372 304.714 346.646 304.812 346.875V347H303.305C303.232 346.833 303.174 346.612 303.133 346.336C303.091 346.055 303.07 345.794 303.07 345.555ZM303.32 341.875L303.336 342.891H301.875C301.464 342.891 301.096 342.924 300.773 342.992C300.451 343.055 300.18 343.151 299.961 343.281C299.742 343.411 299.576 343.576 299.461 343.773C299.346 343.966 299.289 344.193 299.289 344.453C299.289 344.719 299.349 344.961 299.469 345.18C299.589 345.398 299.768 345.573 300.008 345.703C300.253 345.828 300.552 345.891 300.906 345.891C301.349 345.891 301.74 345.797 302.078 345.609C302.417 345.422 302.685 345.193 302.883 344.922C303.086 344.651 303.195 344.388 303.211 344.133L303.828 344.828C303.792 345.047 303.693 345.289 303.531 345.555C303.37 345.82 303.154 346.076 302.883 346.32C302.617 346.56 302.299 346.76 301.93 346.922C301.565 347.078 301.154 347.156 300.695 347.156C300.122 347.156 299.62 347.044 299.188 346.82C298.76 346.596 298.427 346.297 298.188 345.922C297.953 345.542 297.836 345.117 297.836 344.648C297.836 344.195 297.924 343.797 298.102 343.453C298.279 343.104 298.534 342.815 298.867 342.586C299.201 342.352 299.602 342.174 300.07 342.055C300.539 341.935 301.062 341.875 301.641 341.875H303.32ZM308.234 340.352V347H306.789V338.547H308.156L308.234 340.352ZM307.891 342.453L307.289 342.43C307.294 341.852 307.38 341.318 307.547 340.828C307.714 340.333 307.948 339.904 308.25 339.539C308.552 339.174 308.911 338.893 309.328 338.695C309.75 338.492 310.216 338.391 310.727 338.391C311.143 338.391 311.518 338.448 311.852 338.562C312.185 338.672 312.469 338.849 312.703 339.094C312.943 339.339 313.125 339.656 313.25 340.047C313.375 340.432 313.438 340.904 313.438 341.461V347H311.984V341.445C311.984 341.003 311.919 340.648 311.789 340.383C311.659 340.112 311.469 339.917 311.219 339.797C310.969 339.672 310.661 339.609 310.297 339.609C309.938 339.609 309.609 339.685 309.312 339.836C309.021 339.987 308.768 340.195 308.555 340.461C308.346 340.727 308.182 341.031 308.062 341.375C307.948 341.714 307.891 342.073 307.891 342.453ZM315.25 342.867V342.688C315.25 342.078 315.339 341.513 315.516 340.992C315.693 340.466 315.948 340.01 316.281 339.625C316.615 339.234 317.018 338.932 317.492 338.719C317.966 338.5 318.497 338.391 319.086 338.391C319.68 338.391 320.214 338.5 320.688 338.719C321.167 338.932 321.573 339.234 321.906 339.625C322.245 340.01 322.503 340.466 322.68 340.992C322.857 341.513 322.945 342.078 322.945 342.688V342.867C322.945 343.477 322.857 344.042 322.68 344.562C322.503 345.083 322.245 345.539 321.906 345.93C321.573 346.315 321.169 346.617 320.695 346.836C320.227 347.049 319.695 347.156 319.102 347.156C318.508 347.156 317.974 347.049 317.5 346.836C317.026 346.617 316.62 346.315 316.281 345.93C315.948 345.539 315.693 345.083 315.516 344.562C315.339 344.042 315.25 343.477 315.25 342.867ZM316.695 342.688V342.867C316.695 343.289 316.745 343.688 316.844 344.062C316.943 344.432 317.091 344.76 317.289 345.047C317.492 345.333 317.745 345.56 318.047 345.727C318.349 345.888 318.701 345.969 319.102 345.969C319.497 345.969 319.844 345.888 320.141 345.727C320.443 345.56 320.693 345.333 320.891 345.047C321.089 344.76 321.237 344.432 321.336 344.062C321.44 343.688 321.492 343.289 321.492 342.867V342.688C321.492 342.271 321.44 341.878 321.336 341.508C321.237 341.133 321.086 340.802 320.883 340.516C320.685 340.224 320.435 339.995 320.133 339.828C319.836 339.661 319.487 339.578 319.086 339.578C318.69 339.578 318.341 339.661 318.039 339.828C317.742 339.995 317.492 340.224 317.289 340.516C317.091 340.802 316.943 341.133 316.844 341.508C316.745 341.878 316.695 342.271 316.695 342.688ZM328.297 338.547V339.656H323.727V338.547H328.297ZM325.273 336.492H326.719V344.906C326.719 345.193 326.763 345.409 326.852 345.555C326.94 345.701 327.055 345.797 327.195 345.844C327.336 345.891 327.487 345.914 327.648 345.914C327.768 345.914 327.893 345.904 328.023 345.883C328.159 345.857 328.26 345.836 328.328 345.82L328.336 347C328.221 347.036 328.07 347.07 327.883 347.102C327.701 347.138 327.479 347.156 327.219 347.156C326.865 347.156 326.539 347.086 326.242 346.945C325.945 346.805 325.708 346.57 325.531 346.242C325.359 345.909 325.273 345.461 325.273 344.898V336.492ZM331.438 335V347H329.992V335H331.438ZM331.094 342.453L330.492 342.43C330.497 341.852 330.583 341.318 330.75 340.828C330.917 340.333 331.151 339.904 331.453 339.539C331.755 339.174 332.115 338.893 332.531 338.695C332.953 338.492 333.419 338.391 333.93 338.391C334.346 338.391 334.721 338.448 335.055 338.562C335.388 338.672 335.672 338.849 335.906 339.094C336.146 339.339 336.328 339.656 336.453 340.047C336.578 340.432 336.641 340.904 336.641 341.461V347H335.188V341.445C335.188 341.003 335.122 340.648 334.992 340.383C334.862 340.112 334.672 339.917 334.422 339.797C334.172 339.672 333.865 339.609 333.5 339.609C333.141 339.609 332.812 339.685 332.516 339.836C332.224 339.987 331.971 340.195 331.758 340.461C331.549 340.727 331.385 341.031 331.266 341.375C331.151 341.714 331.094 342.073 331.094 342.453ZM342.312 347.156C341.724 347.156 341.19 347.057 340.711 346.859C340.237 346.656 339.828 346.372 339.484 346.008C339.146 345.643 338.885 345.211 338.703 344.711C338.521 344.211 338.43 343.664 338.43 343.07V342.742C338.43 342.055 338.531 341.443 338.734 340.906C338.938 340.365 339.214 339.906 339.562 339.531C339.911 339.156 340.307 338.872 340.75 338.68C341.193 338.487 341.651 338.391 342.125 338.391C342.729 338.391 343.25 338.495 343.688 338.703C344.13 338.911 344.492 339.203 344.773 339.578C345.055 339.948 345.263 340.385 345.398 340.891C345.534 341.391 345.602 341.938 345.602 342.531V343.18H339.289V342H344.156V341.891C344.135 341.516 344.057 341.151 343.922 340.797C343.792 340.443 343.583 340.151 343.297 339.922C343.01 339.693 342.62 339.578 342.125 339.578C341.797 339.578 341.495 339.648 341.219 339.789C340.943 339.924 340.706 340.128 340.508 340.398C340.31 340.669 340.156 341 340.047 341.391C339.938 341.781 339.883 342.232 339.883 342.742V343.07C339.883 343.471 339.938 343.849 340.047 344.203C340.161 344.552 340.326 344.859 340.539 345.125C340.758 345.391 341.021 345.599 341.328 345.75C341.641 345.901 341.995 345.977 342.391 345.977C342.901 345.977 343.333 345.872 343.688 345.664C344.042 345.456 344.352 345.177 344.617 344.828L345.492 345.523C345.31 345.799 345.078 346.062 344.797 346.312C344.516 346.562 344.169 346.766 343.758 346.922C343.352 347.078 342.87 347.156 342.312 347.156ZM348.734 339.875V347H347.289V338.547H348.695L348.734 339.875ZM351.375 338.5L351.367 339.844C351.247 339.818 351.133 339.802 351.023 339.797C350.919 339.786 350.799 339.781 350.664 339.781C350.331 339.781 350.036 339.833 349.781 339.938C349.526 340.042 349.31 340.188 349.133 340.375C348.956 340.562 348.815 340.786 348.711 341.047C348.612 341.302 348.547 341.583 348.516 341.891L348.109 342.125C348.109 341.615 348.159 341.135 348.258 340.688C348.362 340.24 348.521 339.844 348.734 339.5C348.948 339.151 349.219 338.88 349.547 338.688C349.88 338.49 350.276 338.391 350.734 338.391C350.839 338.391 350.958 338.404 351.094 338.43C351.229 338.451 351.323 338.474 351.375 338.5ZM357.375 335.625H358.836L362.562 344.898L366.281 335.625H367.75L363.125 347H361.984L357.375 335.625ZM356.898 335.625H358.188L358.398 342.562V347H356.898V335.625ZM366.93 335.625H368.219V347H366.719V342.562L366.93 335.625ZM375.633 345.555V341.203C375.633 340.87 375.565 340.581 375.43 340.336C375.299 340.086 375.102 339.893 374.836 339.758C374.57 339.622 374.242 339.555 373.852 339.555C373.487 339.555 373.167 339.617 372.891 339.742C372.62 339.867 372.406 340.031 372.25 340.234C372.099 340.438 372.023 340.656 372.023 340.891H370.578C370.578 340.589 370.656 340.289 370.812 339.992C370.969 339.695 371.193 339.427 371.484 339.188C371.781 338.943 372.135 338.75 372.547 338.609C372.964 338.464 373.427 338.391 373.938 338.391C374.552 338.391 375.094 338.495 375.562 338.703C376.036 338.911 376.406 339.227 376.672 339.648C376.943 340.065 377.078 340.589 377.078 341.219V345.156C377.078 345.438 377.102 345.737 377.148 346.055C377.201 346.372 377.276 346.646 377.375 346.875V347H375.867C375.794 346.833 375.737 346.612 375.695 346.336C375.654 346.055 375.633 345.794 375.633 345.555ZM375.883 341.875L375.898 342.891H374.438C374.026 342.891 373.659 342.924 373.336 342.992C373.013 343.055 372.742 343.151 372.523 343.281C372.305 343.411 372.138 343.576 372.023 343.773C371.909 343.966 371.852 344.193 371.852 344.453C371.852 344.719 371.911 344.961 372.031 345.18C372.151 345.398 372.331 345.573 372.57 345.703C372.815 345.828 373.115 345.891 373.469 345.891C373.911 345.891 374.302 345.797 374.641 345.609C374.979 345.422 375.247 345.193 375.445 344.922C375.648 344.651 375.758 344.388 375.773 344.133L376.391 344.828C376.354 345.047 376.255 345.289 376.094 345.555C375.932 345.82 375.716 346.076 375.445 346.32C375.18 346.56 374.862 346.76 374.492 346.922C374.128 347.078 373.716 347.156 373.258 347.156C372.685 347.156 372.182 347.044 371.75 346.82C371.323 346.596 370.99 346.297 370.75 345.922C370.516 345.542 370.398 345.117 370.398 344.648C370.398 344.195 370.487 343.797 370.664 343.453C370.841 343.104 371.096 342.815 371.43 342.586C371.763 342.352 372.164 342.174 372.633 342.055C373.102 341.935 373.625 341.875 374.203 341.875H375.883ZM382.734 345.969C383.078 345.969 383.396 345.898 383.688 345.758C383.979 345.617 384.219 345.424 384.406 345.18C384.594 344.93 384.701 344.646 384.727 344.328H386.102C386.076 344.828 385.906 345.294 385.594 345.727C385.286 346.154 384.883 346.5 384.383 346.766C383.883 347.026 383.333 347.156 382.734 347.156C382.099 347.156 381.544 347.044 381.07 346.82C380.602 346.596 380.211 346.289 379.898 345.898C379.591 345.508 379.359 345.06 379.203 344.555C379.052 344.044 378.977 343.505 378.977 342.938V342.609C378.977 342.042 379.052 341.505 379.203 341C379.359 340.49 379.591 340.039 379.898 339.648C380.211 339.258 380.602 338.951 381.07 338.727C381.544 338.503 382.099 338.391 382.734 338.391C383.396 338.391 383.974 338.526 384.469 338.797C384.964 339.062 385.352 339.427 385.633 339.891C385.919 340.349 386.076 340.87 386.102 341.453H384.727C384.701 341.104 384.602 340.789 384.43 340.508C384.263 340.227 384.034 340.003 383.742 339.836C383.456 339.664 383.12 339.578 382.734 339.578C382.292 339.578 381.919 339.667 381.617 339.844C381.32 340.016 381.083 340.25 380.906 340.547C380.734 340.839 380.609 341.164 380.531 341.523C380.458 341.878 380.422 342.24 380.422 342.609V342.938C380.422 343.307 380.458 343.672 380.531 344.031C380.604 344.391 380.727 344.716 380.898 345.008C381.076 345.299 381.312 345.534 381.609 345.711C381.911 345.883 382.286 345.969 382.734 345.969ZM389.172 335V347H387.727V335H389.172ZM388.828 342.453L388.227 342.43C388.232 341.852 388.318 341.318 388.484 340.828C388.651 340.333 388.885 339.904 389.188 339.539C389.49 339.174 389.849 338.893 390.266 338.695C390.688 338.492 391.154 338.391 391.664 338.391C392.081 338.391 392.456 338.448 392.789 338.562C393.122 338.672 393.406 338.849 393.641 339.094C393.88 339.339 394.062 339.656 394.188 340.047C394.312 340.432 394.375 340.904 394.375 341.461V347H392.922V341.445C392.922 341.003 392.857 340.648 392.727 340.383C392.596 340.112 392.406 339.917 392.156 339.797C391.906 339.672 391.599 339.609 391.234 339.609C390.875 339.609 390.547 339.685 390.25 339.836C389.958 339.987 389.706 340.195 389.492 340.461C389.284 340.727 389.12 341.031 389 341.375C388.885 341.714 388.828 342.073 388.828 342.453ZM398.109 338.547V347H396.656V338.547H398.109ZM396.547 336.305C396.547 336.07 396.617 335.872 396.758 335.711C396.904 335.549 397.117 335.469 397.398 335.469C397.674 335.469 397.885 335.549 398.031 335.711C398.182 335.872 398.258 336.07 398.258 336.305C398.258 336.529 398.182 336.721 398.031 336.883C397.885 337.039 397.674 337.117 397.398 337.117C397.117 337.117 396.904 337.039 396.758 336.883C396.617 336.721 396.547 336.529 396.547 336.305ZM401.875 340.352V347H400.43V338.547H401.797L401.875 340.352ZM401.531 342.453L400.93 342.43C400.935 341.852 401.021 341.318 401.188 340.828C401.354 340.333 401.589 339.904 401.891 339.539C402.193 339.174 402.552 338.893 402.969 338.695C403.391 338.492 403.857 338.391 404.367 338.391C404.784 338.391 405.159 338.448 405.492 338.562C405.826 338.672 406.109 338.849 406.344 339.094C406.583 339.339 406.766 339.656 406.891 340.047C407.016 340.432 407.078 340.904 407.078 341.461V347H405.625V341.445C405.625 341.003 405.56 340.648 405.43 340.383C405.299 340.112 405.109 339.917 404.859 339.797C404.609 339.672 404.302 339.609 403.938 339.609C403.578 339.609 403.25 339.685 402.953 339.836C402.661 339.987 402.409 340.195 402.195 340.461C401.987 340.727 401.823 341.031 401.703 341.375C401.589 341.714 401.531 342.073 401.531 342.453ZM412.781 347.156C412.193 347.156 411.659 347.057 411.18 346.859C410.706 346.656 410.297 346.372 409.953 346.008C409.615 345.643 409.354 345.211 409.172 344.711C408.99 344.211 408.898 343.664 408.898 343.07V342.742C408.898 342.055 409 341.443 409.203 340.906C409.406 340.365 409.682 339.906 410.031 339.531C410.38 339.156 410.776 338.872 411.219 338.68C411.661 338.487 412.12 338.391 412.594 338.391C413.198 338.391 413.719 338.495 414.156 338.703C414.599 338.911 414.961 339.203 415.242 339.578C415.523 339.948 415.732 340.385 415.867 340.891C416.003 341.391 416.07 341.938 416.07 342.531V343.18H409.758V342H414.625V341.891C414.604 341.516 414.526 341.151 414.391 340.797C414.26 340.443 414.052 340.151 413.766 339.922C413.479 339.693 413.089 339.578 412.594 339.578C412.266 339.578 411.964 339.648 411.688 339.789C411.411 339.924 411.174 340.128 410.977 340.398C410.779 340.669 410.625 341 410.516 341.391C410.406 341.781 410.352 342.232 410.352 342.742V343.07C410.352 343.471 410.406 343.849 410.516 344.203C410.63 344.552 410.794 344.859 411.008 345.125C411.227 345.391 411.49 345.599 411.797 345.75C412.109 345.901 412.464 345.977 412.859 345.977C413.37 345.977 413.802 345.872 414.156 345.664C414.51 345.456 414.82 345.177 415.086 344.828L415.961 345.523C415.779 345.799 415.547 346.062 415.266 346.312C414.984 346.562 414.638 346.766 414.227 346.922C413.82 347.078 413.339 347.156 412.781 347.156ZM426.758 335.625L422.016 347.977H420.773L425.523 335.625H426.758ZM436.719 342.539H433.68V341.312H436.719C437.307 341.312 437.784 341.219 438.148 341.031C438.513 340.844 438.779 340.583 438.945 340.25C439.117 339.917 439.203 339.536 439.203 339.109C439.203 338.719 439.117 338.352 438.945 338.008C438.779 337.664 438.513 337.388 438.148 337.18C437.784 336.966 437.307 336.859 436.719 336.859H434.031V347H432.523V335.625H436.719C437.578 335.625 438.305 335.773 438.898 336.07C439.492 336.367 439.943 336.779 440.25 337.305C440.557 337.826 440.711 338.422 440.711 339.094C440.711 339.823 440.557 340.445 440.25 340.961C439.943 341.477 439.492 341.87 438.898 342.141C438.305 342.406 437.578 342.539 436.719 342.539ZM443.844 339.875V347H442.398V338.547H443.805L443.844 339.875ZM446.484 338.5L446.477 339.844C446.357 339.818 446.242 339.802 446.133 339.797C446.029 339.786 445.909 339.781 445.773 339.781C445.44 339.781 445.146 339.833 444.891 339.938C444.635 340.042 444.419 340.188 444.242 340.375C444.065 340.562 443.924 340.786 443.82 341.047C443.721 341.302 443.656 341.583 443.625 341.891L443.219 342.125C443.219 341.615 443.268 341.135 443.367 340.688C443.471 340.24 443.63 339.844 443.844 339.5C444.057 339.151 444.328 338.88 444.656 338.688C444.99 338.49 445.385 338.391 445.844 338.391C445.948 338.391 446.068 338.404 446.203 338.43C446.339 338.451 446.432 338.474 446.484 338.5ZM447.281 342.867V342.688C447.281 342.078 447.37 341.513 447.547 340.992C447.724 340.466 447.979 340.01 448.312 339.625C448.646 339.234 449.049 338.932 449.523 338.719C449.997 338.5 450.529 338.391 451.117 338.391C451.711 338.391 452.245 338.5 452.719 338.719C453.198 338.932 453.604 339.234 453.938 339.625C454.276 340.01 454.534 340.466 454.711 340.992C454.888 341.513 454.977 342.078 454.977 342.688V342.867C454.977 343.477 454.888 344.042 454.711 344.562C454.534 345.083 454.276 345.539 453.938 345.93C453.604 346.315 453.201 346.617 452.727 346.836C452.258 347.049 451.727 347.156 451.133 347.156C450.539 347.156 450.005 347.049 449.531 346.836C449.057 346.617 448.651 346.315 448.312 345.93C447.979 345.539 447.724 345.083 447.547 344.562C447.37 344.042 447.281 343.477 447.281 342.867ZM448.727 342.688V342.867C448.727 343.289 448.776 343.688 448.875 344.062C448.974 344.432 449.122 344.76 449.32 345.047C449.523 345.333 449.776 345.56 450.078 345.727C450.38 345.888 450.732 345.969 451.133 345.969C451.529 345.969 451.875 345.888 452.172 345.727C452.474 345.56 452.724 345.333 452.922 345.047C453.12 344.76 453.268 344.432 453.367 344.062C453.471 343.688 453.523 343.289 453.523 342.867V342.688C453.523 342.271 453.471 341.878 453.367 341.508C453.268 341.133 453.117 340.802 452.914 340.516C452.716 340.224 452.466 339.995 452.164 339.828C451.867 339.661 451.518 339.578 451.117 339.578C450.721 339.578 450.372 339.661 450.07 339.828C449.773 339.995 449.523 340.224 449.32 340.516C449.122 340.802 448.974 341.133 448.875 341.508C448.776 341.878 448.727 342.271 448.727 342.688ZM460.172 345.969C460.516 345.969 460.833 345.898 461.125 345.758C461.417 345.617 461.656 345.424 461.844 345.18C462.031 344.93 462.138 344.646 462.164 344.328H463.539C463.513 344.828 463.344 345.294 463.031 345.727C462.724 346.154 462.32 346.5 461.82 346.766C461.32 347.026 460.771 347.156 460.172 347.156C459.536 347.156 458.982 347.044 458.508 346.82C458.039 346.596 457.648 346.289 457.336 345.898C457.029 345.508 456.797 345.06 456.641 344.555C456.49 344.044 456.414 343.505 456.414 342.938V342.609C456.414 342.042 456.49 341.505 456.641 341C456.797 340.49 457.029 340.039 457.336 339.648C457.648 339.258 458.039 338.951 458.508 338.727C458.982 338.503 459.536 338.391 460.172 338.391C460.833 338.391 461.411 338.526 461.906 338.797C462.401 339.062 462.789 339.427 463.07 339.891C463.357 340.349 463.513 340.87 463.539 341.453H462.164C462.138 341.104 462.039 340.789 461.867 340.508C461.701 340.227 461.471 340.003 461.18 339.836C460.893 339.664 460.557 339.578 460.172 339.578C459.729 339.578 459.357 339.667 459.055 339.844C458.758 340.016 458.521 340.25 458.344 340.547C458.172 340.839 458.047 341.164 457.969 341.523C457.896 341.878 457.859 342.24 457.859 342.609V342.938C457.859 343.307 457.896 343.672 457.969 344.031C458.042 344.391 458.164 344.716 458.336 345.008C458.513 345.299 458.75 345.534 459.047 345.711C459.349 345.883 459.724 345.969 460.172 345.969ZM468.672 347.156C468.083 347.156 467.549 347.057 467.07 346.859C466.596 346.656 466.188 346.372 465.844 346.008C465.505 345.643 465.245 345.211 465.062 344.711C464.88 344.211 464.789 343.664 464.789 343.07V342.742C464.789 342.055 464.891 341.443 465.094 340.906C465.297 340.365 465.573 339.906 465.922 339.531C466.271 339.156 466.667 338.872 467.109 338.68C467.552 338.487 468.01 338.391 468.484 338.391C469.089 338.391 469.609 338.495 470.047 338.703C470.49 338.911 470.852 339.203 471.133 339.578C471.414 339.948 471.622 340.385 471.758 340.891C471.893 341.391 471.961 341.938 471.961 342.531V343.18H465.648V342H470.516V341.891C470.495 341.516 470.417 341.151 470.281 340.797C470.151 340.443 469.943 340.151 469.656 339.922C469.37 339.693 468.979 339.578 468.484 339.578C468.156 339.578 467.854 339.648 467.578 339.789C467.302 339.924 467.065 340.128 466.867 340.398C466.669 340.669 466.516 341 466.406 341.391C466.297 341.781 466.242 342.232 466.242 342.742V343.07C466.242 343.471 466.297 343.849 466.406 344.203C466.521 344.552 466.685 344.859 466.898 345.125C467.117 345.391 467.38 345.599 467.688 345.75C468 345.901 468.354 345.977 468.75 345.977C469.26 345.977 469.693 345.872 470.047 345.664C470.401 345.456 470.711 345.177 470.977 344.828L471.852 345.523C471.669 345.799 471.438 346.062 471.156 346.312C470.875 346.562 470.529 346.766 470.117 346.922C469.711 347.078 469.229 347.156 468.672 347.156ZM478.57 344.758C478.57 344.549 478.523 344.357 478.43 344.18C478.341 343.997 478.156 343.833 477.875 343.688C477.599 343.536 477.182 343.406 476.625 343.297C476.156 343.198 475.732 343.081 475.352 342.945C474.977 342.81 474.656 342.646 474.391 342.453C474.13 342.26 473.93 342.034 473.789 341.773C473.648 341.513 473.578 341.208 473.578 340.859C473.578 340.526 473.651 340.211 473.797 339.914C473.948 339.617 474.159 339.354 474.43 339.125C474.706 338.896 475.036 338.716 475.422 338.586C475.807 338.456 476.237 338.391 476.711 338.391C477.388 338.391 477.966 338.51 478.445 338.75C478.924 338.99 479.292 339.31 479.547 339.711C479.802 340.107 479.93 340.547 479.93 341.031H478.484C478.484 340.797 478.414 340.57 478.273 340.352C478.138 340.128 477.938 339.943 477.672 339.797C477.411 339.651 477.091 339.578 476.711 339.578C476.31 339.578 475.984 339.641 475.734 339.766C475.49 339.885 475.31 340.039 475.195 340.227C475.086 340.414 475.031 340.612 475.031 340.82C475.031 340.977 475.057 341.117 475.109 341.242C475.167 341.362 475.266 341.474 475.406 341.578C475.547 341.677 475.745 341.771 476 341.859C476.255 341.948 476.581 342.036 476.977 342.125C477.669 342.281 478.24 342.469 478.688 342.688C479.135 342.906 479.469 343.174 479.688 343.492C479.906 343.81 480.016 344.195 480.016 344.648C480.016 345.018 479.938 345.357 479.781 345.664C479.63 345.971 479.409 346.237 479.117 346.461C478.831 346.68 478.487 346.852 478.086 346.977C477.69 347.096 477.245 347.156 476.75 347.156C476.005 347.156 475.375 347.023 474.859 346.758C474.344 346.492 473.953 346.148 473.688 345.727C473.422 345.305 473.289 344.859 473.289 344.391H474.742C474.763 344.786 474.878 345.102 475.086 345.336C475.294 345.565 475.549 345.729 475.852 345.828C476.154 345.922 476.453 345.969 476.75 345.969C477.146 345.969 477.477 345.917 477.742 345.812C478.013 345.708 478.219 345.565 478.359 345.383C478.5 345.201 478.57 344.992 478.57 344.758ZM486.836 344.758C486.836 344.549 486.789 344.357 486.695 344.18C486.607 343.997 486.422 343.833 486.141 343.688C485.865 343.536 485.448 343.406 484.891 343.297C484.422 343.198 483.997 343.081 483.617 342.945C483.242 342.81 482.922 342.646 482.656 342.453C482.396 342.26 482.195 342.034 482.055 341.773C481.914 341.513 481.844 341.208 481.844 340.859C481.844 340.526 481.917 340.211 482.062 339.914C482.214 339.617 482.424 339.354 482.695 339.125C482.971 338.896 483.302 338.716 483.688 338.586C484.073 338.456 484.503 338.391 484.977 338.391C485.654 338.391 486.232 338.51 486.711 338.75C487.19 338.99 487.557 339.31 487.812 339.711C488.068 340.107 488.195 340.547 488.195 341.031H486.75C486.75 340.797 486.68 340.57 486.539 340.352C486.404 340.128 486.203 339.943 485.938 339.797C485.677 339.651 485.357 339.578 484.977 339.578C484.576 339.578 484.25 339.641 484 339.766C483.755 339.885 483.576 340.039 483.461 340.227C483.352 340.414 483.297 340.612 483.297 340.82C483.297 340.977 483.323 341.117 483.375 341.242C483.432 341.362 483.531 341.474 483.672 341.578C483.812 341.677 484.01 341.771 484.266 341.859C484.521 341.948 484.846 342.036 485.242 342.125C485.935 342.281 486.505 342.469 486.953 342.688C487.401 342.906 487.734 343.174 487.953 343.492C488.172 343.81 488.281 344.195 488.281 344.648C488.281 345.018 488.203 345.357 488.047 345.664C487.896 345.971 487.674 346.237 487.383 346.461C487.096 346.68 486.753 346.852 486.352 346.977C485.956 347.096 485.51 347.156 485.016 347.156C484.271 347.156 483.641 347.023 483.125 346.758C482.609 346.492 482.219 346.148 481.953 345.727C481.688 345.305 481.555 344.859 481.555 344.391H483.008C483.029 344.786 483.143 345.102 483.352 345.336C483.56 345.565 483.815 345.729 484.117 345.828C484.419 345.922 484.719 345.969 485.016 345.969C485.411 345.969 485.742 345.917 486.008 345.812C486.279 345.708 486.484 345.565 486.625 345.383C486.766 345.201 486.836 344.992 486.836 344.758Z" fill="black" fill-opacity="0.6"/>
</svg>
