<svg width="204" height="244" viewBox="0 0 204 244" fill="none" xmlns="http://www.w3.org/2000/svg">
<rect x="2" width="200" height="200" rx="100" fill="#F5F5F5"/>
<path d="M80.6668 130.333V95.9334L75.4668 84.6L80.2668 82.3334L86.5335 95.8H117.467L123.733 82.3334L128.533 84.6L123.333 95.9334V130.333H80.6668ZM96.6668 111.667H107.333C108.089 111.667 108.722 111.411 109.233 110.9C109.745 110.389 110 109.756 110 109C110 108.244 109.745 107.611 109.233 107.1C108.722 106.589 108.089 106.333 107.333 106.333H96.6668C95.9112 106.333 95.2779 106.589 94.7668 107.1C94.2557 107.611 94.0001 108.244 94.0001 109C94.0001 109.756 94.2557 110.389 94.7668 110.9C95.2779 111.411 95.9112 111.667 96.6668 111.667Z" fill="black" fill-opacity="0.38"/>
<path d="M15.7969 220.938V238H12.2812L5.42578 226.562V238H1.91016V220.938H5.42578L12.293 232.387V220.938H15.7969ZM18.1055 231.789V231.543C18.1055 230.613 18.2383 229.758 18.5039 228.977C18.7695 228.188 19.1562 227.504 19.6641 226.926C20.1719 226.348 20.7969 225.898 21.5391 225.578C22.2812 225.25 23.1328 225.086 24.0938 225.086C25.0547 225.086 25.9102 225.25 26.6602 225.578C27.4102 225.898 28.0391 226.348 28.5469 226.926C29.0625 227.504 29.4531 228.188 29.7188 228.977C29.9844 229.758 30.1172 230.613 30.1172 231.543V231.789C30.1172 232.711 29.9844 233.566 29.7188 234.355C29.4531 235.137 29.0625 235.82 28.5469 236.406C28.0391 236.984 27.4141 237.434 26.6719 237.754C25.9297 238.074 25.0781 238.234 24.1172 238.234C23.1562 238.234 22.3008 238.074 21.5508 237.754C20.8086 237.434 20.1797 236.984 19.6641 236.406C19.1562 235.82 18.7695 235.137 18.5039 234.355C18.2383 233.566 18.1055 232.711 18.1055 231.789ZM21.4805 231.543V231.789C21.4805 232.32 21.5273 232.816 21.6211 233.277C21.7148 233.738 21.8633 234.145 22.0664 234.496C22.2773 234.84 22.5508 235.109 22.8867 235.305C23.2227 235.5 23.6328 235.598 24.1172 235.598C24.5859 235.598 24.9883 235.5 25.3242 235.305C25.6602 235.109 25.9297 234.84 26.1328 234.496C26.3359 234.145 26.4844 233.738 26.5781 233.277C26.6797 232.816 26.7305 232.32 26.7305 231.789V231.543C26.7305 231.027 26.6797 230.543 26.5781 230.09C26.4844 229.629 26.332 229.223 26.1211 228.871C25.918 228.512 25.6484 228.23 25.3125 228.027C24.9766 227.824 24.5703 227.723 24.0938 227.723C23.6172 227.723 23.2109 227.824 22.875 228.027C22.5469 228.23 22.2773 228.512 22.0664 228.871C21.8633 229.223 21.7148 229.629 21.6211 230.09C21.5273 230.543 21.4805 231.027 21.4805 231.543ZM52.3945 229.07V229.879C52.3945 231.176 52.2188 232.34 51.8672 233.371C51.5156 234.402 51.0195 235.281 50.3789 236.008C49.7383 236.727 48.9727 237.277 48.082 237.66C47.1992 238.043 46.2188 238.234 45.1406 238.234C44.0703 238.234 43.0898 238.043 42.1992 237.66C41.3164 237.277 40.5508 236.727 39.9023 236.008C39.2539 235.281 38.75 234.402 38.3906 233.371C38.0391 232.34 37.8633 231.176 37.8633 229.879V229.07C37.8633 227.766 38.0391 226.602 38.3906 225.578C38.7422 224.547 39.2383 223.668 39.8789 222.941C40.5273 222.215 41.293 221.66 42.1758 221.277C43.0664 220.895 44.0469 220.703 45.1172 220.703C46.1953 220.703 47.1758 220.895 48.0586 221.277C48.9492 221.66 49.7148 222.215 50.3555 222.941C51.0039 223.668 51.5039 224.547 51.8555 225.578C52.2148 226.602 52.3945 227.766 52.3945 229.07ZM48.8438 229.879V229.047C48.8438 228.141 48.7617 227.344 48.5977 226.656C48.4336 225.969 48.1914 225.391 47.8711 224.922C47.5508 224.453 47.1602 224.102 46.6992 223.867C46.2383 223.625 45.7109 223.504 45.1172 223.504C44.5234 223.504 43.9961 223.625 43.5352 223.867C43.082 224.102 42.6953 224.453 42.375 224.922C42.0625 225.391 41.8242 225.969 41.6602 226.656C41.4961 227.344 41.4141 228.141 41.4141 229.047V229.879C41.4141 230.777 41.4961 231.574 41.6602 232.27C41.8242 232.957 42.0664 233.539 42.3867 234.016C42.707 234.484 43.0977 234.84 43.5586 235.082C44.0195 235.324 44.5469 235.445 45.1406 235.445C45.7344 235.445 46.2617 235.324 46.7227 235.082C47.1836 234.84 47.5703 234.484 47.8828 234.016C48.1953 233.539 48.4336 232.957 48.5977 232.27C48.7617 231.574 48.8438 230.777 48.8438 229.879ZM58.0898 228.086V238H54.7148V225.32H57.8906L58.0898 228.086ZM61.9102 225.238L61.8516 228.367C61.6875 228.344 61.4883 228.324 61.2539 228.309C61.0273 228.285 60.8203 228.273 60.6328 228.273C60.1562 228.273 59.7422 228.336 59.3906 228.461C59.0469 228.578 58.7578 228.754 58.5234 228.988C58.2969 229.223 58.125 229.508 58.0078 229.844C57.8984 230.18 57.8359 230.562 57.8203 230.992L57.1406 230.781C57.1406 229.961 57.2227 229.207 57.3867 228.52C57.5508 227.824 57.7891 227.219 58.1016 226.703C58.4219 226.188 58.8125 225.789 59.2734 225.508C59.7344 225.227 60.2617 225.086 60.8555 225.086C61.043 225.086 61.2344 225.102 61.4297 225.133C61.625 225.156 61.7852 225.191 61.9102 225.238ZM70.7578 235.234V220H74.1562V238H71.0977L70.7578 235.234ZM62.7422 231.812V231.566C62.7422 230.598 62.8516 229.719 63.0703 228.93C63.2891 228.133 63.6094 227.449 64.0312 226.879C64.4531 226.309 64.9727 225.867 65.5898 225.555C66.207 225.242 66.9102 225.086 67.6992 225.086C68.4414 225.086 69.0898 225.242 69.6445 225.555C70.207 225.867 70.6836 226.312 71.0742 226.891C71.4727 227.461 71.793 228.137 72.0352 228.918C72.2773 229.691 72.4531 230.539 72.5625 231.461V232C72.4531 232.883 72.2773 233.703 72.0352 234.461C71.793 235.219 71.4727 235.883 71.0742 236.453C70.6836 237.016 70.207 237.453 69.6445 237.766C69.082 238.078 68.4258 238.234 67.6758 238.234C66.8867 238.234 66.1836 238.074 65.5664 237.754C64.957 237.434 64.4414 236.984 64.0195 236.406C63.6055 235.828 63.2891 235.148 63.0703 234.367C62.8516 233.586 62.7422 232.734 62.7422 231.812ZM66.1172 231.566V231.812C66.1172 232.336 66.1562 232.824 66.2344 233.277C66.3203 233.73 66.457 234.133 66.6445 234.484C66.8398 234.828 67.0898 235.098 67.3945 235.293C67.707 235.48 68.0859 235.574 68.5312 235.574C69.1094 235.574 69.5859 235.445 69.9609 235.188C70.3359 234.922 70.6211 234.559 70.8164 234.098C71.0195 233.637 71.1367 233.105 71.168 232.504V230.969C71.1445 230.477 71.0742 230.035 70.957 229.645C70.8477 229.246 70.6836 228.906 70.4648 228.625C70.2539 228.344 69.9883 228.125 69.668 227.969C69.3555 227.812 68.9844 227.734 68.5547 227.734C68.1172 227.734 67.7422 227.836 67.4297 228.039C67.1172 228.234 66.8633 228.504 66.668 228.848C66.4805 229.191 66.3398 229.598 66.2461 230.066C66.1602 230.527 66.1172 231.027 66.1172 231.566ZM82.6289 238.234C81.6445 238.234 80.7617 238.078 79.9805 237.766C79.1992 237.445 78.5352 237.004 77.9883 236.441C77.4492 235.879 77.0352 235.227 76.7461 234.484C76.457 233.734 76.3125 232.938 76.3125 232.094V231.625C76.3125 230.664 76.4492 229.785 76.7227 228.988C76.9961 228.191 77.3867 227.5 77.8945 226.914C78.4102 226.328 79.0352 225.879 79.7695 225.566C80.5039 225.246 81.332 225.086 82.2539 225.086C83.1523 225.086 83.9492 225.234 84.6445 225.531C85.3398 225.828 85.9219 226.25 86.3906 226.797C86.8672 227.344 87.2266 228 87.4688 228.766C87.7109 229.523 87.832 230.367 87.832 231.297V232.703H77.7539V230.453H84.5156V230.195C84.5156 229.727 84.4297 229.309 84.2578 228.941C84.0938 228.566 83.8438 228.27 83.5078 228.051C83.1719 227.832 82.7422 227.723 82.2188 227.723C81.7734 227.723 81.3906 227.82 81.0703 228.016C80.75 228.211 80.4883 228.484 80.2852 228.836C80.0898 229.188 79.9414 229.602 79.8398 230.078C79.7461 230.547 79.6992 231.062 79.6992 231.625V232.094C79.6992 232.602 79.7695 233.07 79.9102 233.5C80.0586 233.93 80.2656 234.301 80.5312 234.613C80.8047 234.926 81.1328 235.168 81.5156 235.34C81.9062 235.512 82.3477 235.598 82.8398 235.598C83.4492 235.598 84.0156 235.48 84.5391 235.246C85.0703 235.004 85.5273 234.641 85.9102 234.156L87.5508 235.938C87.2852 236.32 86.9219 236.688 86.4609 237.039C86.0078 237.391 85.4609 237.68 84.8203 237.906C84.1797 238.125 83.4492 238.234 82.6289 238.234ZM93.1289 228.086V238H89.7539V225.32H92.9297L93.1289 228.086ZM96.9492 225.238L96.8906 228.367C96.7266 228.344 96.5273 228.324 96.293 228.309C96.0664 228.285 95.8594 228.273 95.6719 228.273C95.1953 228.273 94.7812 228.336 94.4297 228.461C94.0859 228.578 93.7969 228.754 93.5625 228.988C93.3359 229.223 93.1641 229.508 93.0469 229.844C92.9375 230.18 92.875 230.562 92.8594 230.992L92.1797 230.781C92.1797 229.961 92.2617 229.207 92.4258 228.52C92.5898 227.824 92.8281 227.219 93.1406 226.703C93.4609 226.188 93.8516 225.789 94.3125 225.508C94.7734 225.227 95.3008 225.086 95.8945 225.086C96.082 225.086 96.2734 225.102 96.4688 225.133C96.6641 225.156 96.8242 225.191 96.9492 225.238ZM105.398 234.496C105.398 234.254 105.328 234.035 105.188 233.84C105.047 233.645 104.785 233.465 104.402 233.301C104.027 233.129 103.484 232.973 102.773 232.832C102.133 232.691 101.535 232.516 100.98 232.305C100.434 232.086 99.957 231.824 99.5508 231.52C99.1523 231.215 98.8398 230.855 98.6133 230.441C98.3867 230.02 98.2734 229.539 98.2734 229C98.2734 228.469 98.3867 227.969 98.6133 227.5C98.8477 227.031 99.1797 226.617 99.6094 226.258C100.047 225.891 100.578 225.605 101.203 225.402C101.836 225.191 102.547 225.086 103.336 225.086C104.438 225.086 105.383 225.262 106.172 225.613C106.969 225.965 107.578 226.449 108 227.066C108.43 227.676 108.645 228.371 108.645 229.152H105.27C105.27 228.824 105.199 228.531 105.059 228.273C104.926 228.008 104.715 227.801 104.426 227.652C104.145 227.496 103.777 227.418 103.324 227.418C102.949 227.418 102.625 227.484 102.352 227.617C102.078 227.742 101.867 227.914 101.719 228.133C101.578 228.344 101.508 228.578 101.508 228.836C101.508 229.031 101.547 229.207 101.625 229.363C101.711 229.512 101.848 229.648 102.035 229.773C102.223 229.898 102.465 230.016 102.762 230.125C103.066 230.227 103.441 230.32 103.887 230.406C104.801 230.594 105.617 230.84 106.336 231.145C107.055 231.441 107.625 231.848 108.047 232.363C108.469 232.871 108.68 233.539 108.68 234.367C108.68 234.93 108.555 235.445 108.305 235.914C108.055 236.383 107.695 236.793 107.227 237.145C106.758 237.488 106.195 237.758 105.539 237.953C104.891 238.141 104.16 238.234 103.348 238.234C102.168 238.234 101.168 238.023 100.348 237.602C99.5352 237.18 98.918 236.645 98.4961 235.996C98.082 235.34 97.875 234.668 97.875 233.98H101.074C101.09 234.441 101.207 234.812 101.426 235.094C101.652 235.375 101.938 235.578 102.281 235.703C102.633 235.828 103.012 235.891 103.418 235.891C103.855 235.891 104.219 235.832 104.508 235.715C104.797 235.59 105.016 235.426 105.164 235.223C105.32 235.012 105.398 234.77 105.398 234.496ZM125.941 233.535C125.941 233.23 125.895 232.957 125.801 232.715C125.715 232.465 125.551 232.238 125.309 232.035C125.066 231.824 124.727 231.617 124.289 231.414C123.852 231.211 123.285 231 122.59 230.781C121.816 230.531 121.082 230.25 120.387 229.938C119.699 229.625 119.09 229.262 118.559 228.848C118.035 228.426 117.621 227.938 117.316 227.383C117.02 226.828 116.871 226.184 116.871 225.449C116.871 224.738 117.027 224.094 117.34 223.516C117.652 222.93 118.09 222.43 118.652 222.016C119.215 221.594 119.879 221.27 120.645 221.043C121.418 220.816 122.266 220.703 123.188 220.703C124.445 220.703 125.543 220.93 126.48 221.383C127.418 221.836 128.145 222.457 128.66 223.246C129.184 224.035 129.445 224.938 129.445 225.953H125.953C125.953 225.453 125.848 225.016 125.637 224.641C125.434 224.258 125.121 223.957 124.699 223.738C124.285 223.52 123.762 223.41 123.129 223.41C122.52 223.41 122.012 223.504 121.605 223.691C121.199 223.871 120.895 224.117 120.691 224.43C120.488 224.734 120.387 225.078 120.387 225.461C120.387 225.75 120.457 226.012 120.598 226.246C120.746 226.48 120.965 226.699 121.254 226.902C121.543 227.105 121.898 227.297 122.32 227.477C122.742 227.656 123.23 227.832 123.785 228.004C124.715 228.285 125.531 228.602 126.234 228.953C126.945 229.305 127.539 229.699 128.016 230.137C128.492 230.574 128.852 231.07 129.094 231.625C129.336 232.18 129.457 232.809 129.457 233.512C129.457 234.254 129.312 234.918 129.023 235.504C128.734 236.09 128.316 236.586 127.77 236.992C127.223 237.398 126.57 237.707 125.812 237.918C125.055 238.129 124.207 238.234 123.27 238.234C122.426 238.234 121.594 238.125 120.773 237.906C119.953 237.68 119.207 237.34 118.535 236.887C117.871 236.434 117.34 235.855 116.941 235.152C116.543 234.449 116.344 233.617 116.344 232.656H119.871C119.871 233.188 119.953 233.637 120.117 234.004C120.281 234.371 120.512 234.668 120.809 234.895C121.113 235.121 121.473 235.285 121.887 235.387C122.309 235.488 122.77 235.539 123.27 235.539C123.879 235.539 124.379 235.453 124.77 235.281C125.168 235.109 125.461 234.871 125.648 234.566C125.844 234.262 125.941 233.918 125.941 233.535ZM134.93 220V238H131.555V220H134.93ZM134.449 231.215H133.523C133.531 230.332 133.648 229.52 133.875 228.777C134.102 228.027 134.426 227.379 134.848 226.832C135.27 226.277 135.773 225.848 136.359 225.543C136.953 225.238 137.609 225.086 138.328 225.086C138.953 225.086 139.52 225.176 140.027 225.355C140.543 225.527 140.984 225.809 141.352 226.199C141.727 226.582 142.016 227.086 142.219 227.711C142.422 228.336 142.523 229.094 142.523 229.984V238H139.125V229.961C139.125 229.398 139.043 228.957 138.879 228.637C138.723 228.309 138.492 228.078 138.188 227.945C137.891 227.805 137.523 227.734 137.086 227.734C136.602 227.734 136.188 227.824 135.844 228.004C135.508 228.184 135.238 228.434 135.035 228.754C134.832 229.066 134.684 229.434 134.59 229.855C134.496 230.277 134.449 230.73 134.449 231.215ZM148.652 225.32V238H145.266V225.32H148.652ZM145.055 222.016C145.055 221.523 145.227 221.117 145.57 220.797C145.914 220.477 146.375 220.316 146.953 220.316C147.523 220.316 147.98 220.477 148.324 220.797C148.676 221.117 148.852 221.523 148.852 222.016C148.852 222.508 148.676 222.914 148.324 223.234C147.98 223.555 147.523 223.715 146.953 223.715C146.375 223.715 145.914 223.555 145.57 223.234C145.227 222.914 145.055 222.508 145.055 222.016ZM154.816 227.758V242.875H151.441V225.32H154.57L154.816 227.758ZM162.844 231.52V231.766C162.844 232.688 162.734 233.543 162.516 234.332C162.305 235.121 161.992 235.809 161.578 236.395C161.164 236.973 160.648 237.426 160.031 237.754C159.422 238.074 158.719 238.234 157.922 238.234C157.148 238.234 156.477 238.078 155.906 237.766C155.336 237.453 154.855 237.016 154.465 236.453C154.082 235.883 153.773 235.223 153.539 234.473C153.305 233.723 153.125 232.918 153 232.059V231.414C153.125 230.492 153.305 229.648 153.539 228.883C153.773 228.109 154.082 227.441 154.465 226.879C154.855 226.309 155.332 225.867 155.895 225.555C156.465 225.242 157.133 225.086 157.898 225.086C158.703 225.086 159.41 225.238 160.02 225.543C160.637 225.848 161.152 226.285 161.566 226.855C161.988 227.426 162.305 228.105 162.516 228.895C162.734 229.684 162.844 230.559 162.844 231.52ZM159.457 231.766V231.52C159.457 230.98 159.41 230.484 159.316 230.031C159.23 229.57 159.09 229.168 158.895 228.824C158.707 228.48 158.457 228.215 158.145 228.027C157.84 227.832 157.469 227.734 157.031 227.734C156.57 227.734 156.176 227.809 155.848 227.957C155.527 228.105 155.266 228.32 155.062 228.602C154.859 228.883 154.707 229.219 154.605 229.609C154.504 230 154.441 230.441 154.418 230.934V232.562C154.457 233.141 154.566 233.66 154.746 234.121C154.926 234.574 155.203 234.934 155.578 235.199C155.953 235.465 156.445 235.598 157.055 235.598C157.5 235.598 157.875 235.5 158.18 235.305C158.484 235.102 158.73 234.824 158.918 234.473C159.113 234.121 159.25 233.715 159.328 233.254C159.414 232.793 159.457 232.297 159.457 231.766ZM168.316 227.758V242.875H164.941V225.32H168.07L168.316 227.758ZM176.344 231.52V231.766C176.344 232.688 176.234 233.543 176.016 234.332C175.805 235.121 175.492 235.809 175.078 236.395C174.664 236.973 174.148 237.426 173.531 237.754C172.922 238.074 172.219 238.234 171.422 238.234C170.648 238.234 169.977 238.078 169.406 237.766C168.836 237.453 168.355 237.016 167.965 236.453C167.582 235.883 167.273 235.223 167.039 234.473C166.805 233.723 166.625 232.918 166.5 232.059V231.414C166.625 230.492 166.805 229.648 167.039 228.883C167.273 228.109 167.582 227.441 167.965 226.879C168.355 226.309 168.832 225.867 169.395 225.555C169.965 225.242 170.633 225.086 171.398 225.086C172.203 225.086 172.91 225.238 173.52 225.543C174.137 225.848 174.652 226.285 175.066 226.855C175.488 227.426 175.805 228.105 176.016 228.895C176.234 229.684 176.344 230.559 176.344 231.52ZM172.957 231.766V231.52C172.957 230.98 172.91 230.484 172.816 230.031C172.73 229.57 172.59 229.168 172.395 228.824C172.207 228.48 171.957 228.215 171.645 228.027C171.34 227.832 170.969 227.734 170.531 227.734C170.07 227.734 169.676 227.809 169.348 227.957C169.027 228.105 168.766 228.32 168.562 228.602C168.359 228.883 168.207 229.219 168.105 229.609C168.004 230 167.941 230.441 167.918 230.934V232.562C167.957 233.141 168.066 233.66 168.246 234.121C168.426 234.574 168.703 234.934 169.078 235.199C169.453 235.465 169.945 235.598 170.555 235.598C171 235.598 171.375 235.5 171.68 235.305C171.984 235.102 172.23 234.824 172.418 234.473C172.613 234.121 172.75 233.715 172.828 233.254C172.914 232.793 172.957 232.297 172.957 231.766ZM184.277 238.234C183.293 238.234 182.41 238.078 181.629 237.766C180.848 237.445 180.184 237.004 179.637 236.441C179.098 235.879 178.684 235.227 178.395 234.484C178.105 233.734 177.961 232.938 177.961 232.094V231.625C177.961 230.664 178.098 229.785 178.371 228.988C178.645 228.191 179.035 227.5 179.543 226.914C180.059 226.328 180.684 225.879 181.418 225.566C182.152 225.246 182.98 225.086 183.902 225.086C184.801 225.086 185.598 225.234 186.293 225.531C186.988 225.828 187.57 226.25 188.039 226.797C188.516 227.344 188.875 228 189.117 228.766C189.359 229.523 189.48 230.367 189.48 231.297V232.703H179.402V230.453H186.164V230.195C186.164 229.727 186.078 229.309 185.906 228.941C185.742 228.566 185.492 228.27 185.156 228.051C184.82 227.832 184.391 227.723 183.867 227.723C183.422 227.723 183.039 227.82 182.719 228.016C182.398 228.211 182.137 228.484 181.934 228.836C181.738 229.188 181.59 229.602 181.488 230.078C181.395 230.547 181.348 231.062 181.348 231.625V232.094C181.348 232.602 181.418 233.07 181.559 233.5C181.707 233.93 181.914 234.301 182.18 234.613C182.453 234.926 182.781 235.168 183.164 235.34C183.555 235.512 183.996 235.598 184.488 235.598C185.098 235.598 185.664 235.48 186.188 235.246C186.719 235.004 187.176 234.641 187.559 234.156L189.199 235.938C188.934 236.32 188.57 236.688 188.109 237.039C187.656 237.391 187.109 237.68 186.469 237.906C185.828 238.125 185.098 238.234 184.277 238.234ZM198.891 235.234V220H202.289V238H199.23L198.891 235.234ZM190.875 231.812V231.566C190.875 230.598 190.984 229.719 191.203 228.93C191.422 228.133 191.742 227.449 192.164 226.879C192.586 226.309 193.105 225.867 193.723 225.555C194.34 225.242 195.043 225.086 195.832 225.086C196.574 225.086 197.223 225.242 197.777 225.555C198.34 225.867 198.816 226.312 199.207 226.891C199.605 227.461 199.926 228.137 200.168 228.918C200.41 229.691 200.586 230.539 200.695 231.461V232C200.586 232.883 200.41 233.703 200.168 234.461C199.926 235.219 199.605 235.883 199.207 236.453C198.816 237.016 198.34 237.453 197.777 237.766C197.215 238.078 196.559 238.234 195.809 238.234C195.02 238.234 194.316 238.074 193.699 237.754C193.09 237.434 192.574 236.984 192.152 236.406C191.738 235.828 191.422 235.148 191.203 234.367C190.984 233.586 190.875 232.734 190.875 231.812ZM194.25 231.566V231.812C194.25 232.336 194.289 232.824 194.367 233.277C194.453 233.73 194.59 234.133 194.777 234.484C194.973 234.828 195.223 235.098 195.527 235.293C195.84 235.48 196.219 235.574 196.664 235.574C197.242 235.574 197.719 235.445 198.094 235.188C198.469 234.922 198.754 234.559 198.949 234.098C199.152 233.637 199.27 233.105 199.301 232.504V230.969C199.277 230.477 199.207 230.035 199.09 229.645C198.98 229.246 198.816 228.906 198.598 228.625C198.387 228.344 198.121 228.125 197.801 227.969C197.488 227.812 197.117 227.734 196.688 227.734C196.25 227.734 195.875 227.836 195.562 228.039C195.25 228.234 194.996 228.504 194.801 228.848C194.613 229.191 194.473 229.598 194.379 230.066C194.293 230.527 194.25 231.027 194.25 231.566Z" fill="black" fill-opacity="0.6"/>
</svg>
