<svg width="200" height="244" viewBox="0 0 200 244" fill="none" xmlns="http://www.w3.org/2000/svg">
<rect width="200" height="200" rx="100" fill="#F5F5F5"/>
<path d="M105.333 127.667L118.667 114.333H108C107.244 114.333 106.611 114.589 106.1 115.1C105.589 115.611 105.333 116.244 105.333 117V127.667ZM81.3333 133C79.8667 133 78.6111 132.478 77.5667 131.433C76.5222 130.389 76 129.133 76 127.667V90.3333C76 88.8667 76.5222 87.6111 77.5667 86.5667C78.6111 85.5222 79.8667 85 81.3333 85H118.667C120.133 85 121.389 85.5222 122.433 86.5667C123.478 87.6111 124 88.8667 124 90.3333V114.8C124 115.511 123.867 116.189 123.6 116.833C123.333 117.478 122.956 118.044 122.467 118.533L109.533 131.467C109.044 131.956 108.478 132.333 107.833 132.6C107.189 132.867 106.511 133 105.8 133H81.3333ZM89.3333 114.333H97.3333C98.0889 114.333 98.7222 114.078 99.2333 113.567C99.7444 113.056 100 112.422 100 111.667C100 110.911 99.7444 110.278 99.2333 109.767C98.7222 109.256 98.0889 109 97.3333 109H89.3333C88.5778 109 87.9444 109.256 87.4333 109.767C86.9222 110.278 86.6667 110.911 86.6667 111.667C86.6667 112.422 86.9222 113.056 87.4333 113.567C87.9444 114.078 88.5778 114.333 89.3333 114.333ZM89.3333 103.667H110.667C111.422 103.667 112.056 103.411 112.567 102.9C113.078 102.389 113.333 101.756 113.333 101C113.333 100.244 113.078 99.6111 112.567 99.1C112.056 98.5889 111.422 98.3333 110.667 98.3333H89.3333C88.5778 98.3333 87.9444 98.5889 87.4333 99.1C86.9222 99.6111 86.6667 100.244 86.6667 101C86.6667 101.756 86.9222 102.389 87.4333 102.9C87.9444 103.411 88.5778 103.667 89.3333 103.667Z" fill="black" fill-opacity="0.38"/>
<path d="M60.8242 220.938V238H57.3086L50.4531 226.562V238H46.9375V220.938H50.4531L57.3203 232.387V220.938H60.8242ZM63.1328 231.789V231.543C63.1328 230.613 63.2656 229.758 63.5312 228.977C63.7969 228.188 64.1836 227.504 64.6914 226.926C65.1992 226.348 65.8242 225.898 66.5664 225.578C67.3086 225.25 68.1602 225.086 69.1211 225.086C70.082 225.086 70.9375 225.25 71.6875 225.578C72.4375 225.898 73.0664 226.348 73.5742 226.926C74.0898 227.504 74.4805 228.188 74.7461 228.977C75.0117 229.758 75.1445 230.613 75.1445 231.543V231.789C75.1445 232.711 75.0117 233.566 74.7461 234.355C74.4805 235.137 74.0898 235.82 73.5742 236.406C73.0664 236.984 72.4414 237.434 71.6992 237.754C70.957 238.074 70.1055 238.234 69.1445 238.234C68.1836 238.234 67.3281 238.074 66.5781 237.754C65.8359 237.434 65.207 236.984 64.6914 236.406C64.1836 235.82 63.7969 235.137 63.5312 234.355C63.2656 233.566 63.1328 232.711 63.1328 231.789ZM66.5078 231.543V231.789C66.5078 232.32 66.5547 232.816 66.6484 233.277C66.7422 233.738 66.8906 234.145 67.0938 234.496C67.3047 234.84 67.5781 235.109 67.9141 235.305C68.25 235.5 68.6602 235.598 69.1445 235.598C69.6133 235.598 70.0156 235.5 70.3516 235.305C70.6875 235.109 70.957 234.84 71.1602 234.496C71.3633 234.145 71.5117 233.738 71.6055 233.277C71.707 232.816 71.7578 232.32 71.7578 231.789V231.543C71.7578 231.027 71.707 230.543 71.6055 230.09C71.5117 229.629 71.3594 229.223 71.1484 228.871C70.9453 228.512 70.6758 228.23 70.3398 228.027C70.0039 227.824 69.5977 227.723 69.1211 227.723C68.6445 227.723 68.2383 227.824 67.9023 228.027C67.5742 228.23 67.3047 228.512 67.0938 228.871C66.8906 229.223 66.7422 229.629 66.6484 230.09C66.5547 230.543 66.5078 231.027 66.5078 231.543ZM97.4219 229.07V229.879C97.4219 231.176 97.2461 232.34 96.8945 233.371C96.543 234.402 96.0469 235.281 95.4062 236.008C94.7656 236.727 94 237.277 93.1094 237.66C92.2266 238.043 91.2461 238.234 90.168 238.234C89.0977 238.234 88.1172 238.043 87.2266 237.66C86.3438 237.277 85.5781 236.727 84.9297 236.008C84.2812 235.281 83.7773 234.402 83.418 233.371C83.0664 232.34 82.8906 231.176 82.8906 229.879V229.07C82.8906 227.766 83.0664 226.602 83.418 225.578C83.7695 224.547 84.2656 223.668 84.9062 222.941C85.5547 222.215 86.3203 221.66 87.2031 221.277C88.0938 220.895 89.0742 220.703 90.1445 220.703C91.2227 220.703 92.2031 220.895 93.0859 221.277C93.9766 221.66 94.7422 222.215 95.3828 222.941C96.0312 223.668 96.5312 224.547 96.8828 225.578C97.2422 226.602 97.4219 227.766 97.4219 229.07ZM93.8711 229.879V229.047C93.8711 228.141 93.7891 227.344 93.625 226.656C93.4609 225.969 93.2188 225.391 92.8984 224.922C92.5781 224.453 92.1875 224.102 91.7266 223.867C91.2656 223.625 90.7383 223.504 90.1445 223.504C89.5508 223.504 89.0234 223.625 88.5625 223.867C88.1094 224.102 87.7227 224.453 87.4023 224.922C87.0898 225.391 86.8516 225.969 86.6875 226.656C86.5234 227.344 86.4414 228.141 86.4414 229.047V229.879C86.4414 230.777 86.5234 231.574 86.6875 232.27C86.8516 232.957 87.0938 233.539 87.4141 234.016C87.7344 234.484 88.125 234.84 88.5859 235.082C89.0469 235.324 89.5742 235.445 90.168 235.445C90.7617 235.445 91.2891 235.324 91.75 235.082C92.2109 234.84 92.5977 234.484 92.9102 234.016C93.2227 233.539 93.4609 232.957 93.625 232.27C93.7891 231.574 93.8711 230.777 93.8711 229.879ZM103.117 228.086V238H99.7422V225.32H102.918L103.117 228.086ZM106.938 225.238L106.879 228.367C106.715 228.344 106.516 228.324 106.281 228.309C106.055 228.285 105.848 228.273 105.66 228.273C105.184 228.273 104.77 228.336 104.418 228.461C104.074 228.578 103.785 228.754 103.551 228.988C103.324 229.223 103.152 229.508 103.035 229.844C102.926 230.18 102.863 230.562 102.848 230.992L102.168 230.781C102.168 229.961 102.25 229.207 102.414 228.52C102.578 227.824 102.816 227.219 103.129 226.703C103.449 226.188 103.84 225.789 104.301 225.508C104.762 225.227 105.289 225.086 105.883 225.086C106.07 225.086 106.262 225.102 106.457 225.133C106.652 225.156 106.812 225.191 106.938 225.238ZM115.785 235.234V220H119.184V238H116.125L115.785 235.234ZM107.77 231.812V231.566C107.77 230.598 107.879 229.719 108.098 228.93C108.316 228.133 108.637 227.449 109.059 226.879C109.48 226.309 110 225.867 110.617 225.555C111.234 225.242 111.938 225.086 112.727 225.086C113.469 225.086 114.117 225.242 114.672 225.555C115.234 225.867 115.711 226.312 116.102 226.891C116.5 227.461 116.82 228.137 117.062 228.918C117.305 229.691 117.48 230.539 117.59 231.461V232C117.48 232.883 117.305 233.703 117.062 234.461C116.82 235.219 116.5 235.883 116.102 236.453C115.711 237.016 115.234 237.453 114.672 237.766C114.109 238.078 113.453 238.234 112.703 238.234C111.914 238.234 111.211 238.074 110.594 237.754C109.984 237.434 109.469 236.984 109.047 236.406C108.633 235.828 108.316 235.148 108.098 234.367C107.879 233.586 107.77 232.734 107.77 231.812ZM111.145 231.566V231.812C111.145 232.336 111.184 232.824 111.262 233.277C111.348 233.73 111.484 234.133 111.672 234.484C111.867 234.828 112.117 235.098 112.422 235.293C112.734 235.48 113.113 235.574 113.559 235.574C114.137 235.574 114.613 235.445 114.988 235.188C115.363 234.922 115.648 234.559 115.844 234.098C116.047 233.637 116.164 233.105 116.195 232.504V230.969C116.172 230.477 116.102 230.035 115.984 229.645C115.875 229.246 115.711 228.906 115.492 228.625C115.281 228.344 115.016 228.125 114.695 227.969C114.383 227.812 114.012 227.734 113.582 227.734C113.145 227.734 112.77 227.836 112.457 228.039C112.145 228.234 111.891 228.504 111.695 228.848C111.508 229.191 111.367 229.598 111.273 230.066C111.188 230.527 111.145 231.027 111.145 231.566ZM127.656 238.234C126.672 238.234 125.789 238.078 125.008 237.766C124.227 237.445 123.562 237.004 123.016 236.441C122.477 235.879 122.062 235.227 121.773 234.484C121.484 233.734 121.34 232.938 121.34 232.094V231.625C121.34 230.664 121.477 229.785 121.75 228.988C122.023 228.191 122.414 227.5 122.922 226.914C123.438 226.328 124.062 225.879 124.797 225.566C125.531 225.246 126.359 225.086 127.281 225.086C128.18 225.086 128.977 225.234 129.672 225.531C130.367 225.828 130.949 226.25 131.418 226.797C131.895 227.344 132.254 228 132.496 228.766C132.738 229.523 132.859 230.367 132.859 231.297V232.703H122.781V230.453H129.543V230.195C129.543 229.727 129.457 229.309 129.285 228.941C129.121 228.566 128.871 228.27 128.535 228.051C128.199 227.832 127.77 227.723 127.246 227.723C126.801 227.723 126.418 227.82 126.098 228.016C125.777 228.211 125.516 228.484 125.312 228.836C125.117 229.188 124.969 229.602 124.867 230.078C124.773 230.547 124.727 231.062 124.727 231.625V232.094C124.727 232.602 124.797 233.07 124.938 233.5C125.086 233.93 125.293 234.301 125.559 234.613C125.832 234.926 126.16 235.168 126.543 235.34C126.934 235.512 127.375 235.598 127.867 235.598C128.477 235.598 129.043 235.48 129.566 235.246C130.098 235.004 130.555 234.641 130.938 234.156L132.578 235.938C132.312 236.32 131.949 236.688 131.488 237.039C131.035 237.391 130.488 237.68 129.848 237.906C129.207 238.125 128.477 238.234 127.656 238.234ZM138.156 228.086V238H134.781V225.32H137.957L138.156 228.086ZM141.977 225.238L141.918 228.367C141.754 228.344 141.555 228.324 141.32 228.309C141.094 228.285 140.887 228.273 140.699 228.273C140.223 228.273 139.809 228.336 139.457 228.461C139.113 228.578 138.824 228.754 138.59 228.988C138.363 229.223 138.191 229.508 138.074 229.844C137.965 230.18 137.902 230.562 137.887 230.992L137.207 230.781C137.207 229.961 137.289 229.207 137.453 228.52C137.617 227.824 137.855 227.219 138.168 226.703C138.488 226.188 138.879 225.789 139.34 225.508C139.801 225.227 140.328 225.086 140.922 225.086C141.109 225.086 141.301 225.102 141.496 225.133C141.691 225.156 141.852 225.191 141.977 225.238ZM150.426 234.496C150.426 234.254 150.355 234.035 150.215 233.84C150.074 233.645 149.812 233.465 149.43 233.301C149.055 233.129 148.512 232.973 147.801 232.832C147.16 232.691 146.562 232.516 146.008 232.305C145.461 232.086 144.984 231.824 144.578 231.52C144.18 231.215 143.867 230.855 143.641 230.441C143.414 230.02 143.301 229.539 143.301 229C143.301 228.469 143.414 227.969 143.641 227.5C143.875 227.031 144.207 226.617 144.637 226.258C145.074 225.891 145.605 225.605 146.23 225.402C146.863 225.191 147.574 225.086 148.363 225.086C149.465 225.086 150.41 225.262 151.199 225.613C151.996 225.965 152.605 226.449 153.027 227.066C153.457 227.676 153.672 228.371 153.672 229.152H150.297C150.297 228.824 150.227 228.531 150.086 228.273C149.953 228.008 149.742 227.801 149.453 227.652C149.172 227.496 148.805 227.418 148.352 227.418C147.977 227.418 147.652 227.484 147.379 227.617C147.105 227.742 146.895 227.914 146.746 228.133C146.605 228.344 146.535 228.578 146.535 228.836C146.535 229.031 146.574 229.207 146.652 229.363C146.738 229.512 146.875 229.648 147.062 229.773C147.25 229.898 147.492 230.016 147.789 230.125C148.094 230.227 148.469 230.32 148.914 230.406C149.828 230.594 150.645 230.84 151.363 231.145C152.082 231.441 152.652 231.848 153.074 232.363C153.496 232.871 153.707 233.539 153.707 234.367C153.707 234.93 153.582 235.445 153.332 235.914C153.082 236.383 152.723 236.793 152.254 237.145C151.785 237.488 151.223 237.758 150.566 237.953C149.918 238.141 149.188 238.234 148.375 238.234C147.195 238.234 146.195 238.023 145.375 237.602C144.562 237.18 143.945 236.645 143.523 235.996C143.109 235.34 142.902 234.668 142.902 233.98H146.102C146.117 234.441 146.234 234.812 146.453 235.094C146.68 235.375 146.965 235.578 147.309 235.703C147.66 235.828 148.039 235.891 148.445 235.891C148.883 235.891 149.246 235.832 149.535 235.715C149.824 235.59 150.043 235.426 150.191 235.223C150.348 235.012 150.426 234.77 150.426 234.496Z" fill="black" fill-opacity="0.6"/>
</svg>
