<svg width="200" height="244" viewBox="0 0 200 244" fill="none" xmlns="http://www.w3.org/2000/svg">
<rect width="200" height="200" rx="100" fill="#F5F5F5"/>
<path d="M95.9337 104.333L90.667 99.0668C90.0892 98.489 89.3756 98.2001 88.5263 98.2001C87.6769 98.2001 86.9238 98.5112 86.267 99.1334C85.6892 99.7557 85.4003 100.489 85.4003 101.333C85.4003 102.178 85.7114 102.889 86.3337 103.467L93.667 110.867C94.3094 111.489 95.0589 111.8 95.9155 111.8C96.772 111.8 97.5337 111.489 98.2003 110.867L113.334 95.6668C114 95.0445 114.334 94.3199 114.334 93.4927C114.334 92.6655 114 91.9236 113.334 91.2668C112.711 90.689 111.965 90.4112 111.093 90.4334C110.221 90.4557 109.479 90.7557 108.867 91.3334L95.9337 104.333ZM100.01 128.333C96.0923 128.333 92.4117 127.598 88.9679 126.128C85.5239 124.657 82.5147 122.635 79.9401 120.06C77.3654 117.486 75.3429 114.48 73.8726 111.042C72.4022 107.604 71.667 103.927 71.667 100.009C71.667 96.0476 72.4022 92.3448 73.8726 88.901C75.3429 85.4571 77.3619 82.4577 79.9296 79.903C82.4972 77.3483 85.5016 75.3258 88.9426 73.8355C92.3836 72.3452 96.0646 71.6001 99.9856 71.6001C103.951 71.6001 107.658 72.3435 111.107 73.8304C114.557 75.3172 117.557 77.335 120.108 79.8838C122.66 82.4327 124.68 85.4299 126.168 88.8756C127.656 92.3213 128.4 96.0294 128.4 100C128.4 103.923 127.655 107.607 126.165 111.05C124.675 114.493 122.652 117.499 120.097 120.068C117.543 122.638 114.546 124.657 111.109 126.128C107.671 127.598 103.971 128.333 100.01 128.333Z" fill="#2E7D32"/>
<path d="M52.1758 220.938V238H48.6602L41.8047 226.562V238H38.2891V220.938H41.8047L48.6719 232.387V220.938H52.1758ZM54.4844 231.789V231.543C54.4844 230.613 54.6172 229.758 54.8828 228.977C55.1484 228.188 55.5352 227.504 56.043 226.926C56.5508 226.348 57.1758 225.898 57.918 225.578C58.6602 225.25 59.5117 225.086 60.4727 225.086C61.4336 225.086 62.2891 225.25 63.0391 225.578C63.7891 225.898 64.418 226.348 64.9258 226.926C65.4414 227.504 65.832 228.188 66.0977 228.977C66.3633 229.758 66.4961 230.613 66.4961 231.543V231.789C66.4961 232.711 66.3633 233.566 66.0977 234.355C65.832 235.137 65.4414 235.82 64.9258 236.406C64.418 236.984 63.793 237.434 63.0508 237.754C62.3086 238.074 61.457 238.234 60.4961 238.234C59.5352 238.234 58.6797 238.074 57.9297 237.754C57.1875 237.434 56.5586 236.984 56.043 236.406C55.5352 235.82 55.1484 235.137 54.8828 234.355C54.6172 233.566 54.4844 232.711 54.4844 231.789ZM57.8594 231.543V231.789C57.8594 232.32 57.9062 232.816 58 233.277C58.0938 233.738 58.2422 234.145 58.4453 234.496C58.6562 234.84 58.9297 235.109 59.2656 235.305C59.6016 235.5 60.0117 235.598 60.4961 235.598C60.9648 235.598 61.3672 235.5 61.7031 235.305C62.0391 235.109 62.3086 234.84 62.5117 234.496C62.7148 234.145 62.8633 233.738 62.957 233.277C63.0586 232.816 63.1094 232.32 63.1094 231.789V231.543C63.1094 231.027 63.0586 230.543 62.957 230.09C62.8633 229.629 62.7109 229.223 62.5 228.871C62.2969 228.512 62.0273 228.23 61.6914 228.027C61.3555 227.824 60.9492 227.723 60.4727 227.723C59.9961 227.723 59.5898 227.824 59.2539 228.027C58.9258 228.23 58.6562 228.512 58.4453 228.871C58.2422 229.223 58.0938 229.629 58 230.09C57.9062 230.543 57.8594 231.027 57.8594 231.543ZM88.7734 229.07V229.879C88.7734 231.176 88.5977 232.34 88.2461 233.371C87.8945 234.402 87.3984 235.281 86.7578 236.008C86.1172 236.727 85.3516 237.277 84.4609 237.66C83.5781 238.043 82.5977 238.234 81.5195 238.234C80.4492 238.234 79.4688 238.043 78.5781 237.66C77.6953 237.277 76.9297 236.727 76.2812 236.008C75.6328 235.281 75.1289 234.402 74.7695 233.371C74.418 232.34 74.2422 231.176 74.2422 229.879V229.07C74.2422 227.766 74.418 226.602 74.7695 225.578C75.1211 224.547 75.6172 223.668 76.2578 222.941C76.9062 222.215 77.6719 221.66 78.5547 221.277C79.4453 220.895 80.4258 220.703 81.4961 220.703C82.5742 220.703 83.5547 220.895 84.4375 221.277C85.3281 221.66 86.0938 222.215 86.7344 222.941C87.3828 223.668 87.8828 224.547 88.2344 225.578C88.5938 226.602 88.7734 227.766 88.7734 229.07ZM85.2227 229.879V229.047C85.2227 228.141 85.1406 227.344 84.9766 226.656C84.8125 225.969 84.5703 225.391 84.25 224.922C83.9297 224.453 83.5391 224.102 83.0781 223.867C82.6172 223.625 82.0898 223.504 81.4961 223.504C80.9023 223.504 80.375 223.625 79.9141 223.867C79.4609 224.102 79.0742 224.453 78.7539 224.922C78.4414 225.391 78.2031 225.969 78.0391 226.656C77.875 227.344 77.793 228.141 77.793 229.047V229.879C77.793 230.777 77.875 231.574 78.0391 232.27C78.2031 232.957 78.4453 233.539 78.7656 234.016C79.0859 234.484 79.4766 234.84 79.9375 235.082C80.3984 235.324 80.9258 235.445 81.5195 235.445C82.1133 235.445 82.6406 235.324 83.1016 235.082C83.5625 234.84 83.9492 234.484 84.2617 234.016C84.5742 233.539 84.8125 232.957 84.9766 232.27C85.1406 231.574 85.2227 230.777 85.2227 229.879ZM95.4062 235.539L98.2188 225.32H101.746L97.4688 238H95.3359L95.4062 235.539ZM93.4727 225.32L96.2969 235.551L96.3555 238H94.2109L89.9336 225.32H93.4727ZM108.93 238.234C107.945 238.234 107.062 238.078 106.281 237.766C105.5 237.445 104.836 237.004 104.289 236.441C103.75 235.879 103.336 235.227 103.047 234.484C102.758 233.734 102.613 232.938 102.613 232.094V231.625C102.613 230.664 102.75 229.785 103.023 228.988C103.297 228.191 103.688 227.5 104.195 226.914C104.711 226.328 105.336 225.879 106.07 225.566C106.805 225.246 107.633 225.086 108.555 225.086C109.453 225.086 110.25 225.234 110.945 225.531C111.641 225.828 112.223 226.25 112.691 226.797C113.168 227.344 113.527 228 113.77 228.766C114.012 229.523 114.133 230.367 114.133 231.297V232.703H104.055V230.453H110.816V230.195C110.816 229.727 110.73 229.309 110.559 228.941C110.395 228.566 110.145 228.27 109.809 228.051C109.473 227.832 109.043 227.723 108.52 227.723C108.074 227.723 107.691 227.82 107.371 228.016C107.051 228.211 106.789 228.484 106.586 228.836C106.391 229.188 106.242 229.602 106.141 230.078C106.047 230.547 106 231.062 106 231.625V232.094C106 232.602 106.07 233.07 106.211 233.5C106.359 233.93 106.566 234.301 106.832 234.613C107.105 234.926 107.434 235.168 107.816 235.34C108.207 235.512 108.648 235.598 109.141 235.598C109.75 235.598 110.316 235.48 110.84 235.246C111.371 235.004 111.828 234.641 112.211 234.156L113.852 235.938C113.586 236.32 113.223 236.688 112.762 237.039C112.309 237.391 111.762 237.68 111.121 237.906C110.48 238.125 109.75 238.234 108.93 238.234ZM119.43 228.086V238H116.055V225.32H119.23L119.43 228.086ZM123.25 225.238L123.191 228.367C123.027 228.344 122.828 228.324 122.594 228.309C122.367 228.285 122.16 228.273 121.973 228.273C121.496 228.273 121.082 228.336 120.73 228.461C120.387 228.578 120.098 228.754 119.863 228.988C119.637 229.223 119.465 229.508 119.348 229.844C119.238 230.18 119.176 230.562 119.16 230.992L118.48 230.781C118.48 229.961 118.562 229.207 118.727 228.52C118.891 227.824 119.129 227.219 119.441 226.703C119.762 226.188 120.152 225.789 120.613 225.508C121.074 225.227 121.602 225.086 122.195 225.086C122.383 225.086 122.574 225.102 122.77 225.133C122.965 225.156 123.125 225.191 123.25 225.238ZM132.098 235.234V220H135.496V238H132.438L132.098 235.234ZM124.082 231.812V231.566C124.082 230.598 124.191 229.719 124.41 228.93C124.629 228.133 124.949 227.449 125.371 226.879C125.793 226.309 126.312 225.867 126.93 225.555C127.547 225.242 128.25 225.086 129.039 225.086C129.781 225.086 130.43 225.242 130.984 225.555C131.547 225.867 132.023 226.312 132.414 226.891C132.812 227.461 133.133 228.137 133.375 228.918C133.617 229.691 133.793 230.539 133.902 231.461V232C133.793 232.883 133.617 233.703 133.375 234.461C133.133 235.219 132.812 235.883 132.414 236.453C132.023 237.016 131.547 237.453 130.984 237.766C130.422 238.078 129.766 238.234 129.016 238.234C128.227 238.234 127.523 238.074 126.906 237.754C126.297 237.434 125.781 236.984 125.359 236.406C124.945 235.828 124.629 235.148 124.41 234.367C124.191 233.586 124.082 232.734 124.082 231.812ZM127.457 231.566V231.812C127.457 232.336 127.496 232.824 127.574 233.277C127.66 233.73 127.797 234.133 127.984 234.484C128.18 234.828 128.43 235.098 128.734 235.293C129.047 235.48 129.426 235.574 129.871 235.574C130.449 235.574 130.926 235.445 131.301 235.188C131.676 234.922 131.961 234.559 132.156 234.098C132.359 233.637 132.477 233.105 132.508 232.504V230.969C132.484 230.477 132.414 230.035 132.297 229.645C132.188 229.246 132.023 228.906 131.805 228.625C131.594 228.344 131.328 228.125 131.008 227.969C130.695 227.812 130.324 227.734 129.895 227.734C129.457 227.734 129.082 227.836 128.77 228.039C128.457 228.234 128.203 228.504 128.008 228.848C127.82 229.191 127.68 229.598 127.586 230.066C127.5 230.527 127.457 231.027 127.457 231.566ZM145.633 234.965V225.32H149.008V238H145.832L145.633 234.965ZM146.008 232.363L147.004 232.34C147.004 233.184 146.906 233.969 146.711 234.695C146.516 235.414 146.223 236.039 145.832 236.57C145.441 237.094 144.949 237.504 144.355 237.801C143.762 238.09 143.062 238.234 142.258 238.234C141.641 238.234 141.07 238.148 140.547 237.977C140.031 237.797 139.586 237.52 139.211 237.145C138.844 236.762 138.555 236.273 138.344 235.68C138.141 235.078 138.039 234.355 138.039 233.512V225.32H141.414V233.535C141.414 233.91 141.457 234.227 141.543 234.484C141.637 234.742 141.766 234.953 141.93 235.117C142.094 235.281 142.285 235.398 142.504 235.469C142.73 235.539 142.98 235.574 143.254 235.574C143.949 235.574 144.496 235.434 144.895 235.152C145.301 234.871 145.586 234.488 145.75 234.004C145.922 233.512 146.008 232.965 146.008 232.363ZM157.422 238.234C156.438 238.234 155.555 238.078 154.773 237.766C153.992 237.445 153.328 237.004 152.781 236.441C152.242 235.879 151.828 235.227 151.539 234.484C151.25 233.734 151.105 232.938 151.105 232.094V231.625C151.105 230.664 151.242 229.785 151.516 228.988C151.789 228.191 152.18 227.5 152.688 226.914C153.203 226.328 153.828 225.879 154.562 225.566C155.297 225.246 156.125 225.086 157.047 225.086C157.945 225.086 158.742 225.234 159.438 225.531C160.133 225.828 160.715 226.25 161.184 226.797C161.66 227.344 162.02 228 162.262 228.766C162.504 229.523 162.625 230.367 162.625 231.297V232.703H152.547V230.453H159.309V230.195C159.309 229.727 159.223 229.309 159.051 228.941C158.887 228.566 158.637 228.27 158.301 228.051C157.965 227.832 157.535 227.723 157.012 227.723C156.566 227.723 156.184 227.82 155.863 228.016C155.543 228.211 155.281 228.484 155.078 228.836C154.883 229.188 154.734 229.602 154.633 230.078C154.539 230.547 154.492 231.062 154.492 231.625V232.094C154.492 232.602 154.562 233.07 154.703 233.5C154.852 233.93 155.059 234.301 155.324 234.613C155.598 234.926 155.926 235.168 156.309 235.34C156.699 235.512 157.141 235.598 157.633 235.598C158.242 235.598 158.809 235.48 159.332 235.246C159.863 235.004 160.32 234.641 160.703 234.156L162.344 235.938C162.078 236.32 161.715 236.688 161.254 237.039C160.801 237.391 160.254 237.68 159.613 237.906C158.973 238.125 158.242 238.234 157.422 238.234Z" fill="black" fill-opacity="0.6"/>
</svg>
