<svg width="1160" height="391" viewBox="0 0 1160 391" fill="none" xmlns="http://www.w3.org/2000/svg">
<rect width="1160" height="391" fill="white"/>
<rect x="480" y="40" width="200" height="200" rx="100" fill="#F5F5F5"/>
<path d="M566.667 155.2L570.4 159C570.667 159.267 570.978 159.4 571.333 159.4C571.689 159.4 572 159.267 572.267 159C572.533 158.733 572.667 158.411 572.667 158.033C572.667 157.656 572.533 157.333 572.267 157.067L568.533 153.333L572.333 149.533C572.6 149.267 572.733 148.956 572.733 148.6C572.733 148.244 572.6 147.933 572.333 147.667C572.067 147.4 571.756 147.267 571.4 147.267C571.044 147.267 570.733 147.4 570.467 147.667L566.667 151.467L562.867 147.667C562.6 147.4 562.289 147.267 561.933 147.267C561.578 147.267 561.267 147.4 561 147.667C560.733 147.933 560.6 148.244 560.6 148.6C560.6 148.956 560.733 149.267 561 149.533L564.8 153.333L561 157.133C560.733 157.4 560.6 157.711 560.6 158.067C560.6 158.422 560.733 158.733 561 159C561.267 159.267 561.578 159.4 561.933 159.4C562.289 159.4 562.6 159.267 562.867 159L566.667 155.2ZM566.667 166.667C562.978 166.667 559.833 165.367 557.233 162.767C554.633 160.167 553.333 157.022 553.333 153.333C553.333 149.644 554.633 146.5 557.233 143.9C559.833 141.3 562.978 140 566.667 140C570.356 140 573.5 141.3 576.1 143.9C578.7 146.5 580 149.644 580 153.333C580 157.022 578.7 160.167 576.1 162.767C573.5 165.367 570.356 166.667 566.667 166.667ZM585.867 146.933C585.333 146.356 584.767 145.767 584.167 145.167C583.567 144.567 582.978 144 582.4 143.467C584.089 142.4 585.444 140.978 586.467 139.2C587.489 137.422 588 135.467 588 133.333C588 130 586.833 127.167 584.5 124.833C582.167 122.5 579.333 121.333 576 121.333C572.667 121.333 569.833 122.5 567.5 124.833C565.167 127.167 564 130 564 133.333C564 133.6 564.011 133.856 564.033 134.1C564.056 134.344 564.089 134.6 564.133 134.867C563.333 134.956 562.456 135.133 561.5 135.4C560.544 135.667 559.689 135.978 558.933 136.333C558.844 135.844 558.778 135.356 558.733 134.867C558.689 134.378 558.667 133.867 558.667 133.333C558.667 128.489 560.344 124.389 563.7 121.033C567.056 117.678 571.156 116 576 116C580.844 116 584.944 117.678 588.3 121.033C591.656 124.389 593.333 128.489 593.333 133.333C593.333 135.244 593.033 137.056 592.433 138.767C591.833 140.478 591 142.044 589.933 143.467L604.8 158.4C605.289 158.889 605.544 159.5 605.567 160.233C605.589 160.967 605.333 161.6 604.8 162.133C604.311 162.622 603.689 162.867 602.933 162.867C602.178 162.867 601.556 162.622 601.067 162.133L585.867 146.933Z" fill="black" fill-opacity="0.38"/>
<path d="M505.844 284.938V302H502.328L495.473 290.562V302H491.957V284.938H495.473L502.34 296.387V284.938H505.844ZM508.152 295.789V295.543C508.152 294.613 508.285 293.758 508.551 292.977C508.816 292.188 509.203 291.504 509.711 290.926C510.219 290.348 510.844 289.898 511.586 289.578C512.328 289.25 513.18 289.086 514.141 289.086C515.102 289.086 515.957 289.25 516.707 289.578C517.457 289.898 518.086 290.348 518.594 290.926C519.109 291.504 519.5 292.188 519.766 292.977C520.031 293.758 520.164 294.613 520.164 295.543V295.789C520.164 296.711 520.031 297.566 519.766 298.355C519.5 299.137 519.109 299.82 518.594 300.406C518.086 300.984 517.461 301.434 516.719 301.754C515.977 302.074 515.125 302.234 514.164 302.234C513.203 302.234 512.348 302.074 511.598 301.754C510.855 301.434 510.227 300.984 509.711 300.406C509.203 299.82 508.816 299.137 508.551 298.355C508.285 297.566 508.152 296.711 508.152 295.789ZM511.527 295.543V295.789C511.527 296.32 511.574 296.816 511.668 297.277C511.762 297.738 511.91 298.145 512.113 298.496C512.324 298.84 512.598 299.109 512.934 299.305C513.27 299.5 513.68 299.598 514.164 299.598C514.633 299.598 515.035 299.5 515.371 299.305C515.707 299.109 515.977 298.84 516.18 298.496C516.383 298.145 516.531 297.738 516.625 297.277C516.727 296.816 516.777 296.32 516.777 295.789V295.543C516.777 295.027 516.727 294.543 516.625 294.09C516.531 293.629 516.379 293.223 516.168 292.871C515.965 292.512 515.695 292.23 515.359 292.027C515.023 291.824 514.617 291.723 514.141 291.723C513.664 291.723 513.258 291.824 512.922 292.027C512.594 292.23 512.324 292.512 512.113 292.871C511.91 293.223 511.762 293.629 511.668 294.09C511.574 294.543 511.527 295.027 511.527 295.543ZM531.59 292.086V302H528.215V289.32H531.391L531.59 292.086ZM535.41 289.238L535.352 292.367C535.188 292.344 534.988 292.324 534.754 292.309C534.527 292.285 534.32 292.273 534.133 292.273C533.656 292.273 533.242 292.336 532.891 292.461C532.547 292.578 532.258 292.754 532.023 292.988C531.797 293.223 531.625 293.508 531.508 293.844C531.398 294.18 531.336 294.562 531.32 294.992L530.641 294.781C530.641 293.961 530.723 293.207 530.887 292.52C531.051 291.824 531.289 291.219 531.602 290.703C531.922 290.188 532.312 289.789 532.773 289.508C533.234 289.227 533.762 289.086 534.355 289.086C534.543 289.086 534.734 289.102 534.93 289.133C535.125 289.156 535.285 289.191 535.41 289.238ZM542.605 302.234C541.621 302.234 540.738 302.078 539.957 301.766C539.176 301.445 538.512 301.004 537.965 300.441C537.426 299.879 537.012 299.227 536.723 298.484C536.434 297.734 536.289 296.938 536.289 296.094V295.625C536.289 294.664 536.426 293.785 536.699 292.988C536.973 292.191 537.363 291.5 537.871 290.914C538.387 290.328 539.012 289.879 539.746 289.566C540.48 289.246 541.309 289.086 542.23 289.086C543.129 289.086 543.926 289.234 544.621 289.531C545.316 289.828 545.898 290.25 546.367 290.797C546.844 291.344 547.203 292 547.445 292.766C547.688 293.523 547.809 294.367 547.809 295.297V296.703H537.73V294.453H544.492V294.195C544.492 293.727 544.406 293.309 544.234 292.941C544.07 292.566 543.82 292.27 543.484 292.051C543.148 291.832 542.719 291.723 542.195 291.723C541.75 291.723 541.367 291.82 541.047 292.016C540.727 292.211 540.465 292.484 540.262 292.836C540.066 293.188 539.918 293.602 539.816 294.078C539.723 294.547 539.676 295.062 539.676 295.625V296.094C539.676 296.602 539.746 297.07 539.887 297.5C540.035 297.93 540.242 298.301 540.508 298.613C540.781 298.926 541.109 299.168 541.492 299.34C541.883 299.512 542.324 299.598 542.816 299.598C543.426 299.598 543.992 299.48 544.516 299.246C545.047 299.004 545.504 298.641 545.887 298.156L547.527 299.938C547.262 300.32 546.898 300.688 546.438 301.039C545.984 301.391 545.438 301.68 544.797 301.906C544.156 302.125 543.426 302.234 542.605 302.234ZM556.586 298.496C556.586 298.254 556.516 298.035 556.375 297.84C556.234 297.645 555.973 297.465 555.59 297.301C555.215 297.129 554.672 296.973 553.961 296.832C553.32 296.691 552.723 296.516 552.168 296.305C551.621 296.086 551.145 295.824 550.738 295.52C550.34 295.215 550.027 294.855 549.801 294.441C549.574 294.02 549.461 293.539 549.461 293C549.461 292.469 549.574 291.969 549.801 291.5C550.035 291.031 550.367 290.617 550.797 290.258C551.234 289.891 551.766 289.605 552.391 289.402C553.023 289.191 553.734 289.086 554.523 289.086C555.625 289.086 556.57 289.262 557.359 289.613C558.156 289.965 558.766 290.449 559.188 291.066C559.617 291.676 559.832 292.371 559.832 293.152H556.457C556.457 292.824 556.387 292.531 556.246 292.273C556.113 292.008 555.902 291.801 555.613 291.652C555.332 291.496 554.965 291.418 554.512 291.418C554.137 291.418 553.812 291.484 553.539 291.617C553.266 291.742 553.055 291.914 552.906 292.133C552.766 292.344 552.695 292.578 552.695 292.836C552.695 293.031 552.734 293.207 552.812 293.363C552.898 293.512 553.035 293.648 553.223 293.773C553.41 293.898 553.652 294.016 553.949 294.125C554.254 294.227 554.629 294.32 555.074 294.406C555.988 294.594 556.805 294.84 557.523 295.145C558.242 295.441 558.812 295.848 559.234 296.363C559.656 296.871 559.867 297.539 559.867 298.367C559.867 298.93 559.742 299.445 559.492 299.914C559.242 300.383 558.883 300.793 558.414 301.145C557.945 301.488 557.383 301.758 556.727 301.953C556.078 302.141 555.348 302.234 554.535 302.234C553.355 302.234 552.355 302.023 551.535 301.602C550.723 301.18 550.105 300.645 549.684 299.996C549.27 299.34 549.062 298.668 549.062 297.98H552.262C552.277 298.441 552.395 298.812 552.613 299.094C552.84 299.375 553.125 299.578 553.469 299.703C553.82 299.828 554.199 299.891 554.605 299.891C555.043 299.891 555.406 299.832 555.695 299.715C555.984 299.59 556.203 299.426 556.352 299.223C556.508 299.012 556.586 298.77 556.586 298.496ZM569.559 298.965V289.32H572.934V302H569.758L569.559 298.965ZM569.934 296.363L570.93 296.34C570.93 297.184 570.832 297.969 570.637 298.695C570.441 299.414 570.148 300.039 569.758 300.57C569.367 301.094 568.875 301.504 568.281 301.801C567.688 302.09 566.988 302.234 566.184 302.234C565.566 302.234 564.996 302.148 564.473 301.977C563.957 301.797 563.512 301.52 563.137 301.145C562.77 300.762 562.48 300.273 562.27 299.68C562.066 299.078 561.965 298.355 561.965 297.512V289.32H565.34V297.535C565.34 297.91 565.383 298.227 565.469 298.484C565.562 298.742 565.691 298.953 565.855 299.117C566.02 299.281 566.211 299.398 566.43 299.469C566.656 299.539 566.906 299.574 567.18 299.574C567.875 299.574 568.422 299.434 568.82 299.152C569.227 298.871 569.512 298.488 569.676 298.004C569.848 297.512 569.934 296.965 569.934 296.363ZM579.074 284V302H575.688V284H579.074ZM588.074 289.32V291.711H580.691V289.32H588.074ZM582.52 286.191H585.895V298.18C585.895 298.547 585.941 298.828 586.035 299.023C586.137 299.219 586.285 299.355 586.48 299.434C586.676 299.504 586.922 299.539 587.219 299.539C587.43 299.539 587.617 299.531 587.781 299.516C587.953 299.492 588.098 299.469 588.215 299.445L588.227 301.93C587.938 302.023 587.625 302.098 587.289 302.152C586.953 302.207 586.582 302.234 586.176 302.234C585.434 302.234 584.785 302.113 584.23 301.871C583.684 301.621 583.262 301.223 582.965 300.676C582.668 300.129 582.52 299.41 582.52 298.52V286.191ZM596.852 298.496C596.852 298.254 596.781 298.035 596.641 297.84C596.5 297.645 596.238 297.465 595.855 297.301C595.48 297.129 594.938 296.973 594.227 296.832C593.586 296.691 592.988 296.516 592.434 296.305C591.887 296.086 591.41 295.824 591.004 295.52C590.605 295.215 590.293 294.855 590.066 294.441C589.84 294.02 589.727 293.539 589.727 293C589.727 292.469 589.84 291.969 590.066 291.5C590.301 291.031 590.633 290.617 591.062 290.258C591.5 289.891 592.031 289.605 592.656 289.402C593.289 289.191 594 289.086 594.789 289.086C595.891 289.086 596.836 289.262 597.625 289.613C598.422 289.965 599.031 290.449 599.453 291.066C599.883 291.676 600.098 292.371 600.098 293.152H596.723C596.723 292.824 596.652 292.531 596.512 292.273C596.379 292.008 596.168 291.801 595.879 291.652C595.598 291.496 595.23 291.418 594.777 291.418C594.402 291.418 594.078 291.484 593.805 291.617C593.531 291.742 593.32 291.914 593.172 292.133C593.031 292.344 592.961 292.578 592.961 292.836C592.961 293.031 593 293.207 593.078 293.363C593.164 293.512 593.301 293.648 593.488 293.773C593.676 293.898 593.918 294.016 594.215 294.125C594.52 294.227 594.895 294.32 595.34 294.406C596.254 294.594 597.07 294.84 597.789 295.145C598.508 295.441 599.078 295.848 599.5 296.363C599.922 296.871 600.133 297.539 600.133 298.367C600.133 298.93 600.008 299.445 599.758 299.914C599.508 300.383 599.148 300.793 598.68 301.145C598.211 301.488 597.648 301.758 596.992 301.953C596.344 302.141 595.613 302.234 594.801 302.234C593.621 302.234 592.621 302.023 591.801 301.602C590.988 301.18 590.371 300.645 589.949 299.996C589.535 299.34 589.328 298.668 589.328 297.98H592.527C592.543 298.441 592.66 298.812 592.879 299.094C593.105 299.375 593.391 299.578 593.734 299.703C594.086 299.828 594.465 299.891 594.871 299.891C595.309 299.891 595.672 299.832 595.961 299.715C596.25 299.59 596.469 299.426 596.617 299.223C596.773 299.012 596.852 298.77 596.852 298.496ZM612.602 302H609.203V288.195C609.203 287.234 609.391 286.426 609.766 285.77C610.148 285.105 610.684 284.605 611.371 284.27C612.066 283.926 612.891 283.754 613.844 283.754C614.156 283.754 614.457 283.777 614.746 283.824C615.035 283.863 615.316 283.914 615.59 283.977L615.555 286.52C615.406 286.48 615.25 286.453 615.086 286.438C614.922 286.422 614.73 286.414 614.512 286.414C614.105 286.414 613.758 286.484 613.469 286.625C613.188 286.758 612.973 286.957 612.824 287.223C612.676 287.488 612.602 287.812 612.602 288.195V302ZM615.133 289.32V291.711H607.316V289.32H615.133ZM616.363 295.789V295.543C616.363 294.613 616.496 293.758 616.762 292.977C617.027 292.188 617.414 291.504 617.922 290.926C618.43 290.348 619.055 289.898 619.797 289.578C620.539 289.25 621.391 289.086 622.352 289.086C623.312 289.086 624.168 289.25 624.918 289.578C625.668 289.898 626.297 290.348 626.805 290.926C627.32 291.504 627.711 292.188 627.977 292.977C628.242 293.758 628.375 294.613 628.375 295.543V295.789C628.375 296.711 628.242 297.566 627.977 298.355C627.711 299.137 627.32 299.82 626.805 300.406C626.297 300.984 625.672 301.434 624.93 301.754C624.188 302.074 623.336 302.234 622.375 302.234C621.414 302.234 620.559 302.074 619.809 301.754C619.066 301.434 618.438 300.984 617.922 300.406C617.414 299.82 617.027 299.137 616.762 298.355C616.496 297.566 616.363 296.711 616.363 295.789ZM619.738 295.543V295.789C619.738 296.32 619.785 296.816 619.879 297.277C619.973 297.738 620.121 298.145 620.324 298.496C620.535 298.84 620.809 299.109 621.145 299.305C621.48 299.5 621.891 299.598 622.375 299.598C622.844 299.598 623.246 299.5 623.582 299.305C623.918 299.109 624.188 298.84 624.391 298.496C624.594 298.145 624.742 297.738 624.836 297.277C624.938 296.816 624.988 296.32 624.988 295.789V295.543C624.988 295.027 624.938 294.543 624.836 294.09C624.742 293.629 624.59 293.223 624.379 292.871C624.176 292.512 623.906 292.23 623.57 292.027C623.234 291.824 622.828 291.723 622.352 291.723C621.875 291.723 621.469 291.824 621.133 292.027C620.805 292.23 620.535 292.512 620.324 292.871C620.121 293.223 619.973 293.629 619.879 294.09C619.785 294.543 619.738 295.027 619.738 295.543ZM637.949 298.965V289.32H641.324V302H638.148L637.949 298.965ZM638.324 296.363L639.32 296.34C639.32 297.184 639.223 297.969 639.027 298.695C638.832 299.414 638.539 300.039 638.148 300.57C637.758 301.094 637.266 301.504 636.672 301.801C636.078 302.09 635.379 302.234 634.574 302.234C633.957 302.234 633.387 302.148 632.863 301.977C632.348 301.797 631.902 301.52 631.527 301.145C631.16 300.762 630.871 300.273 630.66 299.68C630.457 299.078 630.355 298.355 630.355 297.512V289.32H633.73V297.535C633.73 297.91 633.773 298.227 633.859 298.484C633.953 298.742 634.082 298.953 634.246 299.117C634.41 299.281 634.602 299.398 634.82 299.469C635.047 299.539 635.297 299.574 635.57 299.574C636.266 299.574 636.812 299.434 637.211 299.152C637.617 298.871 637.902 298.488 638.066 298.004C638.238 297.512 638.324 296.965 638.324 296.363ZM647.207 292.027V302H643.832V289.32H646.996L647.207 292.027ZM646.715 295.215H645.801C645.801 294.277 645.922 293.434 646.164 292.684C646.406 291.926 646.746 291.281 647.184 290.75C647.621 290.211 648.141 289.801 648.742 289.52C649.352 289.23 650.031 289.086 650.781 289.086C651.375 289.086 651.918 289.172 652.41 289.344C652.902 289.516 653.324 289.789 653.676 290.164C654.035 290.539 654.309 291.035 654.496 291.652C654.691 292.27 654.789 293.023 654.789 293.914V302H651.391V293.902C651.391 293.34 651.312 292.902 651.156 292.59C651 292.277 650.77 292.059 650.465 291.934C650.168 291.801 649.801 291.734 649.363 291.734C648.91 291.734 648.516 291.824 648.18 292.004C647.852 292.184 647.578 292.434 647.359 292.754C647.148 293.066 646.988 293.434 646.879 293.855C646.77 294.277 646.715 294.73 646.715 295.215ZM664.844 299.234V284H668.242V302H665.184L664.844 299.234ZM656.828 295.812V295.566C656.828 294.598 656.938 293.719 657.156 292.93C657.375 292.133 657.695 291.449 658.117 290.879C658.539 290.309 659.059 289.867 659.676 289.555C660.293 289.242 660.996 289.086 661.785 289.086C662.527 289.086 663.176 289.242 663.73 289.555C664.293 289.867 664.77 290.312 665.16 290.891C665.559 291.461 665.879 292.137 666.121 292.918C666.363 293.691 666.539 294.539 666.648 295.461V296C666.539 296.883 666.363 297.703 666.121 298.461C665.879 299.219 665.559 299.883 665.16 300.453C664.77 301.016 664.293 301.453 663.73 301.766C663.168 302.078 662.512 302.234 661.762 302.234C660.973 302.234 660.27 302.074 659.652 301.754C659.043 301.434 658.527 300.984 658.105 300.406C657.691 299.828 657.375 299.148 657.156 298.367C656.938 297.586 656.828 296.734 656.828 295.812ZM660.203 295.566V295.812C660.203 296.336 660.242 296.824 660.32 297.277C660.406 297.73 660.543 298.133 660.73 298.484C660.926 298.828 661.176 299.098 661.48 299.293C661.793 299.48 662.172 299.574 662.617 299.574C663.195 299.574 663.672 299.445 664.047 299.188C664.422 298.922 664.707 298.559 664.902 298.098C665.105 297.637 665.223 297.105 665.254 296.504V294.969C665.23 294.477 665.16 294.035 665.043 293.645C664.934 293.246 664.77 292.906 664.551 292.625C664.34 292.344 664.074 292.125 663.754 291.969C663.441 291.812 663.07 291.734 662.641 291.734C662.203 291.734 661.828 291.836 661.516 292.039C661.203 292.234 660.949 292.504 660.754 292.848C660.566 293.191 660.426 293.598 660.332 294.066C660.246 294.527 660.203 295.027 660.203 295.566Z" fill="black" fill-opacity="0.6"/>
<path d="M420.617 335.625V347H419.133V335.625H420.617ZM424.273 335.625V336.859H415.484V335.625H424.273ZM426.594 339.875V347H425.148V338.547H426.555L426.594 339.875ZM429.234 338.5L429.227 339.844C429.107 339.818 428.992 339.802 428.883 339.797C428.779 339.786 428.659 339.781 428.523 339.781C428.19 339.781 427.896 339.833 427.641 339.938C427.385 340.042 427.169 340.188 426.992 340.375C426.815 340.562 426.674 340.786 426.57 341.047C426.471 341.302 426.406 341.583 426.375 341.891L425.969 342.125C425.969 341.615 426.018 341.135 426.117 340.688C426.221 340.24 426.38 339.844 426.594 339.5C426.807 339.151 427.078 338.88 427.406 338.688C427.74 338.49 428.135 338.391 428.594 338.391C428.698 338.391 428.818 338.404 428.953 338.43C429.089 338.451 429.182 338.474 429.234 338.5ZM433.086 346.125L435.438 338.547H436.984L433.594 348.305C433.516 348.513 433.411 348.737 433.281 348.977C433.156 349.221 432.995 349.453 432.797 349.672C432.599 349.891 432.359 350.068 432.078 350.203C431.802 350.344 431.471 350.414 431.086 350.414C430.971 350.414 430.826 350.398 430.648 350.367C430.471 350.336 430.346 350.31 430.273 350.289L430.266 349.117C430.307 349.122 430.372 349.128 430.461 349.133C430.555 349.143 430.62 349.148 430.656 349.148C430.984 349.148 431.263 349.104 431.492 349.016C431.721 348.932 431.914 348.789 432.07 348.586C432.232 348.388 432.37 348.115 432.484 347.766L433.086 346.125ZM431.359 338.547L433.555 345.109L433.93 346.633L432.891 347.164L429.781 338.547H431.359ZM447.586 345.359V335H449.039V347H447.711L447.586 345.359ZM441.898 342.867V342.703C441.898 342.057 441.977 341.471 442.133 340.945C442.294 340.414 442.521 339.958 442.812 339.578C443.109 339.198 443.461 338.906 443.867 338.703C444.279 338.495 444.737 338.391 445.242 338.391C445.773 338.391 446.237 338.484 446.633 338.672C447.034 338.854 447.372 339.122 447.648 339.477C447.93 339.826 448.151 340.247 448.312 340.742C448.474 341.237 448.586 341.797 448.648 342.422V343.141C448.591 343.76 448.479 344.318 448.312 344.812C448.151 345.307 447.93 345.729 447.648 346.078C447.372 346.427 447.034 346.695 446.633 346.883C446.232 347.065 445.763 347.156 445.227 347.156C444.732 347.156 444.279 347.049 443.867 346.836C443.461 346.622 443.109 346.323 442.812 345.938C442.521 345.552 442.294 345.099 442.133 344.578C441.977 344.052 441.898 343.482 441.898 342.867ZM443.352 342.703V342.867C443.352 343.289 443.393 343.685 443.477 344.055C443.565 344.424 443.701 344.75 443.883 345.031C444.065 345.312 444.297 345.534 444.578 345.695C444.859 345.852 445.195 345.93 445.586 345.93C446.065 345.93 446.458 345.828 446.766 345.625C447.078 345.422 447.328 345.154 447.516 344.82C447.703 344.487 447.849 344.125 447.953 343.734V341.852C447.891 341.565 447.799 341.289 447.68 341.023C447.565 340.753 447.414 340.513 447.227 340.305C447.044 340.091 446.818 339.922 446.547 339.797C446.281 339.672 445.966 339.609 445.602 339.609C445.206 339.609 444.865 339.693 444.578 339.859C444.297 340.021 444.065 340.245 443.883 340.531C443.701 340.812 443.565 341.141 443.477 341.516C443.393 341.885 443.352 342.281 443.352 342.703ZM452.859 338.547V347H451.406V338.547H452.859ZM451.297 336.305C451.297 336.07 451.367 335.872 451.508 335.711C451.654 335.549 451.867 335.469 452.148 335.469C452.424 335.469 452.635 335.549 452.781 335.711C452.932 335.872 453.008 336.07 453.008 336.305C453.008 336.529 452.932 336.721 452.781 336.883C452.635 337.039 452.424 337.117 452.148 337.117C451.867 337.117 451.654 337.039 451.508 336.883C451.367 336.721 451.297 336.529 451.297 336.305ZM457.336 347H455.891V337.656C455.891 337.047 456 336.534 456.219 336.117C456.443 335.695 456.763 335.378 457.18 335.164C457.596 334.945 458.091 334.836 458.664 334.836C458.831 334.836 458.997 334.846 459.164 334.867C459.336 334.888 459.503 334.919 459.664 334.961L459.586 336.141C459.477 336.115 459.352 336.096 459.211 336.086C459.076 336.076 458.94 336.07 458.805 336.07C458.497 336.07 458.232 336.133 458.008 336.258C457.789 336.378 457.622 336.555 457.508 336.789C457.393 337.023 457.336 337.312 457.336 337.656V347ZM459.133 338.547V339.656H454.555V338.547H459.133ZM462.898 347H461.453V337.656C461.453 337.047 461.562 336.534 461.781 336.117C462.005 335.695 462.326 335.378 462.742 335.164C463.159 334.945 463.654 334.836 464.227 334.836C464.393 334.836 464.56 334.846 464.727 334.867C464.898 334.888 465.065 334.919 465.227 334.961L465.148 336.141C465.039 336.115 464.914 336.096 464.773 336.086C464.638 336.076 464.503 336.07 464.367 336.07C464.06 336.07 463.794 336.133 463.57 336.258C463.352 336.378 463.185 336.555 463.07 336.789C462.956 337.023 462.898 337.312 462.898 337.656V347ZM464.695 338.547V339.656H460.117V338.547H464.695ZM469.625 347.156C469.036 347.156 468.503 347.057 468.023 346.859C467.549 346.656 467.141 346.372 466.797 346.008C466.458 345.643 466.198 345.211 466.016 344.711C465.833 344.211 465.742 343.664 465.742 343.07V342.742C465.742 342.055 465.844 341.443 466.047 340.906C466.25 340.365 466.526 339.906 466.875 339.531C467.224 339.156 467.62 338.872 468.062 338.68C468.505 338.487 468.964 338.391 469.438 338.391C470.042 338.391 470.562 338.495 471 338.703C471.443 338.911 471.805 339.203 472.086 339.578C472.367 339.948 472.576 340.385 472.711 340.891C472.846 341.391 472.914 341.938 472.914 342.531V343.18H466.602V342H471.469V341.891C471.448 341.516 471.37 341.151 471.234 340.797C471.104 340.443 470.896 340.151 470.609 339.922C470.323 339.693 469.932 339.578 469.438 339.578C469.109 339.578 468.807 339.648 468.531 339.789C468.255 339.924 468.018 340.128 467.82 340.398C467.622 340.669 467.469 341 467.359 341.391C467.25 341.781 467.195 342.232 467.195 342.742V343.07C467.195 343.471 467.25 343.849 467.359 344.203C467.474 344.552 467.638 344.859 467.852 345.125C468.07 345.391 468.333 345.599 468.641 345.75C468.953 345.901 469.307 345.977 469.703 345.977C470.214 345.977 470.646 345.872 471 345.664C471.354 345.456 471.664 345.177 471.93 344.828L472.805 345.523C472.622 345.799 472.391 346.062 472.109 346.312C471.828 346.562 471.482 346.766 471.07 346.922C470.664 347.078 470.182 347.156 469.625 347.156ZM476.047 339.875V347H474.602V338.547H476.008L476.047 339.875ZM478.688 338.5L478.68 339.844C478.56 339.818 478.445 339.802 478.336 339.797C478.232 339.786 478.112 339.781 477.977 339.781C477.643 339.781 477.349 339.833 477.094 339.938C476.839 340.042 476.622 340.188 476.445 340.375C476.268 340.562 476.128 340.786 476.023 341.047C475.924 341.302 475.859 341.583 475.828 341.891L475.422 342.125C475.422 341.615 475.471 341.135 475.57 340.688C475.674 340.24 475.833 339.844 476.047 339.5C476.26 339.151 476.531 338.88 476.859 338.688C477.193 338.49 477.589 338.391 478.047 338.391C478.151 338.391 478.271 338.404 478.406 338.43C478.542 338.451 478.635 338.474 478.688 338.5ZM483.375 347.156C482.786 347.156 482.253 347.057 481.773 346.859C481.299 346.656 480.891 346.372 480.547 346.008C480.208 345.643 479.948 345.211 479.766 344.711C479.583 344.211 479.492 343.664 479.492 343.07V342.742C479.492 342.055 479.594 341.443 479.797 340.906C480 340.365 480.276 339.906 480.625 339.531C480.974 339.156 481.37 338.872 481.812 338.68C482.255 338.487 482.714 338.391 483.188 338.391C483.792 338.391 484.312 338.495 484.75 338.703C485.193 338.911 485.555 339.203 485.836 339.578C486.117 339.948 486.326 340.385 486.461 340.891C486.596 341.391 486.664 341.938 486.664 342.531V343.18H480.352V342H485.219V341.891C485.198 341.516 485.12 341.151 484.984 340.797C484.854 340.443 484.646 340.151 484.359 339.922C484.073 339.693 483.682 339.578 483.188 339.578C482.859 339.578 482.557 339.648 482.281 339.789C482.005 339.924 481.768 340.128 481.57 340.398C481.372 340.669 481.219 341 481.109 341.391C481 341.781 480.945 342.232 480.945 342.742V343.07C480.945 343.471 481 343.849 481.109 344.203C481.224 344.552 481.388 344.859 481.602 345.125C481.82 345.391 482.083 345.599 482.391 345.75C482.703 345.901 483.057 345.977 483.453 345.977C483.964 345.977 484.396 345.872 484.75 345.664C485.104 345.456 485.414 345.177 485.68 344.828L486.555 345.523C486.372 345.799 486.141 346.062 485.859 346.312C485.578 346.562 485.232 346.766 484.82 346.922C484.414 347.078 483.932 347.156 483.375 347.156ZM489.797 340.352V347H488.352V338.547H489.719L489.797 340.352ZM489.453 342.453L488.852 342.43C488.857 341.852 488.943 341.318 489.109 340.828C489.276 340.333 489.51 339.904 489.812 339.539C490.115 339.174 490.474 338.893 490.891 338.695C491.312 338.492 491.779 338.391 492.289 338.391C492.706 338.391 493.081 338.448 493.414 338.562C493.747 338.672 494.031 338.849 494.266 339.094C494.505 339.339 494.688 339.656 494.812 340.047C494.938 340.432 495 340.904 495 341.461V347H493.547V341.445C493.547 341.003 493.482 340.648 493.352 340.383C493.221 340.112 493.031 339.917 492.781 339.797C492.531 339.672 492.224 339.609 491.859 339.609C491.5 339.609 491.172 339.685 490.875 339.836C490.583 339.987 490.331 340.195 490.117 340.461C489.909 340.727 489.745 341.031 489.625 341.375C489.51 341.714 489.453 342.073 489.453 342.453ZM500.734 338.547V339.656H496.164V338.547H500.734ZM497.711 336.492H499.156V344.906C499.156 345.193 499.201 345.409 499.289 345.555C499.378 345.701 499.492 345.797 499.633 345.844C499.773 345.891 499.924 345.914 500.086 345.914C500.206 345.914 500.331 345.904 500.461 345.883C500.596 345.857 500.698 345.836 500.766 345.82L500.773 347C500.659 347.036 500.508 347.07 500.32 347.102C500.138 347.138 499.917 347.156 499.656 347.156C499.302 347.156 498.977 347.086 498.68 346.945C498.383 346.805 498.146 346.57 497.969 346.242C497.797 345.909 497.711 345.461 497.711 344.898V336.492ZM507.852 335V347H506.398V335H507.852ZM513.016 338.547L509.328 342.492L507.266 344.633L507.148 343.094L508.625 341.328L511.25 338.547H513.016ZM511.695 347L508.68 342.969L509.43 341.68L513.398 347H511.695ZM517.859 347.156C517.271 347.156 516.737 347.057 516.258 346.859C515.784 346.656 515.375 346.372 515.031 346.008C514.693 345.643 514.432 345.211 514.25 344.711C514.068 344.211 513.977 343.664 513.977 343.07V342.742C513.977 342.055 514.078 341.443 514.281 340.906C514.484 340.365 514.76 339.906 515.109 339.531C515.458 339.156 515.854 338.872 516.297 338.68C516.74 338.487 517.198 338.391 517.672 338.391C518.276 338.391 518.797 338.495 519.234 338.703C519.677 338.911 520.039 339.203 520.32 339.578C520.602 339.948 520.81 340.385 520.945 340.891C521.081 341.391 521.148 341.938 521.148 342.531V343.18H514.836V342H519.703V341.891C519.682 341.516 519.604 341.151 519.469 340.797C519.339 340.443 519.13 340.151 518.844 339.922C518.557 339.693 518.167 339.578 517.672 339.578C517.344 339.578 517.042 339.648 516.766 339.789C516.49 339.924 516.253 340.128 516.055 340.398C515.857 340.669 515.703 341 515.594 341.391C515.484 341.781 515.43 342.232 515.43 342.742V343.07C515.43 343.471 515.484 343.849 515.594 344.203C515.708 344.552 515.872 344.859 516.086 345.125C516.305 345.391 516.568 345.599 516.875 345.75C517.188 345.901 517.542 345.977 517.938 345.977C518.448 345.977 518.88 345.872 519.234 345.664C519.589 345.456 519.898 345.177 520.164 344.828L521.039 345.523C520.857 345.799 520.625 346.062 520.344 346.312C520.062 346.562 519.716 346.766 519.305 346.922C518.898 347.078 518.417 347.156 517.859 347.156ZM525.102 346.125L527.453 338.547H529L525.609 348.305C525.531 348.513 525.427 348.737 525.297 348.977C525.172 349.221 525.01 349.453 524.812 349.672C524.615 349.891 524.375 350.068 524.094 350.203C523.818 350.344 523.487 350.414 523.102 350.414C522.987 350.414 522.841 350.398 522.664 350.367C522.487 350.336 522.362 350.31 522.289 350.289L522.281 349.117C522.323 349.122 522.388 349.128 522.477 349.133C522.57 349.143 522.635 349.148 522.672 349.148C523 349.148 523.279 349.104 523.508 349.016C523.737 348.932 523.93 348.789 524.086 348.586C524.247 348.388 524.385 348.115 524.5 347.766L525.102 346.125ZM523.375 338.547L525.57 345.109L525.945 346.633L524.906 347.164L521.797 338.547H523.375ZM532.445 345.5L534.617 338.547H535.57L535.383 339.93L533.172 347H532.242L532.445 345.5ZM530.984 338.547L532.836 345.578L532.969 347H531.992L529.539 338.547H530.984ZM537.648 345.523L539.414 338.547H540.852L538.398 347H537.43L537.648 345.523ZM535.781 338.547L537.906 345.383L538.148 347H537.227L534.953 339.914L534.766 338.547H535.781ZM541.953 342.867V342.688C541.953 342.078 542.042 341.513 542.219 340.992C542.396 340.466 542.651 340.01 542.984 339.625C543.318 339.234 543.721 338.932 544.195 338.719C544.669 338.5 545.201 338.391 545.789 338.391C546.383 338.391 546.917 338.5 547.391 338.719C547.87 338.932 548.276 339.234 548.609 339.625C548.948 340.01 549.206 340.466 549.383 340.992C549.56 341.513 549.648 342.078 549.648 342.688V342.867C549.648 343.477 549.56 344.042 549.383 344.562C549.206 345.083 548.948 345.539 548.609 345.93C548.276 346.315 547.872 346.617 547.398 346.836C546.93 347.049 546.398 347.156 545.805 347.156C545.211 347.156 544.677 347.049 544.203 346.836C543.729 346.617 543.323 346.315 542.984 345.93C542.651 345.539 542.396 345.083 542.219 344.562C542.042 344.042 541.953 343.477 541.953 342.867ZM543.398 342.688V342.867C543.398 343.289 543.448 343.688 543.547 344.062C543.646 344.432 543.794 344.76 543.992 345.047C544.195 345.333 544.448 345.56 544.75 345.727C545.052 345.888 545.404 345.969 545.805 345.969C546.201 345.969 546.547 345.888 546.844 345.727C547.146 345.56 547.396 345.333 547.594 345.047C547.792 344.76 547.94 344.432 548.039 344.062C548.143 343.688 548.195 343.289 548.195 342.867V342.688C548.195 342.271 548.143 341.878 548.039 341.508C547.94 341.133 547.789 340.802 547.586 340.516C547.388 340.224 547.138 339.995 546.836 339.828C546.539 339.661 546.19 339.578 545.789 339.578C545.393 339.578 545.044 339.661 544.742 339.828C544.445 339.995 544.195 340.224 543.992 340.516C543.794 340.802 543.646 341.133 543.547 341.508C543.448 341.878 543.398 342.271 543.398 342.688ZM552.906 339.875V347H551.461V338.547H552.867L552.906 339.875ZM555.547 338.5L555.539 339.844C555.419 339.818 555.305 339.802 555.195 339.797C555.091 339.786 554.971 339.781 554.836 339.781C554.503 339.781 554.208 339.833 553.953 339.938C553.698 340.042 553.482 340.188 553.305 340.375C553.128 340.562 552.987 340.786 552.883 341.047C552.784 341.302 552.719 341.583 552.688 341.891L552.281 342.125C552.281 341.615 552.331 341.135 552.43 340.688C552.534 340.24 552.693 339.844 552.906 339.5C553.12 339.151 553.391 338.88 553.719 338.688C554.052 338.49 554.448 338.391 554.906 338.391C555.01 338.391 555.13 338.404 555.266 338.43C555.401 338.451 555.495 338.474 555.547 338.5ZM562.055 345.359V335H563.508V347H562.18L562.055 345.359ZM556.367 342.867V342.703C556.367 342.057 556.445 341.471 556.602 340.945C556.763 340.414 556.99 339.958 557.281 339.578C557.578 339.198 557.93 338.906 558.336 338.703C558.747 338.495 559.206 338.391 559.711 338.391C560.242 338.391 560.706 338.484 561.102 338.672C561.503 338.854 561.841 339.122 562.117 339.477C562.398 339.826 562.62 340.247 562.781 340.742C562.943 341.237 563.055 341.797 563.117 342.422V343.141C563.06 343.76 562.948 344.318 562.781 344.812C562.62 345.307 562.398 345.729 562.117 346.078C561.841 346.427 561.503 346.695 561.102 346.883C560.701 347.065 560.232 347.156 559.695 347.156C559.201 347.156 558.747 347.049 558.336 346.836C557.93 346.622 557.578 346.323 557.281 345.938C556.99 345.552 556.763 345.099 556.602 344.578C556.445 344.052 556.367 343.482 556.367 342.867ZM557.82 342.703V342.867C557.82 343.289 557.862 343.685 557.945 344.055C558.034 344.424 558.169 344.75 558.352 345.031C558.534 345.312 558.766 345.534 559.047 345.695C559.328 345.852 559.664 345.93 560.055 345.93C560.534 345.93 560.927 345.828 561.234 345.625C561.547 345.422 561.797 345.154 561.984 344.82C562.172 344.487 562.318 344.125 562.422 343.734V341.852C562.359 341.565 562.268 341.289 562.148 341.023C562.034 340.753 561.883 340.513 561.695 340.305C561.513 340.091 561.286 339.922 561.016 339.797C560.75 339.672 560.435 339.609 560.07 339.609C559.674 339.609 559.333 339.693 559.047 339.859C558.766 340.021 558.534 340.245 558.352 340.531C558.169 340.812 558.034 341.141 557.945 341.516C557.862 341.885 557.82 342.281 557.82 342.703ZM570.68 344.758C570.68 344.549 570.633 344.357 570.539 344.18C570.451 343.997 570.266 343.833 569.984 343.688C569.708 343.536 569.292 343.406 568.734 343.297C568.266 343.198 567.841 343.081 567.461 342.945C567.086 342.81 566.766 342.646 566.5 342.453C566.24 342.26 566.039 342.034 565.898 341.773C565.758 341.513 565.688 341.208 565.688 340.859C565.688 340.526 565.76 340.211 565.906 339.914C566.057 339.617 566.268 339.354 566.539 339.125C566.815 338.896 567.146 338.716 567.531 338.586C567.917 338.456 568.346 338.391 568.82 338.391C569.497 338.391 570.076 338.51 570.555 338.75C571.034 338.99 571.401 339.31 571.656 339.711C571.911 340.107 572.039 340.547 572.039 341.031H570.594C570.594 340.797 570.523 340.57 570.383 340.352C570.247 340.128 570.047 339.943 569.781 339.797C569.521 339.651 569.201 339.578 568.82 339.578C568.419 339.578 568.094 339.641 567.844 339.766C567.599 339.885 567.419 340.039 567.305 340.227C567.195 340.414 567.141 340.612 567.141 340.82C567.141 340.977 567.167 341.117 567.219 341.242C567.276 341.362 567.375 341.474 567.516 341.578C567.656 341.677 567.854 341.771 568.109 341.859C568.365 341.948 568.69 342.036 569.086 342.125C569.779 342.281 570.349 342.469 570.797 342.688C571.245 342.906 571.578 343.174 571.797 343.492C572.016 343.81 572.125 344.195 572.125 344.648C572.125 345.018 572.047 345.357 571.891 345.664C571.74 345.971 571.518 346.237 571.227 346.461C570.94 346.68 570.596 346.852 570.195 346.977C569.799 347.096 569.354 347.156 568.859 347.156C568.115 347.156 567.484 347.023 566.969 346.758C566.453 346.492 566.062 346.148 565.797 345.727C565.531 345.305 565.398 344.859 565.398 344.391H566.852C566.872 344.786 566.987 345.102 567.195 345.336C567.404 345.565 567.659 345.729 567.961 345.828C568.263 345.922 568.562 345.969 568.859 345.969C569.255 345.969 569.586 345.917 569.852 345.812C570.122 345.708 570.328 345.565 570.469 345.383C570.609 345.201 570.68 344.992 570.68 344.758ZM577.609 342.867V342.688C577.609 342.078 577.698 341.513 577.875 340.992C578.052 340.466 578.307 340.01 578.641 339.625C578.974 339.234 579.378 338.932 579.852 338.719C580.326 338.5 580.857 338.391 581.445 338.391C582.039 338.391 582.573 338.5 583.047 338.719C583.526 338.932 583.932 339.234 584.266 339.625C584.604 340.01 584.862 340.466 585.039 340.992C585.216 341.513 585.305 342.078 585.305 342.688V342.867C585.305 343.477 585.216 344.042 585.039 344.562C584.862 345.083 584.604 345.539 584.266 345.93C583.932 346.315 583.529 346.617 583.055 346.836C582.586 347.049 582.055 347.156 581.461 347.156C580.867 347.156 580.333 347.049 579.859 346.836C579.385 346.617 578.979 346.315 578.641 345.93C578.307 345.539 578.052 345.083 577.875 344.562C577.698 344.042 577.609 343.477 577.609 342.867ZM579.055 342.688V342.867C579.055 343.289 579.104 343.688 579.203 344.062C579.302 344.432 579.451 344.76 579.648 345.047C579.852 345.333 580.104 345.56 580.406 345.727C580.708 345.888 581.06 345.969 581.461 345.969C581.857 345.969 582.203 345.888 582.5 345.727C582.802 345.56 583.052 345.333 583.25 345.047C583.448 344.76 583.596 344.432 583.695 344.062C583.799 343.688 583.852 343.289 583.852 342.867V342.688C583.852 342.271 583.799 341.878 583.695 341.508C583.596 341.133 583.445 340.802 583.242 340.516C583.044 340.224 582.794 339.995 582.492 339.828C582.195 339.661 581.846 339.578 581.445 339.578C581.049 339.578 580.701 339.661 580.398 339.828C580.102 339.995 579.852 340.224 579.648 340.516C579.451 340.802 579.302 341.133 579.203 341.508C579.104 341.878 579.055 342.271 579.055 342.688ZM588.562 339.875V347H587.117V338.547H588.523L588.562 339.875ZM591.203 338.5L591.195 339.844C591.076 339.818 590.961 339.802 590.852 339.797C590.747 339.786 590.628 339.781 590.492 339.781C590.159 339.781 589.865 339.833 589.609 339.938C589.354 340.042 589.138 340.188 588.961 340.375C588.784 340.562 588.643 340.786 588.539 341.047C588.44 341.302 588.375 341.583 588.344 341.891L587.938 342.125C587.938 341.615 587.987 341.135 588.086 340.688C588.19 340.24 588.349 339.844 588.562 339.5C588.776 339.151 589.047 338.88 589.375 338.688C589.708 338.49 590.104 338.391 590.562 338.391C590.667 338.391 590.786 338.404 590.922 338.43C591.057 338.451 591.151 338.474 591.203 338.5ZM597.953 339.875V347H596.508V338.547H597.914L597.953 339.875ZM600.594 338.5L600.586 339.844C600.466 339.818 600.352 339.802 600.242 339.797C600.138 339.786 600.018 339.781 599.883 339.781C599.549 339.781 599.255 339.833 599 339.938C598.745 340.042 598.529 340.188 598.352 340.375C598.174 340.562 598.034 340.786 597.93 341.047C597.831 341.302 597.766 341.583 597.734 341.891L597.328 342.125C597.328 341.615 597.378 341.135 597.477 340.688C597.581 340.24 597.74 339.844 597.953 339.5C598.167 339.151 598.438 338.88 598.766 338.688C599.099 338.49 599.495 338.391 599.953 338.391C600.057 338.391 600.177 338.404 600.312 338.43C600.448 338.451 600.542 338.474 600.594 338.5ZM605.281 347.156C604.693 347.156 604.159 347.057 603.68 346.859C603.206 346.656 602.797 346.372 602.453 346.008C602.115 345.643 601.854 345.211 601.672 344.711C601.49 344.211 601.398 343.664 601.398 343.07V342.742C601.398 342.055 601.5 341.443 601.703 340.906C601.906 340.365 602.182 339.906 602.531 339.531C602.88 339.156 603.276 338.872 603.719 338.68C604.161 338.487 604.62 338.391 605.094 338.391C605.698 338.391 606.219 338.495 606.656 338.703C607.099 338.911 607.461 339.203 607.742 339.578C608.023 339.948 608.232 340.385 608.367 340.891C608.503 341.391 608.57 341.938 608.57 342.531V343.18H602.258V342H607.125V341.891C607.104 341.516 607.026 341.151 606.891 340.797C606.76 340.443 606.552 340.151 606.266 339.922C605.979 339.693 605.589 339.578 605.094 339.578C604.766 339.578 604.464 339.648 604.188 339.789C603.911 339.924 603.674 340.128 603.477 340.398C603.279 340.669 603.125 341 603.016 341.391C602.906 341.781 602.852 342.232 602.852 342.742V343.07C602.852 343.471 602.906 343.849 603.016 344.203C603.13 344.552 603.294 344.859 603.508 345.125C603.727 345.391 603.99 345.599 604.297 345.75C604.609 345.901 604.964 345.977 605.359 345.977C605.87 345.977 606.302 345.872 606.656 345.664C607.01 345.456 607.32 345.177 607.586 344.828L608.461 345.523C608.279 345.799 608.047 346.062 607.766 346.312C607.484 346.562 607.138 346.766 606.727 346.922C606.32 347.078 605.839 347.156 605.281 347.156ZM611.695 340.227V347H610.242V338.547H611.617L611.695 340.227ZM611.398 342.453L610.727 342.43C610.732 341.852 610.807 341.318 610.953 340.828C611.099 340.333 611.315 339.904 611.602 339.539C611.888 339.174 612.245 338.893 612.672 338.695C613.099 338.492 613.594 338.391 614.156 338.391C614.552 338.391 614.917 338.448 615.25 338.562C615.583 338.672 615.872 338.846 616.117 339.086C616.362 339.326 616.552 339.633 616.688 340.008C616.823 340.383 616.891 340.836 616.891 341.367V347H615.445V341.438C615.445 340.995 615.37 340.641 615.219 340.375C615.073 340.109 614.865 339.917 614.594 339.797C614.323 339.672 614.005 339.609 613.641 339.609C613.214 339.609 612.857 339.685 612.57 339.836C612.284 339.987 612.055 340.195 611.883 340.461C611.711 340.727 611.586 341.031 611.508 341.375C611.435 341.714 611.398 342.073 611.398 342.453ZM616.875 341.656L615.906 341.953C615.911 341.49 615.987 341.044 616.133 340.617C616.284 340.19 616.5 339.81 616.781 339.477C617.068 339.143 617.419 338.88 617.836 338.688C618.253 338.49 618.729 338.391 619.266 338.391C619.719 338.391 620.12 338.451 620.469 338.57C620.823 338.69 621.12 338.875 621.359 339.125C621.604 339.37 621.789 339.685 621.914 340.07C622.039 340.456 622.102 340.914 622.102 341.445V347H620.648V341.43C620.648 340.956 620.573 340.589 620.422 340.328C620.276 340.062 620.068 339.878 619.797 339.773C619.531 339.664 619.214 339.609 618.844 339.609C618.526 339.609 618.245 339.664 618 339.773C617.755 339.883 617.549 340.034 617.383 340.227C617.216 340.414 617.089 340.63 617 340.875C616.917 341.12 616.875 341.38 616.875 341.656ZM623.906 342.867V342.688C623.906 342.078 623.995 341.513 624.172 340.992C624.349 340.466 624.604 340.01 624.938 339.625C625.271 339.234 625.674 338.932 626.148 338.719C626.622 338.5 627.154 338.391 627.742 338.391C628.336 338.391 628.87 338.5 629.344 338.719C629.823 338.932 630.229 339.234 630.562 339.625C630.901 340.01 631.159 340.466 631.336 340.992C631.513 341.513 631.602 342.078 631.602 342.688V342.867C631.602 343.477 631.513 344.042 631.336 344.562C631.159 345.083 630.901 345.539 630.562 345.93C630.229 346.315 629.826 346.617 629.352 346.836C628.883 347.049 628.352 347.156 627.758 347.156C627.164 347.156 626.63 347.049 626.156 346.836C625.682 346.617 625.276 346.315 624.938 345.93C624.604 345.539 624.349 345.083 624.172 344.562C623.995 344.042 623.906 343.477 623.906 342.867ZM625.352 342.688V342.867C625.352 343.289 625.401 343.688 625.5 344.062C625.599 344.432 625.747 344.76 625.945 345.047C626.148 345.333 626.401 345.56 626.703 345.727C627.005 345.888 627.357 345.969 627.758 345.969C628.154 345.969 628.5 345.888 628.797 345.727C629.099 345.56 629.349 345.333 629.547 345.047C629.745 344.76 629.893 344.432 629.992 344.062C630.096 343.688 630.148 343.289 630.148 342.867V342.688C630.148 342.271 630.096 341.878 629.992 341.508C629.893 341.133 629.742 340.802 629.539 340.516C629.341 340.224 629.091 339.995 628.789 339.828C628.492 339.661 628.143 339.578 627.742 339.578C627.346 339.578 626.997 339.661 626.695 339.828C626.398 339.995 626.148 340.224 625.945 340.516C625.747 340.802 625.599 341.133 625.5 341.508C625.401 341.878 625.352 342.271 625.352 342.688ZM635.859 345.695L638.172 338.547H639.648L636.609 347H635.641L635.859 345.695ZM633.93 338.547L636.312 345.734L636.477 347H635.508L632.445 338.547H633.93ZM644.438 347.156C643.849 347.156 643.315 347.057 642.836 346.859C642.362 346.656 641.953 346.372 641.609 346.008C641.271 345.643 641.01 345.211 640.828 344.711C640.646 344.211 640.555 343.664 640.555 343.07V342.742C640.555 342.055 640.656 341.443 640.859 340.906C641.062 340.365 641.339 339.906 641.688 339.531C642.036 339.156 642.432 338.872 642.875 338.68C643.318 338.487 643.776 338.391 644.25 338.391C644.854 338.391 645.375 338.495 645.812 338.703C646.255 338.911 646.617 339.203 646.898 339.578C647.18 339.948 647.388 340.385 647.523 340.891C647.659 341.391 647.727 341.938 647.727 342.531V343.18H641.414V342H646.281V341.891C646.26 341.516 646.182 341.151 646.047 340.797C645.917 340.443 645.708 340.151 645.422 339.922C645.135 339.693 644.745 339.578 644.25 339.578C643.922 339.578 643.62 339.648 643.344 339.789C643.068 339.924 642.831 340.128 642.633 340.398C642.435 340.669 642.281 341 642.172 341.391C642.062 341.781 642.008 342.232 642.008 342.742V343.07C642.008 343.471 642.062 343.849 642.172 344.203C642.286 344.552 642.451 344.859 642.664 345.125C642.883 345.391 643.146 345.599 643.453 345.75C643.766 345.901 644.12 345.977 644.516 345.977C645.026 345.977 645.458 345.872 645.812 345.664C646.167 345.456 646.477 345.177 646.742 344.828L647.617 345.523C647.435 345.799 647.203 346.062 646.922 346.312C646.641 346.562 646.294 346.766 645.883 346.922C645.477 347.078 644.995 347.156 644.438 347.156ZM658.305 344.758C658.305 344.549 658.258 344.357 658.164 344.18C658.076 343.997 657.891 343.833 657.609 343.688C657.333 343.536 656.917 343.406 656.359 343.297C655.891 343.198 655.466 343.081 655.086 342.945C654.711 342.81 654.391 342.646 654.125 342.453C653.865 342.26 653.664 342.034 653.523 341.773C653.383 341.513 653.312 341.208 653.312 340.859C653.312 340.526 653.385 340.211 653.531 339.914C653.682 339.617 653.893 339.354 654.164 339.125C654.44 338.896 654.771 338.716 655.156 338.586C655.542 338.456 655.971 338.391 656.445 338.391C657.122 338.391 657.701 338.51 658.18 338.75C658.659 338.99 659.026 339.31 659.281 339.711C659.536 340.107 659.664 340.547 659.664 341.031H658.219C658.219 340.797 658.148 340.57 658.008 340.352C657.872 340.128 657.672 339.943 657.406 339.797C657.146 339.651 656.826 339.578 656.445 339.578C656.044 339.578 655.719 339.641 655.469 339.766C655.224 339.885 655.044 340.039 654.93 340.227C654.82 340.414 654.766 340.612 654.766 340.82C654.766 340.977 654.792 341.117 654.844 341.242C654.901 341.362 655 341.474 655.141 341.578C655.281 341.677 655.479 341.771 655.734 341.859C655.99 341.948 656.315 342.036 656.711 342.125C657.404 342.281 657.974 342.469 658.422 342.688C658.87 342.906 659.203 343.174 659.422 343.492C659.641 343.81 659.75 344.195 659.75 344.648C659.75 345.018 659.672 345.357 659.516 345.664C659.365 345.971 659.143 346.237 658.852 346.461C658.565 346.68 658.221 346.852 657.82 346.977C657.424 347.096 656.979 347.156 656.484 347.156C655.74 347.156 655.109 347.023 654.594 346.758C654.078 346.492 653.688 346.148 653.422 345.727C653.156 345.305 653.023 344.859 653.023 344.391H654.477C654.497 344.786 654.612 345.102 654.82 345.336C655.029 345.565 655.284 345.729 655.586 345.828C655.888 345.922 656.188 345.969 656.484 345.969C656.88 345.969 657.211 345.917 657.477 345.812C657.747 345.708 657.953 345.565 658.094 345.383C658.234 345.201 658.305 344.992 658.305 344.758ZM665.156 347.156C664.568 347.156 664.034 347.057 663.555 346.859C663.081 346.656 662.672 346.372 662.328 346.008C661.99 345.643 661.729 345.211 661.547 344.711C661.365 344.211 661.273 343.664 661.273 343.07V342.742C661.273 342.055 661.375 341.443 661.578 340.906C661.781 340.365 662.057 339.906 662.406 339.531C662.755 339.156 663.151 338.872 663.594 338.68C664.036 338.487 664.495 338.391 664.969 338.391C665.573 338.391 666.094 338.495 666.531 338.703C666.974 338.911 667.336 339.203 667.617 339.578C667.898 339.948 668.107 340.385 668.242 340.891C668.378 341.391 668.445 341.938 668.445 342.531V343.18H662.133V342H667V341.891C666.979 341.516 666.901 341.151 666.766 340.797C666.635 340.443 666.427 340.151 666.141 339.922C665.854 339.693 665.464 339.578 664.969 339.578C664.641 339.578 664.339 339.648 664.062 339.789C663.786 339.924 663.549 340.128 663.352 340.398C663.154 340.669 663 341 662.891 341.391C662.781 341.781 662.727 342.232 662.727 342.742V343.07C662.727 343.471 662.781 343.849 662.891 344.203C663.005 344.552 663.169 344.859 663.383 345.125C663.602 345.391 663.865 345.599 664.172 345.75C664.484 345.901 664.839 345.977 665.234 345.977C665.745 345.977 666.177 345.872 666.531 345.664C666.885 345.456 667.195 345.177 667.461 344.828L668.336 345.523C668.154 345.799 667.922 346.062 667.641 346.312C667.359 346.562 667.013 346.766 666.602 346.922C666.195 347.078 665.714 347.156 665.156 347.156ZM675.117 345.555V341.203C675.117 340.87 675.049 340.581 674.914 340.336C674.784 340.086 674.586 339.893 674.32 339.758C674.055 339.622 673.727 339.555 673.336 339.555C672.971 339.555 672.651 339.617 672.375 339.742C672.104 339.867 671.891 340.031 671.734 340.234C671.583 340.438 671.508 340.656 671.508 340.891H670.062C670.062 340.589 670.141 340.289 670.297 339.992C670.453 339.695 670.677 339.427 670.969 339.188C671.266 338.943 671.62 338.75 672.031 338.609C672.448 338.464 672.911 338.391 673.422 338.391C674.036 338.391 674.578 338.495 675.047 338.703C675.521 338.911 675.891 339.227 676.156 339.648C676.427 340.065 676.562 340.589 676.562 341.219V345.156C676.562 345.438 676.586 345.737 676.633 346.055C676.685 346.372 676.76 346.646 676.859 346.875V347H675.352C675.279 346.833 675.221 346.612 675.18 346.336C675.138 346.055 675.117 345.794 675.117 345.555ZM675.367 341.875L675.383 342.891H673.922C673.51 342.891 673.143 342.924 672.82 342.992C672.497 343.055 672.227 343.151 672.008 343.281C671.789 343.411 671.622 343.576 671.508 343.773C671.393 343.966 671.336 344.193 671.336 344.453C671.336 344.719 671.396 344.961 671.516 345.18C671.635 345.398 671.815 345.573 672.055 345.703C672.299 345.828 672.599 345.891 672.953 345.891C673.396 345.891 673.786 345.797 674.125 345.609C674.464 345.422 674.732 345.193 674.93 344.922C675.133 344.651 675.242 344.388 675.258 344.133L675.875 344.828C675.839 345.047 675.74 345.289 675.578 345.555C675.417 345.82 675.201 346.076 674.93 346.32C674.664 346.56 674.346 346.76 673.977 346.922C673.612 347.078 673.201 347.156 672.742 347.156C672.169 347.156 671.667 347.044 671.234 346.82C670.807 346.596 670.474 346.297 670.234 345.922C670 345.542 669.883 345.117 669.883 344.648C669.883 344.195 669.971 343.797 670.148 343.453C670.326 343.104 670.581 342.815 670.914 342.586C671.247 342.352 671.648 342.174 672.117 342.055C672.586 341.935 673.109 341.875 673.688 341.875H675.367ZM680.281 339.875V347H678.836V338.547H680.242L680.281 339.875ZM682.922 338.5L682.914 339.844C682.794 339.818 682.68 339.802 682.57 339.797C682.466 339.786 682.346 339.781 682.211 339.781C681.878 339.781 681.583 339.833 681.328 339.938C681.073 340.042 680.857 340.188 680.68 340.375C680.503 340.562 680.362 340.786 680.258 341.047C680.159 341.302 680.094 341.583 680.062 341.891L679.656 342.125C679.656 341.615 679.706 341.135 679.805 340.688C679.909 340.24 680.068 339.844 680.281 339.5C680.495 339.151 680.766 338.88 681.094 338.688C681.427 338.49 681.823 338.391 682.281 338.391C682.385 338.391 682.505 338.404 682.641 338.43C682.776 338.451 682.87 338.474 682.922 338.5ZM687.484 345.969C687.828 345.969 688.146 345.898 688.438 345.758C688.729 345.617 688.969 345.424 689.156 345.18C689.344 344.93 689.451 344.646 689.477 344.328H690.852C690.826 344.828 690.656 345.294 690.344 345.727C690.036 346.154 689.633 346.5 689.133 346.766C688.633 347.026 688.083 347.156 687.484 347.156C686.849 347.156 686.294 347.044 685.82 346.82C685.352 346.596 684.961 346.289 684.648 345.898C684.341 345.508 684.109 345.06 683.953 344.555C683.802 344.044 683.727 343.505 683.727 342.938V342.609C683.727 342.042 683.802 341.505 683.953 341C684.109 340.49 684.341 340.039 684.648 339.648C684.961 339.258 685.352 338.951 685.82 338.727C686.294 338.503 686.849 338.391 687.484 338.391C688.146 338.391 688.724 338.526 689.219 338.797C689.714 339.062 690.102 339.427 690.383 339.891C690.669 340.349 690.826 340.87 690.852 341.453H689.477C689.451 341.104 689.352 340.789 689.18 340.508C689.013 340.227 688.784 340.003 688.492 339.836C688.206 339.664 687.87 339.578 687.484 339.578C687.042 339.578 686.669 339.667 686.367 339.844C686.07 340.016 685.833 340.25 685.656 340.547C685.484 340.839 685.359 341.164 685.281 341.523C685.208 341.878 685.172 342.24 685.172 342.609V342.938C685.172 343.307 685.208 343.672 685.281 344.031C685.354 344.391 685.477 344.716 685.648 345.008C685.826 345.299 686.062 345.534 686.359 345.711C686.661 345.883 687.036 345.969 687.484 345.969ZM693.922 335V347H692.477V335H693.922ZM693.578 342.453L692.977 342.43C692.982 341.852 693.068 341.318 693.234 340.828C693.401 340.333 693.635 339.904 693.938 339.539C694.24 339.174 694.599 338.893 695.016 338.695C695.438 338.492 695.904 338.391 696.414 338.391C696.831 338.391 697.206 338.448 697.539 338.562C697.872 338.672 698.156 338.849 698.391 339.094C698.63 339.339 698.812 339.656 698.938 340.047C699.062 340.432 699.125 340.904 699.125 341.461V347H697.672V341.445C697.672 341.003 697.607 340.648 697.477 340.383C697.346 340.112 697.156 339.917 696.906 339.797C696.656 339.672 696.349 339.609 695.984 339.609C695.625 339.609 695.297 339.685 695 339.836C694.708 339.987 694.456 340.195 694.242 340.461C694.034 340.727 693.87 341.031 693.75 341.375C693.635 341.714 693.578 342.073 693.578 342.453ZM707.414 347H705.969V337.656C705.969 337.047 706.078 336.534 706.297 336.117C706.521 335.695 706.841 335.378 707.258 335.164C707.674 334.945 708.169 334.836 708.742 334.836C708.909 334.836 709.076 334.846 709.242 334.867C709.414 334.888 709.581 334.919 709.742 334.961L709.664 336.141C709.555 336.115 709.43 336.096 709.289 336.086C709.154 336.076 709.018 336.07 708.883 336.07C708.576 336.07 708.31 336.133 708.086 336.258C707.867 336.378 707.701 336.555 707.586 336.789C707.471 337.023 707.414 337.312 707.414 337.656V347ZM709.211 338.547V339.656H704.633V338.547H709.211ZM712.391 338.547V347H710.938V338.547H712.391ZM710.828 336.305C710.828 336.07 710.898 335.872 711.039 335.711C711.185 335.549 711.398 335.469 711.68 335.469C711.956 335.469 712.167 335.549 712.312 335.711C712.464 335.872 712.539 336.07 712.539 336.305C712.539 336.529 712.464 336.721 712.312 336.883C712.167 337.039 711.956 337.117 711.68 337.117C711.398 337.117 711.185 337.039 711.039 336.883C710.898 336.721 710.828 336.529 710.828 336.305ZM716.281 335V347H714.828V335H716.281ZM722.141 338.547V339.656H717.57V338.547H722.141ZM719.117 336.492H720.562V344.906C720.562 345.193 720.607 345.409 720.695 345.555C720.784 345.701 720.898 345.797 721.039 345.844C721.18 345.891 721.331 345.914 721.492 345.914C721.612 345.914 721.737 345.904 721.867 345.883C722.003 345.857 722.104 345.836 722.172 345.82L722.18 347C722.065 347.036 721.914 347.07 721.727 347.102C721.544 347.138 721.323 347.156 721.062 347.156C720.708 347.156 720.383 347.086 720.086 346.945C719.789 346.805 719.552 346.57 719.375 346.242C719.203 345.909 719.117 345.461 719.117 344.898V336.492ZM727.344 347.156C726.755 347.156 726.221 347.057 725.742 346.859C725.268 346.656 724.859 346.372 724.516 346.008C724.177 345.643 723.917 345.211 723.734 344.711C723.552 344.211 723.461 343.664 723.461 343.07V342.742C723.461 342.055 723.562 341.443 723.766 340.906C723.969 340.365 724.245 339.906 724.594 339.531C724.943 339.156 725.339 338.872 725.781 338.68C726.224 338.487 726.682 338.391 727.156 338.391C727.76 338.391 728.281 338.495 728.719 338.703C729.161 338.911 729.523 339.203 729.805 339.578C730.086 339.948 730.294 340.385 730.43 340.891C730.565 341.391 730.633 341.938 730.633 342.531V343.18H724.32V342H729.188V341.891C729.167 341.516 729.089 341.151 728.953 340.797C728.823 340.443 728.615 340.151 728.328 339.922C728.042 339.693 727.651 339.578 727.156 339.578C726.828 339.578 726.526 339.648 726.25 339.789C725.974 339.924 725.737 340.128 725.539 340.398C725.341 340.669 725.188 341 725.078 341.391C724.969 341.781 724.914 342.232 724.914 342.742V343.07C724.914 343.471 724.969 343.849 725.078 344.203C725.193 344.552 725.357 344.859 725.57 345.125C725.789 345.391 726.052 345.599 726.359 345.75C726.672 345.901 727.026 345.977 727.422 345.977C727.932 345.977 728.365 345.872 728.719 345.664C729.073 345.456 729.383 345.177 729.648 344.828L730.523 345.523C730.341 345.799 730.109 346.062 729.828 346.312C729.547 346.562 729.201 346.766 728.789 346.922C728.383 347.078 727.901 347.156 727.344 347.156ZM733.766 339.875V347H732.32V338.547H733.727L733.766 339.875ZM736.406 338.5L736.398 339.844C736.279 339.818 736.164 339.802 736.055 339.797C735.951 339.786 735.831 339.781 735.695 339.781C735.362 339.781 735.068 339.833 734.812 339.938C734.557 340.042 734.341 340.188 734.164 340.375C733.987 340.562 733.846 340.786 733.742 341.047C733.643 341.302 733.578 341.583 733.547 341.891L733.141 342.125C733.141 341.615 733.19 341.135 733.289 340.688C733.393 340.24 733.552 339.844 733.766 339.5C733.979 339.151 734.25 338.88 734.578 338.688C734.911 338.49 735.307 338.391 735.766 338.391C735.87 338.391 735.99 338.404 736.125 338.43C736.26 338.451 736.354 338.474 736.406 338.5ZM742.664 344.758C742.664 344.549 742.617 344.357 742.523 344.18C742.435 343.997 742.25 343.833 741.969 343.688C741.693 343.536 741.276 343.406 740.719 343.297C740.25 343.198 739.826 343.081 739.445 342.945C739.07 342.81 738.75 342.646 738.484 342.453C738.224 342.26 738.023 342.034 737.883 341.773C737.742 341.513 737.672 341.208 737.672 340.859C737.672 340.526 737.745 340.211 737.891 339.914C738.042 339.617 738.253 339.354 738.523 339.125C738.799 338.896 739.13 338.716 739.516 338.586C739.901 338.456 740.331 338.391 740.805 338.391C741.482 338.391 742.06 338.51 742.539 338.75C743.018 338.99 743.385 339.31 743.641 339.711C743.896 340.107 744.023 340.547 744.023 341.031H742.578C742.578 340.797 742.508 340.57 742.367 340.352C742.232 340.128 742.031 339.943 741.766 339.797C741.505 339.651 741.185 339.578 740.805 339.578C740.404 339.578 740.078 339.641 739.828 339.766C739.583 339.885 739.404 340.039 739.289 340.227C739.18 340.414 739.125 340.612 739.125 340.82C739.125 340.977 739.151 341.117 739.203 341.242C739.26 341.362 739.359 341.474 739.5 341.578C739.641 341.677 739.839 341.771 740.094 341.859C740.349 341.948 740.674 342.036 741.07 342.125C741.763 342.281 742.333 342.469 742.781 342.688C743.229 342.906 743.562 343.174 743.781 343.492C744 343.81 744.109 344.195 744.109 344.648C744.109 345.018 744.031 345.357 743.875 345.664C743.724 345.971 743.503 346.237 743.211 346.461C742.924 346.68 742.581 346.852 742.18 346.977C741.784 347.096 741.339 347.156 740.844 347.156C740.099 347.156 739.469 347.023 738.953 346.758C738.438 346.492 738.047 346.148 737.781 345.727C737.516 345.305 737.383 344.859 737.383 344.391H738.836C738.857 344.786 738.971 345.102 739.18 345.336C739.388 345.565 739.643 345.729 739.945 345.828C740.247 345.922 740.547 345.969 740.844 345.969C741.24 345.969 741.57 345.917 741.836 345.812C742.107 345.708 742.312 345.565 742.453 345.383C742.594 345.201 742.664 344.992 742.664 344.758Z" fill="black" fill-opacity="0.6"/>
</svg>
