<svg width="20" height="20" viewBox="0 0 20 20" fill="none" xmlns="http://www.w3.org/2000/svg">
<path d="M5.00003 17.5C4.16669 17.5 3.5035 17.1771 3.01044 16.5312C2.51739 15.8854 2.37503 15.1667 2.58336 14.375L4.08336 8.70833C3.62503 8.41667 3.24656 8.02083 2.94794 7.52083C2.64933 7.02083 2.50003 6.45833 2.50003 5.83333C2.50003 4.91667 2.82642 4.13194 3.47919 3.47917C4.13197 2.82639 4.91669 2.5 5.83336 2.5H12.5C13.125 2.5 13.5973 2.76389 13.9167 3.29167C14.2361 3.81944 14.257 4.36111 13.9792 4.91667L12.3125 8.25C12.1598 8.52778 11.9549 8.75 11.6979 8.91667C11.441 9.08333 11.1528 9.16667 10.8334 9.16667H9.14586L8.9167 10H9.1667C9.40281 10 9.60072 10.0799 9.76045 10.2396C9.92017 10.3993 10 10.5972 10 10.8333V12.5C10 12.7361 9.92017 12.934 9.76045 13.0938C9.60072 13.2535 9.40281 13.3333 9.1667 13.3333H8.0417L7.4167 15.6667C7.26392 16.2083 6.96531 16.6493 6.52086 16.9896C6.07642 17.3299 5.56947 17.5 5.00003 17.5ZM18.2709 3.0625L16.3959 3.91667C16.2431 3.98611 16.0868 3.98958 15.9271 3.92708C15.7674 3.86458 15.6528 3.75694 15.5834 3.60417C15.5139 3.45139 15.507 3.29514 15.5625 3.13542C15.6181 2.97569 15.7223 2.86111 15.875 2.79167L17.75 1.9375C17.9028 1.86806 18.0625 1.86458 18.2292 1.92708C18.3959 1.98958 18.5139 2.09722 18.5834 2.25C18.6528 2.40278 18.6563 2.55903 18.5938 2.71875C18.5313 2.87847 18.4236 2.99306 18.2709 3.0625ZM15.8959 8.89583C15.7431 8.82639 15.632 8.70833 15.5625 8.54167C15.4931 8.375 15.4931 8.21528 15.5625 8.0625C15.632 7.89583 15.75 7.78472 15.9167 7.72917C16.0834 7.67361 16.25 7.68056 16.4167 7.75L18.2917 8.625C18.4445 8.69444 18.5486 8.80903 18.6042 8.96875C18.6598 9.12847 18.6528 9.28472 18.5834 9.4375C18.5139 9.59028 18.3993 9.69792 18.2396 9.76042C18.0799 9.82292 17.9236 9.81944 17.7709 9.75L15.8959 8.89583ZM18.5417 6.45833H16.4584C16.2778 6.45833 16.1285 6.39931 16.0104 6.28125C15.8924 6.16319 15.8334 6.01389 15.8334 5.83333C15.8334 5.65278 15.8924 5.50347 16.0104 5.38542C16.1285 5.26736 16.2778 5.20833 16.4584 5.20833H18.5417C18.7223 5.20833 18.8716 5.26736 18.9896 5.38542C19.1077 5.50347 19.1667 5.65278 19.1667 5.83333C19.1667 6.01389 19.1077 6.16319 18.9896 6.28125C18.8716 6.39931 18.7223 6.45833 18.5417 6.45833Z" fill="#225FA6"/>
</svg>
